<!-- Generated by IcoMoon.io -->
<svg version="1.1" xmlns="http://www.w3.org/2000/svg" width="41" height="32" viewBox="0 0 41 32">
<title>ammo_special</title>
<path d="M39.988 6.94l-4.829-4.872-0.085 0.128v-0.128h-29.146v0.128l-4.829 4.744h-0.085v18.077h0.085l4.829 4.915h29.146v-0.085l0.085 0.085 4.829-4.915v-18.077zM32.722 26.214h-24.402l-3.547-3.504v-13.291l3.547-3.59h24.317l3.547 3.504v13.376zM21.953 14.718h4.188v8.248h-4.188v-8.248zM17.038 8.393q-0.214 0-0.684 0.427t-0.855 0.898q-0.47 0.726-0.513 1.41v3.034h4.188v-3.034q-0.085-0.726-0.513-1.41-0.427-0.513-0.898-0.898t-0.726-0.427zM24.004 8.393q-0.214 0-0.726 0.427t-0.855 0.898q-0.427 0.726-0.47 1.41v3.034h4.103v-3.034q-0.043-0.726-0.513-1.41-0.342-0.513-0.812-0.898t-0.726-0.427zM14.987 14.718h4.188v8.248h-4.188v-8.248z"></path>
</svg>
