<!-- Generated by IcoMoon.io -->
<svg version="1.1" xmlns="http://www.w3.org/2000/svg" width="32" height="32" viewBox="0 0 32 32">
<title>bungie</title>
<path d="M3.264 3.2v1.76l0.64 0.256v-3.232l0.288 0.032q0.48 0 0.704 0.032l0.544 0.032 2.24 0.096q0.64 0.032 0.96 0.032l0.576 0.032q0.928 0.064 1.216 0.064l1.632 0.064q1.216 0.096 2.048 0.128 0.608 0 1.504 0.064 1.056 0.032 2.656-0.032 0.704-0.064 1.44-0.064 0.384 0 1.376-0.096l0.8-0.032q1.568-0.064 1.888-0.064l0.352-0.032q0.256 0 0.32-0.032l4.448-0.192 0.256-0.032v13.312l0.32 0.224q0.288 0.224 0.32 0.224t0-3.008v-11.328l-0.48 0.032q-0.384 0-1.6 0.064l-1.408 0.064q-0.096 0.032-0.544 0.032l-5.344 0.256q-0.16 0.032-0.736 0.032l-2.656 0.128q-0.288 0.032-0.64 0.032l-1.6-0.096q-0.48 0-0.576-0.032-0.448 0-0.736-0.016t-1.12-0.048l-4.8-0.256q-1.024-0.032-3.296-0.16l-0.992-0.032v1.792zM0.416 4.32q0 0.032 0.352 0.256l2.976 1.824q1.856 1.184 2.912 1.824l4.16 2.56q0.224 0.16 0.24 0.144t0.144-0.528l0.192-0.768q0.16-0.576 0.192-0.576t0.256 0.16l0.32 0.224q0.576 0.416 0.576 0.352l0.064-0.128q0.256-0.416 0.416-0.736l0.512-0.896 0.192-0.096q0.064 0 0.016-0.048t-0.272-0.208l-0.736-0.544-2.016-1.408q-1.376-0.992-1.408-0.96 0 0.352 0.032 0.736 0.128 2.144 0.096 2.272v0.128l-0.512-0.224-1.728-0.672q-0.736-0.32-3.424-1.376-3.424-1.376-3.488-1.376t-0.064 0.064zM15.488 6.4q-0.064 0.064-0.56 0.896t-0.464 0.848 0.816 0.352 0.816 0.336 0.352-0.544l0.128-0.256q0.48-0.8 0.464-0.848t-0.304-0.208l-0.736-0.448q-0.224-0.16-0.336-0.176t-0.176 0.048zM3.296 11.872q0 3.936 0.016 4.672t0.048 0.992q0.192 0.928 0.416 1.568 0.256 0.704 0.64 1.408 1.312 2.592 4.32 5.248 1.504 1.344 3.488 2.688t3.904 2.304l0.416 0.224 0.48-0.256q3.424-1.792 6.272-4.096 5.792-4.672 6.4-9.312l0.032-0.128-0.288-0.16-0.096-0.032q-0.192-0.096-0.192-0.064l-0.064 0.352q0 0.16-0.128 0.704l-0.032 0.16q-0.544 2.272-2.432 4.624t-5.024 4.624q-0.928 0.672-2.128 1.424t-2.128 1.232l-0.672 0.352-0.224-0.096q-0.96-0.48-2.288-1.312t-2.448-1.632q-3.424-2.496-5.376-5.104t-2.24-5.072q-0.064-0.768-0.064-5.344v-4.896l-0.288-0.16q-0.096-0.096-0.224-0.16l-0.096-0.032q-0.064 0 0 5.28zM17.44 7.488q-0.032 0.032-0.48 0.736t-0.448 0.768l0.16 0.096q0.224 0.096 0.416 0.192 0.608 0.288 0.736 0.416t0.144 0.112 0.208-0.336l0.64-1.024q0.064-0.128 0.016-0.208t-0.304-0.208q-0.352-0.192-0.576-0.352-0.416-0.224-0.512-0.192zM13.952 8.416q-0.064 0-0.48 0.832l-1.184 2.208q-0.064 0.032-0.016 0.16t0.256 0.48 0.592 0.96l1.504 2.464-0.288 1.056q-0.288 1.056-0.256 1.056l0.192 0.096q0.192 0.096 0.576 0.416l0.672 0.544q0.32 0.256 0.528 0.368t0.496 0.176q0.448 0.096 0.736 0.016t0.992-0.464 1.056-0.512l0.256-0.128q0.064-0.064 0.032-0.096 0-0.128-0.16-0.896t-0.16-0.96q0-0.064 0.080-0.32t0.176-0.448l0.096-0.192-1.28-0.832q-0.416-0.32-1.088-0.736l-0.224-0.16-0.384-0.768q-0.448-0.768-0.544-0.832-0.128-0.192-0.768-0.48l-0.672-0.32q-0.032-0.032 0.096-0.224t0.192-0.192 0.8 0.32l0.864 0.32q0.064 0 0.144-0.096t0.384-0.576 0.352-0.576-0.016-0.192-1.984-0.896l-1.088-0.48-0.384-0.128q-0.032-0.032-0.096 0.032zM19.104 8.704q-0.032 0.032-0.32 0.512l-0.384 0.576-0.864 1.408q-0.224 0.32-0.224 0.384t0.128 0.16l0.544 0.352q0.352 0.192 0.448 0.24t0.16 0 0.96-1.472 0.896-1.488l-0.096-0.128-1.152-0.64zM20.608 9.888q-0.096 0.128-0.864 1.376t-0.768 1.296 0.080 0.128 0.368 0.24q0.512 0.288 0.608 0.256v0q0.032 0 0.096-0.064l0.864-1.408q0.8-1.216 0.752-1.28t-0.48-0.336-0.512-0.272-0.144 0.064zM22.688 10.944q-0.064 0.448-0.16 0.928-0.128 1.056-0.224 1.472-0.064 0.544-0.096 0.544l-1.344-1.088q-0.032-0.032-0.080 0t-0.208 0.256q-0.224 0.32-0.336 0.416t-0.304 0.096q-0.288-0.064-0.704-0.32-0.352-0.224-1.024-0.608l-1.536-0.832 0.224 0.416q0.064 0.128 0.256 0.48l0.32 0.576 3.008 2.048 2.080 1.376q0.992 0.64 0.992 0.672t0.032 0h0.032l0.192-1.152q0.128-0.736 0.224-1.6l0.096-0.544q0.032-0.032 1.184 0.512 1.408 0.704 1.696 0.832l2.528 1.248q1.92 0.96 1.984 0.96t0.064-0.048-0.32-0.272l-0.576-0.448q-0.672-0.48-2.272-1.696l-5.536-4.096q-0.192-0.16-0.192-0.128zM8.8 15.296q-0.512 0.128-0.512 0.608 0 0.32 0.352 0.832 0.192 0.256 0.24 0.416t0.016 0.32v0.064q-0.032 0.064-0.016 0.080t0.144-0.032 0.224-0.112 0.192-0.352 0.096-0.512v-0.16h0.256q0.224 0.032 0.496 0.128t0.432 0.192 0.256 0.256l0.032 0.064q0.064 0.096 0.032 0.192-0.032 0.192 0.064 0.544 0 0.096-0.16 0.352l-0.032 0.064q-0.128 0.192-0.144 0.256t0.048 0.16q0.128 0.32 1.216 0.544 0.704 0.096 1.184 0.32 0.384 0.16 0.992 0.704 0.768 0.608 1.216 0.832 0.32 0.16 0.544 0.208t0.608 0.080q0.736 0.096 1.408-0.096 0.352-0.096 0.544-0.192 0.224-0.096 0.64-0.336t0.704-0.352 0.736-0.208q0.544-0.096 0.976-0.256t0.656-0.224 0.496-0.064 0.432 0.064q0.448 0.192 0.448 0.256t-0.112 0.16-0.176 0.128h-0.192q-0.192 0-0.272 0.080t-0.112 0.128-0.032 0.24 0.128 0.448q0.096 0.192 0.256 0.352 0.096 0.096 0.16 0.112t0.384 0.048h0.096q0.384 0.064 0.448 0.096l0.128 0.064-0.256 0.384q-0.384 0.544-0.16 0.544 0.096 0 0.368-0.432t0.272-0.592q0-0.064 0.128-0.368t0.112-0.4-0.064-0.112-0.24-0.016-0.24-0.032-0.048-0.176 0.048-0.224 0.208-0.272l0.032-0.032q0.224-0.192 0.24-0.304t-0.144-0.368q-0.224-0.416-0.512-0.736t-0.576-0.448q-0.384-0.192-0.832-0.176t-1.184 0.24q-0.416 0.128-0.864 0.16-0.64 0.064-0.736 0.096-0.416 0.096-0.992 0.448-0.64 0.352-0.88 0.48t-0.432 0.16q-0.384 0.128-0.896 0.080t-0.896-0.272q-0.128-0.096-0.704-0.544l-0.128-0.096q-0.64-0.512-0.736-0.544-0.48-0.32-1.6-0.608-0.544-0.128-0.624-0.208t0.336-0.4q0.16-0.128 0.272-0.336t-0.112-0.496q-0.16-0.16-0.4-0.24t-0.864-0.192-1.040-0.272h-0.032q-0.8-0.384-1.344-0.192z"></path>
</svg>
