<!-- Generated by IcoMoon.io -->
<svg version="1.1" xmlns="http://www.w3.org/2000/svg" width="32" height="32" viewBox="0 0 32 32">
<title>class_warlock</title>
<path d="M29.892 22.231l1.192 2.077h-4.835l2.418-4.154zM27.475 18.077l1.192 2.077h-4.767l2.349-4.154zM28.666 20.154l-2.418 4.154-2.349-4.154h4.767zM25.091 13.923l1.158 2.077h-4.767l2.418-4.188zM26.249 16l-2.349 4.154-2.418-4.154h4.767zM24.683 22.231l1.158 2.077h-4.699l2.349-4.086zM22.674 9.769l1.226 2.043h-4.801l2.383-4.12zM23.899 11.812l-2.418 4.188-2.383-4.188h4.801zM22.299 18.145l1.192 2.077h-4.733l2.383-4.12zM23.491 20.222l-2.349 4.086-2.383-4.086h4.733zM19.95 14.059l1.192 2.043h-4.733l2.349-4.12zM21.141 16.102l-2.383 4.12-2.349-4.12h4.733zM19.473 22.299l1.158 2.009h-4.631l2.281-4.018zM17.192 9.769l1.192 2.043-2.383 4.188-2.383-4.188 2.383-4.12zM17.158 18.281l1.124 2.009h-4.597l2.315-4.018zM18.281 20.29l-2.281 4.018-2.315-4.018h4.597zM14.842 22.299l1.158 2.009h-4.631l2.315-4.018zM14.434 14.059l1.158 2.043h-4.699l2.315-4.12zM15.591 16.102l-2.383 4.12-2.315-4.12h4.699zM12.050 18.145l1.158 2.077h-4.699l2.383-4.12zM13.208 20.222l-2.315 4.086-2.383-4.086h4.699zM11.71 9.769l1.158 2.043h-4.767l2.383-4.12zM12.867 11.812l-2.383 4.188-2.383-4.188h4.767zM9.667 22.231l1.226 2.077h-4.767l2.383-4.086zM9.292 13.923l1.192 2.077h-4.767l2.383-4.188zM10.484 16l-2.383 4.154-2.383-4.154h4.767zM6.875 18.077l1.226 2.077h-4.801l2.418-4.154zM8.101 20.154l-2.383 4.154-2.417-4.154h4.801zM4.491 22.231l1.226 2.077h-4.801l2.383-4.154z"></path>
</svg>
