<svg width="32" height="32" viewBox="0 0 32 32" fill="none" xmlns="http://www.w3.org/2000/svg">
<path fill-rule="evenodd" clip-rule="evenodd" d="M12.8224 3.06007C12.7994 3.0859 12.7099 3.24421 12.6234 3.41185C12.5369 3.5795 12.3402 3.93733 12.1863 4.20698C12.0325 4.47663 11.8832 4.73903 11.8547 4.79003C11.8261 4.84103 11.6536 5.14518 11.4712 5.4659C10.9548 6.37439 10.9455 6.39246 10.9295 6.5303C10.9213 6.60087 10.9279 6.74798 10.9442 6.8573C11.2037 8.60713 11.1943 10.7474 10.9204 12.2375C10.6311 13.8111 10.3294 14.88 9.8316 16.0938C9.61676 16.6178 9.12541 17.639 8.96785 17.8889C8.93365 17.9433 8.90557 17.9927 8.90557 17.9988C8.90557 18.0738 8.06639 19.3702 7.73051 19.814C7.09638 20.6522 6.74586 21.0534 5.99598 21.7996L5.50896 22.2842L5.56833 22.3827C5.68773 22.5809 5.98314 23.0954 6.07379 23.263C6.50414 24.0588 7.2287 25.3393 7.25409 25.3491C7.27141 25.3558 7.43838 25.2374 7.62514 25.0861C8.82298 24.1154 10.5114 23.0749 11.8607 22.4756C11.9628 22.4303 12.1178 22.3609 12.2053 22.3215C12.4624 22.2056 13.0307 21.9925 13.3449 21.8944C13.8013 21.7516 13.8673 21.7083 13.6873 21.6693C13.5546 21.6406 11.6796 21.6464 11.0259 21.6775C9.87528 21.7324 9.94249 21.7565 10.1818 21.3749C11.3455 19.5198 11.9483 18.3939 12.4771 17.0877C14.0523 13.197 14.3833 8.84855 13.4121 4.80332C13.3427 4.51426 13.1988 3.97534 12.9981 3.25287C12.9323 3.01616 12.8963 2.97658 12.8224 3.06007ZM20.0364 3.08232C20.0222 3.11966 20.0106 3.1605 20.0106 3.17305C20.0106 3.18559 19.9271 3.49997 19.8251 3.87177C19.6037 4.67847 19.4752 5.21784 19.3884 5.70441C19.365 5.83561 19.3409 5.96637 19.3347 5.99489C19.3158 6.08271 19.5699 7.04294 19.782 7.68528C20.1213 8.71332 20.6169 9.80885 21.1686 10.751C21.5758 11.4462 21.975 12.0521 22.0262 12.0521C22.0578 12.0521 22.0605 12.0903 21.9974 11.6482C21.9055 11.0036 21.8872 10.719 21.8732 9.71969C21.8566 8.53081 21.8803 8.15483 22.0564 6.81055C22.0989 6.48684 22.0838 6.43689 21.7854 5.91649C21.6516 5.6832 21.5089 5.43275 21.4681 5.35987C21.4273 5.28699 21.3496 5.14981 21.2954 5.05512C21.2411 4.96036 21.1763 4.84701 21.1513 4.80332C21.1263 4.75957 21.0661 4.65226 21.0176 4.56474C20.969 4.4773 20.8776 4.31832 20.8145 4.21139C20.7514 4.10453 20.6997 4.01186 20.6997 4.00551C20.6997 3.99909 20.6685 3.9445 20.6304 3.88409C20.5922 3.82375 20.4869 3.6302 20.3964 3.45397C20.1496 2.97389 20.098 2.9205 20.0364 3.08232ZM14.7448 6.21443C14.7536 6.29837 14.7781 6.46243 14.7994 6.57907C14.843 6.8178 14.9031 7.35948 14.9537 7.97046C14.9984 8.5102 14.9989 10.3917 14.9545 10.9521C14.9062 11.5621 14.7773 12.6202 14.7091 12.9664C14.544 13.8057 14.5415 13.8064 15.0891 12.8549C15.3878 12.336 15.4601 12.2057 15.6999 11.7539C15.7676 11.6263 15.8755 11.4235 15.9395 11.3033C16.0036 11.1831 16.1278 10.9412 16.2155 10.7659C16.492 10.2126 16.4873 10.213 16.7536 10.7268C17.0867 11.3695 17.4104 11.978 17.5763 12.2731C17.6324 12.3728 17.6782 12.4583 17.6782 12.4631C17.6782 12.4809 17.994 13.0052 18.2189 13.3607C20.7383 17.3439 24.5804 20.3011 29.035 21.6858C29.5043 21.8317 30.8473 22.1764 30.9463 22.1764C31.0433 22.1764 31.1202 22.3257 30.1267 20.5861C29.981 20.3311 29.8383 20.0806 29.8097 20.0296C29.781 19.9786 29.6796 19.7997 29.5844 19.632C29.3961 19.3006 29.3325 19.1875 29.2168 18.9781C29.0687 18.71 28.9956 18.6528 28.5977 18.4931C28.309 18.3773 28.2663 18.3591 28.0014 18.2398C27.408 17.9726 26.5175 17.5097 26.2878 17.349C26.2491 17.3219 26.2085 17.2997 26.1975 17.2997C26.1866 17.2997 26.1386 17.2699 26.0908 17.2334C26.043 17.197 25.997 17.1672 25.9887 17.1672C25.9689 17.1672 25.2822 16.7135 25.2363 16.6701C25.2169 16.6518 25.1776 16.6242 25.1488 16.6088C24.6369 16.3348 23.0387 14.9056 22.2613 14.0265C22.1968 13.9536 22.1375 13.8881 22.1292 13.8807C22.1013 13.8558 21.6129 13.2581 21.4795 13.0857C21.3403 12.9057 20.9446 12.353 20.8148 12.1572C20.7733 12.0947 20.7215 12.0169 20.6997 11.9843C20.6317 11.883 20.2355 11.2272 20.1161 11.0184C19.9441 10.7176 19.5589 9.95208 19.4292 9.65346C19.3659 9.50769 19.2874 9.32878 19.2548 9.2559C19.1431 9.00678 18.9569 8.51409 18.824 8.11622C18.5893 7.41399 18.468 6.98589 18.3808 6.55256C18.3426 6.36303 18.3028 6.17814 18.2924 6.1417L18.2733 6.07547L16.5012 6.06867L14.7289 6.06188L14.7448 6.21443ZM8.43894 16.1503C7.78158 16.7145 6.63564 17.4378 5.55287 17.972C5.33423 18.0799 5.11356 18.186 5.06256 18.2079C5.01156 18.2298 4.91232 18.2734 4.84198 18.3048C4.77171 18.3362 4.62266 18.3978 4.51072 18.4417C4.03281 18.6288 3.9205 18.707 3.80394 18.9333C3.77496 18.9896 3.5614 19.3696 3.32938 19.7778C3.0973 20.186 2.87746 20.5736 2.84087 20.6392C2.80428 20.7048 2.72266 20.8459 2.65956 20.9528C2.59639 21.0596 2.54471 21.1504 2.54471 21.1544C2.54471 21.1584 2.42606 21.3669 2.28097 21.6175C1.97324 22.1495 1.96174 22.1764 2.04253 22.1764C2.22377 22.1764 3.83224 21.7361 4.55262 21.4893C4.99416 21.338 5.05308 21.2937 5.63837 20.6721C6.70949 19.5345 7.46885 18.4773 8.22246 17.0745C8.88123 15.8481 8.90393 15.7513 8.43894 16.1503ZM21.0972 18.4334C21.0972 18.4846 21.2285 18.7499 21.311 18.866C21.3392 18.9055 21.3623 18.9435 21.3623 18.9505C21.3623 18.9832 22.1741 20.3437 22.7891 21.3415C23.0118 21.703 23.0095 21.7339 22.7603 21.7176C21.7071 21.6485 19.2554 21.6272 19.0034 21.6848C18.967 21.6932 18.8119 21.7116 18.6589 21.7259C18.2262 21.7661 17.9268 21.8018 17.6385 21.8476C17.4928 21.8708 17.3019 21.9007 17.2144 21.9141C17.127 21.9277 16.96 21.9577 16.8434 21.981C16.7267 22.0043 16.5837 22.0325 16.5254 22.0437C16.4265 22.0627 16.1431 22.1265 15.929 22.178C15.878 22.1903 15.7826 22.2119 15.717 22.2262C15.5129 22.2705 14.658 22.5196 14.299 22.6393C13.9164 22.7669 13.0856 23.0796 13.0547 23.1076C13.0409 23.1202 13.0143 23.1305 12.9958 23.1305C12.9772 23.1305 12.8931 23.1618 12.8089 23.1999C12.7248 23.2381 12.6201 23.2848 12.5763 23.3037C12.0721 23.5208 11.0352 24.0434 10.7282 24.235C10.6738 24.2689 10.6235 24.2967 10.6163 24.2967C10.4503 24.2967 8.33753 25.8087 7.66554 26.4085C7.55413 26.5079 7.39701 26.6476 7.31629 26.7189C6.71875 27.247 5.52024 28.5105 5.58535 28.5437C5.59663 28.5496 6.48846 28.5474 7.56712 28.5391L9.52842 28.524L9.63528 28.4544C9.69413 28.4161 9.84317 28.3022 9.96661 28.2012C11.9927 26.5435 14.6462 25.3203 17.3072 24.8172C17.6295 24.7563 17.7997 24.7281 18.3673 24.6414C18.9213 24.5569 19.4972 24.5247 20.4611 24.5244C21.7105 24.524 22.1979 24.5676 23.5091 24.7972C24.0207 24.8868 24.9075 25.112 25.4438 25.2886C25.7746 25.3975 25.7249 25.428 25.982 24.9593C26.2068 24.5497 26.1819 24.5945 26.7698 23.5413C27.0138 23.104 27.2739 22.6457 27.3477 22.5229C27.5162 22.2426 27.5456 22.28 26.981 22.0566C26.8425 22.0018 26.6577 21.9244 26.5702 21.8846C26.4827 21.8449 26.3515 21.7856 26.2786 21.7531C26.0045 21.6304 25.2614 21.2578 24.9966 21.1104C24.8454 21.0261 24.7174 20.9572 24.7121 20.9572C24.7069 20.9572 24.6219 20.9075 24.5233 20.8468C24.4246 20.786 24.3196 20.7235 24.2898 20.7076C23.6674 20.3771 22.0199 19.1858 21.4919 18.6843C21.3884 18.5861 21.2841 18.4948 21.2601 18.4815C21.2361 18.4682 21.2069 18.4414 21.1953 18.4219C21.1645 18.3703 21.0972 18.3783 21.0972 18.4334ZM19.2685 25.5963C18.5309 25.6498 18.5327 25.6607 19.3292 25.9685C20.382 26.3752 21.7907 27.2258 23.032 28.2042C23.1996 28.3364 23.3666 28.4624 23.403 28.4842C23.46 28.5184 27.3532 28.5803 27.4005 28.5478C27.4672 28.5021 26.346 27.3214 25.554 26.6033C25.1964 26.279 25.2616 26.3106 24.5692 26.1261C24.3432 26.0658 24.1226 26.0059 24.0788 25.9928C24.0351 25.9797 23.8741 25.9429 23.7211 25.9111C23.0583 25.7734 22.7353 25.7226 21.9453 25.6321C21.5301 25.5845 19.7573 25.5608 19.2685 25.5963Z" fill="black"/>
</svg>
