<!-- Generated by IcoMoon.io -->
<svg version="1.1" xmlns="http://www.w3.org/2000/svg" width="30" height="32" viewBox="0 0 30 32">
<title>crucible2</title>
<path d="M3.57 4.514l0.063 0.127c0.136 0.326 0.254 0.657 0.418 0.97 0.198 0.323 0.454 0.591 0.755 0.798l0.009 0.006c0.902 0.714 1.806 1.421 2.697 2.145s1.782 1.478 2.673 2.218c0.029 0.024 0.063 0.043 0.101 0.054h0.002c-0.851-0.967-1.753-1.841-2.719-2.641l-0.040-0.032-0.039-0.033 0.024-0.042h0.096c0.694 0.114 1.39 0.219 2.082 0.366 0.534 0.103 1.062 0.219 1.434 0.676 0.136 0.16 0.247 0.344 0.372 0.508 0.048 0.063 0.105 0.123 0.184 0.219 0.175-0.805 0.293-1.745 0.328-2.706l0.001-0.029-0.046-0.018c-0.033 0.060-0.067 0.132-0.096 0.207l-0.004 0.012v0.013c-0.026 0.081-0.031 0.171-0.050 0.254-0.015 0.033-0.032 0.062-0.053 0.088l0.001-0.001c-0.028-0.024-0.070-0.044-0.083-0.074-0.078-0.165-0.124-0.359-0.124-0.564s0.046-0.398 0.127-0.572l-0.003 0.008c0.116-0.247 0.265-0.475 0.392-0.7-0.175 0.018-0.377 0.048-0.578 0.055-0.258 0-0.458-0.103-0.499-0.278h0.25c0 0 0.001 0 0.001 0 0.247 0 0.457-0.162 0.528-0.386l0.001-0.004c0.123-0.296 0.252-0.591 0.398-0.876 0.030-0.056 0.048-0.123 0.048-0.194 0-0.001 0-0.002 0-0.003v0c0-0.062-0.013-0.122-0.036-0.176l0.001 0.003c-0.112-0.323-0.29-0.599-0.518-0.823v0c-0.086-0.079-0.2-0.13-0.325-0.136h-0.036c-0.002 0-0.005 0-0.008 0-0.178 0-0.349 0.026-0.51 0.075l0.012-0.003h0.013c-0.068 0.029-0.147 0.046-0.23 0.046-0.197 0-0.371-0.095-0.48-0.242l-0.001-0.002c-0.083-0.090-0.181-0.164-0.292-0.216l-0.006-0.002c-0.068-0.042-0.151-0.067-0.24-0.067-0.213 0-0.393 0.144-0.447 0.339l-0.001 0.003c-0.024 0.063-0.046 0.127-0.079 0.219-0.043-0.031-0.080-0.064-0.113-0.102l-0.001-0.001c-0.144-0.204-0.229-0.457-0.229-0.731 0-0.428 0.211-0.808 0.534-1.040l0.004-0.003c0.13-0.093 0.283-0.162 0.449-0.2l0.008-0.002c0.177-0.059 0.344-0.149 0.517-0.219 0.119-0.052 0.258-0.084 0.404-0.088h0.001c0.484 0.028 0.965 0.081 1.449 0.12 0.167 0.021 0.36 0.033 0.555 0.033 0.008 0 0.016 0 0.024 0h0.095c0.006 0 0.013 0 0.020 0 0.403 0 0.74-0.286 0.817-0.667l0.001-0.005c0.011-0.046 0.025-0.086 0.043-0.124l-0.002 0.004c0.022-0.031 0.045-0.058 0.070-0.083v0c0.022 0.028 0.053 0.055 0.059 0.085 0.068 0.315 0.039 0.718-0.344 0.917-0.142 0.070-0.282 0.144-0.458 0.236l0.438 0.162 0.438 0.169-0.306 0.254c0.326 0.219 0.729 0.328 0.917 0.703l-0.022 0.039c-0.065-0.024-0.121-0.051-0.174-0.082l0.005 0.003c-0.139-0.093-0.31-0.149-0.495-0.149v0c-0.118 0.003-0.229 0.028-0.33 0.072l0.006-0.002c0.305 0.352 0.56 0.758 0.746 1.201l0.011 0.030v0.031c0.177 0.458 0.366 0.917 0.558 1.401-0.254-0.079-0.396-0.287-0.626-0.394 0.066 0.127 0.127 0.252 0.193 0.374 0.192 0.305 0.324 0.666 0.369 1.054l0.001 0.012v0.068c0 0 0 0 0 0 0 0.123-0.014 0.243-0.039 0.359l0.002-0.011v-0.011c-0.157-0.28-0.339-0.521-0.55-0.734v0c-0.232 0.394 0.363 2.511 0.832 2.938 0.486-0.499 1.040-2.469 0.803-2.909-0.136 0.089-0.248 0.206-0.328 0.343l-0.003 0.005c-0.044 0.070-0.074 0.149-0.114 0.219-0.028 0.028-0.061 0.052-0.096 0.071l-0.002 0.001c-0.020-0.029-0.036-0.062-0.045-0.098l-0.001-0.002c-0.001-0.020-0.002-0.043-0.002-0.066s0.001-0.046 0.002-0.069v0.003c0 0 0-0.001 0-0.002 0-0.261 0.058-0.509 0.162-0.731l-0.004 0.011v0.011c0.123-0.271 0.261-0.534 0.407-0.832l-0.639 0.438-0.035-0.035c0.011-0.045 0.026-0.084 0.045-0.121l-0.002 0.003c0.236-0.547 0.477-1.112 0.753-1.659 0.157-0.281 0.322-0.523 0.505-0.75l-0.008 0.010c0.066-0.092 0.057-0.129-0.046-0.166-0.043-0.011-0.092-0.018-0.142-0.018v0c-0.001 0-0.002 0-0.003 0-0.108 0-0.21 0.032-0.294 0.087l0.002-0.001c-0.134 0.061-0.261 0.136-0.392 0.201-0.015 0.008-0.033 0.013-0.053 0.013-0.001 0-0.002 0-0.002 0h-0.026c0.193-0.42 0.552-0.637 1.009-0.781l-0.169-0.123-0.153-0.114 0.847-0.337c-0.361-0.188-0.768-0.298-0.832-0.749 0-0.050 0-0.107 0-0.164 0.001-0.127 0.009-0.252 0.023-0.375l-0.002 0.016v0.015h0.061c0.020 0.055 0.042 0.114 0.057 0.164 0.058 0.292 0.255 0.528 0.517 0.639l0.006 0.002c0.098 0.036 0.211 0.057 0.329 0.057 0.002 0 0.004 0 0.006 0h0.083c0.525-0.035 1.049-0.085 1.574-0.131 0.074-0.002 0.145-0.010 0.214-0.023l-0.008 0.001c0.042-0.004 0.090-0.007 0.139-0.007 0.278 0 0.538 0.076 0.761 0.21l-0.007-0.004c0.097 0.051 0.209 0.091 0.327 0.115l0.008 0.001c0.382 0.048 0.69 0.315 0.797 0.67l0.002 0.007c0.066 0.158 0.105 0.341 0.105 0.534 0 0.212-0.047 0.413-0.131 0.593l0.004-0.009c-0.053 0.092-0.107 0.17-0.167 0.244l0.003-0.003c-0.031-0.057-0.061-0.124-0.087-0.193l-0.003-0.010v-0.011c-0.079-0.344-0.392-0.545-0.81-0.219-0.090 0.072-0.17 0.149-0.241 0.234l-0.002 0.003c-0.081 0.107-0.208 0.175-0.35 0.175-0.002 0-0.003 0-0.005 0v0c-0.001 0-0.002 0-0.002 0-0.036 0-0.072-0.005-0.105-0.014l0.003 0.001c-0.162-0.031-0.324-0.066-0.484-0.099-0.045-0.015-0.097-0.024-0.151-0.024v0c-0.191 0.002-0.355 0.112-0.436 0.271l-0.001 0.003c-0.155 0.252-0.306 0.508-0.438 0.771-0.010 0.032-0.015 0.068-0.015 0.106 0 0.055 0.012 0.108 0.034 0.155l-0.001-0.002c0.094 0.239 0.219 0.464 0.302 0.703s0.193 0.458 0.458 0.528c0.085 0.011 0.184 0.018 0.284 0.018 0.001 0 0.002 0 0.002 0v0c0.079 0 0.158 0 0.236-0.011v0c-0.023 0.044-0.049 0.082-0.079 0.117v-0.001c-0.139 0.113-0.318 0.182-0.513 0.182-0.001 0-0.001 0-0.002 0v0c-0.018 0.001-0.039 0.002-0.060 0.002s-0.042-0.001-0.063-0.002h0.003l-0.506-0.090c0.556 0.593 0.755 1.224 0.392 1.957-0.103-0.197-0.048-0.46-0.28-0.637 0.023 1.001 0.122 1.961 0.291 2.897l-0.017-0.113-0.015-0.112 0.044 0.015c0.079-0.096 0.155-0.195 0.236-0.289 0.179-0.223 0.359-0.422 0.549-0.61l0.001-0.001c0.281-0.221 0.627-0.371 1.005-0.421l0.011-0.001c0.687-0.14 1.384-0.258 2.077-0.385l0.219-0.039 0.031 0.046-3.054 2.894 0.035 0.039c0.123-0.098 0.245-0.193 0.366-0.293 0.766-0.641 1.532-1.287 2.299-1.918 0.67-0.547 1.355-1.077 2.034-1.611 0.46-0.357 0.917-0.694 1.362-1.068 0.446-0.397 0.759-0.934 0.873-1.542l0.003-0.017v-0.018c0.018-0.061 0.039-0.113 0.064-0.163l-0.002 0.005c0.262 0.366 0.474 0.791 0.613 1.247l0.008 0.031v0.031c0.056 0.189 0.088 0.406 0.088 0.631 0 0.001 0 0.002 0 0.002v0c0 0.24-0.036 0.472-0.103 0.691l0.004-0.017v-0.018c-0.115 0.369-0.371 0.665-0.703 0.83l-0.008 0.004c-0.738 0.414-1.482 0.823-2.215 1.239-0.83 0.475-1.664 0.941-2.478 1.447-1.15 0.724-2.126 1.419-3.062 2.163l0.069-0.053 0.072-0.055c-0.046 0.039-0.090 0.077-0.129 0.116v0l0.022 0.026c0.164-0.114 0.331-0.219 0.495-0.35 0.601-0.432 1.303-0.881 2.027-1.294l0.249-0.131c0.727-0.416 1.447-0.845 2.176-1.25 0.657-0.368 1.34-0.716 2.014-1.066 0.438-0.219 0.876-0.425 1.313-0.646 0.342-0.167 0.629-0.334 0.903-0.518l-0.027 0.017-0.028 0.018c0.162-0.132 0.305-0.276 0.434-0.432l0.004-0.005c0.033-0.035 0.059-0.072 0.107-0.134 0.049 0.136 0.077 0.292 0.077 0.455 0 0.243-0.062 0.472-0.172 0.671l0.004-0.007c-0.081 0.151-0.19 0.277-0.321 0.374l-0.003 0.002c-0.845 0.549-1.637 1.171-2.443 1.775-0.708 0.537-1.518 0.998-2.386 1.347l-0.071 0.025-0.070 0.024c-0.517 0.199-1.051 0.344-1.578 0.514-0.468 0.151-0.941 0.296-1.412 0.438-0.073 0.029-0.134 0.059-0.193 0.094l0.007-0.004 0.011 0.035 2.513-0.475 0.031 0.037c-0.031 0.042-0.063 0.079-0.098 0.114v0c-0.403 0.306-0.808 0.617-1.219 0.917-0.208 0.158-0.445 0.318-0.692 0.464l-0.035 0.019-0.037 0.020c-0.231 0.121-0.504 0.193-0.794 0.193-0.001 0-0.002 0-0.003 0v0c-0.066 0-0.131 0-0.197-0.011v0c-0.101 0-0.219 0-0.335 0h-0.16c-0.048 0-0.092 0.055-0.138 0.085 0.037 0.039 0.070 0.114 0.114 0.114 0.552 0.081 1.11 0.193 1.648-0.061 0.227-0.122 0.414-0.236 0.594-0.358l-0.023 0.015c0.224-0.12 0.49-0.19 0.772-0.19 0.002 0 0.005 0 0.007 0h0.015l3.494-0.085c0.149 0 0.294 0.014 0.435 0.039l-0.015-0.002h-0.015c-0.031 0.040-0.064 0.075-0.1 0.107l-0.001 0.001c-0.644 0.468-1.285 0.939-1.933 1.403-0.165 0.122-0.355 0.246-0.551 0.359l-0.029 0.015-0.031 0.015c-0.202 0.108-0.442 0.171-0.697 0.171-0.001 0-0.003 0-0.004 0v0c-0.15 0-0.294-0.022-0.431-0.062l0.011 0.003c-0.698-0.171-1.39-0.361-2.082-0.547-0.331-0.090-0.657-0.188-0.989-0.28-0.068-0.020-0.149-0.057-0.186 0.046-0.009 0.019-0.015 0.040-0.015 0.063v0c0 0 0 0 0 0 0 0.053 0.030 0.099 0.074 0.122h0.001c0.012 0.005 0.027 0.010 0.042 0.013h0.002l0.784 0.25 1.423 0.458 0.976 0.317c0.020 0 0.039 0.018 0.077 0.068-0.158 0.077-0.309 0.16-0.468 0.219-0.736 0.311-1.5 0.291-2.27 0.177-0.335-0.048-0.674-0.063-1.009-0.12-0.032-0.006-0.068-0.010-0.105-0.010-0.211 0-0.395 0.119-0.487 0.294l-0.001 0.003c-0.267 0.398-0.552 0.771-0.821 1.162-0.025 0.041-0.039 0.091-0.039 0.144v0 0.893c0 0.003 0.001 0.006 0.001 0.010s0 0.007-0.001 0.010v0c0.002 0.024 0.003 0.052 0.003 0.080s-0.001 0.056-0.003 0.084v-0.004l-0.7-0.416c-0.008 0.040-0.014 0.089-0.017 0.138v2.154c-0.002 0.017-0.004 0.037-0.004 0.057 0 0.204 0.14 0.376 0.329 0.424l0.003 0.001c0.324 0.123 0.603 0.297 0.84 0.514l-0.002-0.002c0.153 0.114 0.296 0.247 0.438 0.37 0.040 0.023 0.074 0.054 0.1 0.091l0.001 0.001c-0.162 0.070-0.35 0.11-0.547 0.11s-0.386-0.041-0.556-0.114l0.009 0.003c-0.352-0.159-0.646-0.392-0.872-0.68l-0.004-0.005c-0.015 0.085-0.028 0.134-0.033 0.184-0.004 0.066-0.006 0.144-0.006 0.222 0 0.603 0.129 1.175 0.36 1.692l-0.011-0.026c0.153 0.392 0.282 0.792 0.42 1.191 0.028 0.079 0.044 0.17 0.044 0.264 0 0.23-0.096 0.438-0.25 0.585v0c-0.328 0.37-0.672 0.725-1.011 1.095l-0.046 0.050c-0.179 0.197-0.184 0.204-0.37 0-0.359-0.387-0.711-0.777-1.064-1.167-0.134-0.14-0.217-0.329-0.219-0.538v0c0-0.117 0.026-0.229 0.072-0.329l-0.002 0.005c0.208-0.574 0.42-1.147 0.622-1.718 0.046-0.129 0.076-0.279 0.083-0.435v-0.003c0.013-0.32 0-0.639 0-0.998-0.14 0.107-0.25 0.199-0.368 0.28-0.19 0.134-0.381 0.267-0.582 0.381-0.095 0.050-0.208 0.080-0.328 0.081v0c-0.245 0.013-0.493 0-0.738 0l-0.015-0.048 0.131-0.12c0.256-0.219 0.501-0.438 0.768-0.644 0.142-0.102 0.306-0.189 0.481-0.252l0.014-0.004h0.013c0.199-0.044 0.345-0.219 0.345-0.428 0-0.014-0.001-0.027-0.002-0.040v0.002-2.108c-0.003-0.080-0.010-0.156-0.021-0.23l0.001 0.011v0.011l-0.766 0.401c0-0.061-0.013-0.099-0.013-0.136 0-0.188 0-0.377 0-0.565 0-0.026 0-0.057 0-0.088-0.002-0.338-0.131-0.645-0.342-0.877l0.001 0.001c-0.18-0.213-0.356-0.449-0.517-0.695l-0.017-0.028-0.018-0.028c-0.075-0.14-0.22-0.234-0.388-0.234-0.002 0-0.003 0-0.004 0v0c-0.010-0.001-0.022-0.002-0.034-0.002s-0.024 0.001-0.035 0.002h0.001c-0.521 0.057-1.040 0.096-1.561 0.144-0.13 0.017-0.281 0.027-0.433 0.027-0.606 0-1.176-0.152-1.674-0.421l0.019 0.009c-0.078-0.052-0.145-0.102-0.209-0.156l0.003 0.003 0.438-0.153 1.554-0.499c0.414-0.131 0.827-0.258 1.241-0.392 0.060-0.019 0.111-0.056 0.146-0.104l0.001-0.001c0.008-0.019 0.013-0.041 0.013-0.063 0-0.001 0-0.002 0-0.002v0c0-0.031-0.008-0.059-0.022-0.084v0.001c-0.013-0.024-0.083-0.035-0.114-0.024-0.525 0.144-1.046 0.296-1.572 0.438s-1.081 0.311-1.629 0.438c-0.105 0.022-0.225 0.035-0.349 0.035-0.433 0-0.829-0.155-1.136-0.414l0.003 0.002c-0.574-0.438-1.167-0.854-1.751-1.278-0.114-0.083-0.219-0.162-0.344-0.241-0.033-0.019-0.072-0.037-0.112-0.053l-0.006-0.002 0.046-0.072c0.045-0.007 0.1-0.013 0.156-0.015h0.004l3.533 0.085c0.222 0.001 0.439 0.015 0.652 0.042l-0.026-0.003h-0.024c0.242 0.030 0.456 0.131 0.625 0.281l-0.001-0.001c0.234 0.22 0.55 0.355 0.898 0.355 0.001 0 0.001 0 0.002 0h0.052c0.344-0.015 0.676-0.048 1.014-0.074 0.079 0 0.144-0.033 0.136-0.151h-0.169c-0.269 0.026-0.582 0.042-0.9 0.042h-0.057c-0.406-0.049-0.764-0.221-1.043-0.478l0.001 0.001c-0.394-0.304-0.803-0.598-1.197-0.895-0.116-0.083-0.219-0.166-0.324-0.254-0.017-0.019-0.031-0.042-0.041-0.066l-0.001-0.002 0.018-0.044 2.498 0.438 0.011-0.024c-0.047-0.025-0.104-0.051-0.163-0.073l-0.010-0.003h-0.013c-0.847-0.258-1.701-0.506-2.546-0.777-1.251-0.443-2.335-1.040-3.3-1.785l0.027 0.020c-0.711-0.514-1.425-1.018-2.137-1.532-0.098-0.070-0.184-0.149-0.259-0.237l-0.002-0.002c-0.096-0.1-0.156-0.235-0.158-0.385v0c0-0.058 0.009-0.114 0.025-0.166l-0.001 0.004c0.048-0.164 0.088-0.333 0.136-0.499 0.018-0.044 0.040-0.083 0.067-0.117l-0.001 0.001c0.030 0.024 0.057 0.050 0.080 0.078l0.001 0.001c0.254 0.425 0.657 0.641 1.095 0.838s0.852 0.387 1.261 0.602c1.003 0.523 2.005 1.046 2.995 1.591 0.753 0.414 1.491 0.854 2.233 1.292 0.761 0.441 1.41 0.882 2.026 1.364l-0.038-0.029-0.026-0.024c0.034 0.025 0.075 0.050 0.116 0.073l0.007 0.003 0.024-0.037c-0.098-0.081-0.195-0.169-0.298-0.245-0.418-0.313-0.832-0.628-1.261-0.93-0.782-0.568-1.691-1.157-2.631-1.7l-0.154-0.082-0.166-0.088c-0.624-0.35-1.252-0.703-1.876-1.060-0.53-0.304-1.062-0.609-1.585-0.933-0.411-0.256-0.681-0.703-0.687-1.214v-0.001c0-0.046 0-0.101 0-0.155 0-0.002 0-0.005 0-0.007 0-0.665 0.216-1.28 0.582-1.779l-0.006 0.008c0.037-0.048 0.079-0.090 0.131-0.153zM14.56 15.083c-0.012-0.076-0.028-0.143-0.049-0.207l0.003 0.010c-0.093-0.242-0.282-0.428-0.519-0.515l-0.006-0.002c-0.577-0.222-1.033-0.65-1.286-1.192l-0.006-0.014v-0.015c-0.324-0.698-0.368-1.394 0.020-2.082 0.407-0.722 1.169-1.202 2.043-1.202 0.364 0 0.709 0.083 1.016 0.232l-0.014-0.006c0.401 0.205 0.721 0.52 0.927 0.906l0.006 0.012c0.216 0.344 0.345 0.763 0.345 1.212 0 0.701-0.313 1.329-0.808 1.752l-0.003 0.003c-0.183 0.157-0.386 0.302-0.602 0.427l-0.020 0.010h-0.022c-0.242 0.128-0.427 0.338-0.521 0.592l-0.002 0.008c-0.035 0.114 0 0.149 0.116 0.127 0.142-0.021 0.265-0.047 0.385-0.080l-0.022 0.005h-0.020c0.756-0.201 1.378-0.676 1.766-1.309l0.007-0.013c0.253-0.421 0.403-0.93 0.403-1.473 0-0.281-0.040-0.552-0.115-0.809l0.005 0.020v0.022c-0.201-0.866-0.785-1.565-1.559-1.919l-0.017-0.007h-0.018c-0.352-0.16-0.763-0.254-1.197-0.254-0.003 0-0.005 0-0.008 0v0c-0.233 0.001-0.46 0.027-0.678 0.076l0.021-0.004h0.020c-0.612 0.114-1.139 0.419-1.53 0.849l-0.002 0.002c-0.457 0.49-0.738 1.15-0.738 1.876 0 0.002 0 0.003 0 0.005v0c0 0.001 0 0.001 0 0.002 0 0.228 0.028 0.449 0.081 0.66l-0.004-0.019v-0.020c0.184 1.029 0.898 1.856 1.843 2.198l0.020 0.006c0.206 0.086 0.446 0.136 0.697 0.136 0.001 0 0.002 0 0.004 0h0.055zM11.543 1.51c-0.182-0.138-0.333-0.293-0.525-0.267-0.296 0.054-0.556 0.13-0.805 0.229l0.028-0.010h0.028c-0.081 0.026-0.077 0.096 0 0.136 0.084 0.046 0.183 0.090 0.285 0.127l0.015 0.005h0.015c0.057 0.021 0.123 0.033 0.192 0.033 0.003 0 0.005 0 0.008 0v0c0.005 0 0.011 0 0.018 0 0.041 0 0.081-0.004 0.12-0.012l-0.004 0.001c0.204-0.057 0.392-0.151 0.63-0.243zM19.345 1.48c-0.19-0.070-0.368-0.14-0.547-0.201-0.261-0.090-0.46 0.046-0.657 0.184 0.32 0.296 0.946 0.401 1.202 0.022z"></path>
<path d="M11.469 21.738c-0.219 0.063-0.418 0.136-0.613 0.169-0.82 0.158-1.537 0.52-2.12 1.033l0.005-0.004c-0.171 0.144-0.337 0.296-0.508 0.438-0.066 0.055-0.085 0.103-0.024 0.182 0.201 0.256 0.396 0.517 0.591 0.777 0.029 0.042 0.077 0.070 0.131 0.070v0c0.007 0.001 0.015 0.002 0.023 0.002s0.016-0.001 0.024-0.002h-0.001c0.195-0.049 0.364-0.142 0.502-0.268l-0.001 0.001c0.151-0.090 0.257-0.242 0.284-0.419v-0.003c0-0.096 0.142-0.188 0.219-0.267h0.044c0.001 0 0.002 0 0.002 0 0.040 0 0.076 0.015 0.103 0.040v0c0.151 0.186 0.289 0.379 0.438 0.574 0.019 0.017 0.031 0.042 0.031 0.070 0 0 0 0 0 0.001v0c0 0 0 0.001 0 0.001 0 0.028-0.012 0.053-0.031 0.071v0h-0.015c-0.078 0.094-0.195 0.153-0.326 0.153 0 0 0 0-0.001 0h-0.077c0 0-0.001 0-0.001 0-0.072 0-0.138 0.023-0.193 0.062l0.001-0.001c-0.236 0.164-0.466 0.344-0.698 0.51-0.076 0.045-0.128 0.126-0.131 0.218v0c0 0 0 0 0 0.001 0 0.040 0.009 0.077 0.025 0.11l-0.001-0.002c0.084 0.194 0.165 0.352 0.253 0.505l-0.013-0.024v-0.024c0.431 0.696 0.864 1.295 1.335 1.861l-0.021-0.026c0.028 0.044 0.076 0.072 0.131 0.072 0 0 0 0 0 0v0c0 0 0 0 0.001 0 0.031 0 0.059-0.009 0.083-0.024h-0.001l0.024-0.011c0.081-0.061 0.131-0.035 0.199 0.028 0.114 0.080 0.188 0.211 0.188 0.36 0 0.098-0.032 0.188-0.086 0.261l0.001-0.001c-0.083 0.171-0.244 0.292-0.435 0.319h-0.003c-0.3 0.057-0.508 0-0.637-0.278-0.016-0.032-0.034-0.059-0.053-0.084l0.001 0.001c-0.125-0.193-0.129-0.197 0.039-0.344 0.090-0.074 0.048-0.136 0-0.199-0.175-0.245-0.357-0.486-0.532-0.731-0.327-0.459-0.673-0.862-1.053-1.23l-0.002-0.002c-0.219-0.219-0.368-0.219-0.604-0.013-0.171 0.147-0.366 0.265-0.528 0.418-0.079 0.095-0.152 0.201-0.214 0.314l-0.005 0.010c-0.080 0.12-0.159 0.224-0.243 0.322l0.004-0.005c-0.015 0.017-0.101 0-0.116-0.020-0.164-0.204-0.32-0.412-0.482-0.617-0.018-0.017-0.029-0.041-0.029-0.068s0.011-0.051 0.029-0.068v0l0.024-0.017c0.095-0.1 0.229-0.162 0.378-0.162 0.001 0 0.002 0 0.003 0v0c0.012-0.001 0.026-0.002 0.040-0.002s0.028 0.001 0.042 0.002h0.020c0 0 0 0 0.001 0 0.071 0 0.136-0.024 0.188-0.064l-0.001 0.001c0.147-0.107 0.282-0.219 0.423-0.344 0.035-0.029 0.065-0.061 0.091-0.097l0.001-0.002c0.038-0.037 0.061-0.088 0.061-0.144v0c0 0 0 0 0-0.001 0-0.053-0.021-0.102-0.055-0.137v0c-0.184-0.219-0.344-0.458-0.51-0.679-0.042-0.049-0.095-0.088-0.155-0.113l-0.003-0.001c-0.207-0.055-0.384-0.165-0.52-0.312l-0.001-0.001c-0.024-0.035-0.096-0.048-0.147-0.057-0.179-0.028-0.219-0.072-0.23-0.245-0.011-0.060-0.043-0.111-0.089-0.146h-0.001c-0.254-0.175-0.291-0.285-0.16-0.567 0.022-0.040 0.035-0.087 0.035-0.137 0 0 0 0 0-0.001v0c0 0 0-0.001 0-0.001 0-0.073-0.027-0.14-0.070-0.192v0q-0.917-1.217-1.813-2.43c-0.554-0.755-1.119-1.5-1.664-2.268-0.317-0.438-0.606-0.904-0.904-1.359-0.184-0.271-0.293-0.605-0.293-0.965 0-0.001 0-0.002 0-0.003v0c-0.001-0.020-0.002-0.043-0.002-0.067s0.001-0.047 0.002-0.070v0.003c0-0.14 0.053-0.177 0.193-0.155 0.442 0.075 0.818 0.314 1.069 0.652l0.003 0.004q0.854 1.068 1.688 2.147c0.604 0.784 1.197 1.572 1.793 2.362 0.287 0.379 0.574 0.764 0.852 1.145 0.026 0.037 0.031 0.090 0.063 0.116 0.041 0.039 0.088 0.073 0.139 0.099l0.003 0.002c0.094 0.035 0.175 0.078 0.248 0.131l-0.003-0.002c0.2 0.241 0.478 0.411 0.795 0.471l0.009 0.001c0.016 0.002 0.034 0.003 0.053 0.003s0.037-0.001 0.055-0.003h-0.002c0.002 0 0.003 0 0.005 0 0.064 0 0.125-0.010 0.183-0.030l-0.004 0.001c0.526-0.19 0.978-0.462 1.366-0.807l-0.004 0.004c0.097-0.085 0.158-0.209 0.158-0.348 0-0.083-0.022-0.161-0.060-0.228l0.001 0.002c-0.042 0.046-0.072 0.079-0.101 0.114s-0.072 0.162-0.186 0.085c-0.033 0.019-0.061 0.042-0.085 0.070v0c-0.107 0.14-0.27 0.233-0.456 0.245h-0.002c0.043-0.112 0.068-0.242 0.068-0.377 0-0.154-0.032-0.301-0.091-0.433l0.003 0.007c-0.14 0.213-0.378 0.351-0.648 0.351-0.124 0-0.242-0.029-0.346-0.082l0.004 0.002 0.158-0.166c0.134-0.131 0.216-0.314 0.216-0.515 0-0.119-0.029-0.232-0.080-0.331l0.002 0.004c-0.038-0.077-0.078-0.174-0.114-0.274l-0.007-0.021v-0.022c-0.033-0.083-0.053-0.179-0.053-0.279 0 0 0-0.001 0-0.001v0c0 0 0-0.001 0-0.001 0-0.198 0.077-0.379 0.202-0.514v0c0.139-0.179 0.31-0.326 0.506-0.434l0.008-0.004c0.687-0.344 1.375-0.707 2.062-1.062l0.532-0.269c-0.171 0.615 0.138 1.108 0.315 1.664l1.375-0.795c0.008 0.045 0.015 0.099 0.017 0.155v0.73c-0.005 0.129-0.078 0.24-0.184 0.299l-0.002 0.001c-0.091 0.068-0.193 0.133-0.301 0.189l-0.012 0.006h-0.013c-0.239 0.125-0.271 0.335-0.278 0.595 0 0.197 0 0.271 0 0.574 0.024 0.164-0.101 0.256-0.236 0.326-0.219 0.116-0.438 0.239-0.657 0.35-0.114 0.059-0.149 0.116-0.055 0.219 0.072 0.098 0.144 0.21 0.21 0.327l0.009 0.017v0.020z"></path>
<path d="M16.661 17.911l0.95 0.549c0.103 0.059 0.204 0.123 0.311 0.177 0.020 0.015 0.045 0.024 0.072 0.024 0.001 0 0.002 0 0.002 0v0c0.040-0.001 0.076-0.019 0.101-0.048v0c0.009-0.014 0.017-0.030 0.022-0.047v-0.001c0.072-0.183 0.147-0.418 0.209-0.658l0.010-0.047 0.013-0.053c0.020-0.115 0.033-0.251 0.037-0.39v-0.004q0-0.085 0-0.171v0c0-0.053 0-0.103 0-0.153v0c0.096 0.044 0.173 0.070 0.245 0.107 0.528 0.276 1.057 0.547 1.581 0.825 0.317 0.171 0.641 0.333 0.944 0.532 0.17 0.123 0.315 0.268 0.434 0.432l0.004 0.006c0.063 0.089 0.101 0.199 0.101 0.318 0 0.085-0.019 0.166-0.054 0.239l0.001-0.003c-0.077 0.219-0.149 0.438-0.206 0.657-0.019 0.057-0.031 0.123-0.031 0.192 0 0.001 0 0.002 0 0.003v0c0 0 0 0 0 0.001 0 0.196 0.093 0.37 0.237 0.48l0.001 0.001c0.099 0.079 0.092 0.123-0.026 0.169-0.065 0.025-0.14 0.039-0.218 0.039 0 0-0.001 0-0.001 0v0c-0.007 0-0.015 0-0.023 0-0.136 0-0.262-0.045-0.364-0.12l0.002 0.001c-0.104-0.076-0.195-0.151-0.282-0.232l0.002 0.002c-0.051 0.121-0.080 0.261-0.080 0.408 0 0.128 0.022 0.25 0.063 0.363l-0.002-0.008c-0.207-0.006-0.388-0.11-0.5-0.267l-0.001-0.002c-0.219 0.219-0.195-0.136-0.328-0.129-0.037 0.058-0.059 0.129-0.059 0.205 0 0.11 0.046 0.21 0.12 0.28v0c0.051 0.055 0.109 0.103 0.172 0.145l0.004 0.002c0.344 0.208 0.679 0.416 1.022 0.615 0.438 0.247 0.81 0.114 1.147-0.173 0.074-0.066 0.136-0.151 0.219-0.219 0.054-0.031 0.117-0.061 0.183-0.086l0.010-0.003c0.065-0.024 0.122-0.059 0.169-0.103v0c0.484-0.637 0.961-1.281 1.443-1.92 0.359-0.479 0.722-0.957 1.095-1.436 0.484-0.641 0.948-1.313 1.462-1.922 0.297-0.327 0.615-0.623 0.955-0.892l0.034-0.026c0.115-0.068 0.249-0.116 0.393-0.137l0.006-0.001c0.090-0.026 0.092 0.042 0.101 0.103 0.002 0.033 0.003 0.071 0.003 0.11 0 0.348-0.097 0.672-0.266 0.949l0.005-0.008c-0.406 0.69-0.822 1.284-1.281 1.842l0.020-0.025q-0.941 1.289-1.9 2.574l-1.204 1.62c-0.042 0.048-0.068 0.111-0.068 0.18v0c0 0 0 0.001 0 0.002 0 0.045 0.011 0.087 0.031 0.125l-0.001-0.001c0.136 0.304 0.116 0.381-0.149 0.58-0.041 0.036-0.069 0.085-0.079 0.141v0.001c-0.017 0.173-0.057 0.219-0.219 0.263-0.090 0.031-0.167 0.068-0.239 0.112l0.005-0.003c-0.14 0.074-0.282 0.147-0.42 0.219-0.084 0.051-0.157 0.112-0.218 0.183l-0.001 0.001c-0.173 0.219-0.328 0.46-0.495 0.676-0.031 0.032-0.050 0.075-0.050 0.123v0c0.001 0.044 0.017 0.085 0.044 0.116v0c0.063 0.081 0.13 0.152 0.202 0.218l0.001 0.001c0.063 0.057 0.149 0.094 0.219 0.153 0.081 0.102 0.205 0.168 0.345 0.168 0.033 0 0.065-0.004 0.096-0.011l-0.003 0.001h0.028c0.001 0 0.001 0 0.002 0 0.062 0 0.12 0.016 0.171 0.045l-0.002-0.001c0.239 0.101 0.254 0.184 0.096 0.385-0.107 0.138-0.219 0.278-0.313 0.418-0.057 0.083-0.114 0.109-0.199 0.033-0.122-0.086-0.208-0.216-0.234-0.367v-0.003c-0.017-0.069-0.058-0.126-0.113-0.164l-0.001-0.001c-0.243-0.186-0.493-0.368-0.742-0.547-0.037-0.031-0.085-0.050-0.138-0.050v0c-0.053 0-0.101 0.019-0.138 0.051v0c-0.338 0.238-0.627 0.517-0.869 0.833l-0.007 0.009c-0.311 0.42-0.602 0.854-0.906 1.276-0.079 0.107-0.101 0.186 0.028 0.265 0.053 0.018 0.090 0.067 0.090 0.125 0 0 0 0 0 0v0c0.001 0.007 0.002 0.015 0.002 0.023s-0.001 0.016-0.002 0.024v-0.001c-0.009 0.023-0.022 0.042-0.039 0.057v0c-0.105 0.136-0.19 0.28-0.296 0.412-0.039 0.039-0.092 0.063-0.151 0.063v0c-0.069-0.013-0.155-0.024-0.242-0.030h-0.008c-0.274 0.033-0.383-0.134-0.479-0.35-0.149-0.344-0.155-0.344 0.074-0.628l0.070-0.085c0.164-0.219 0.166-0.219 0.398-0.090 0.083 0.044 0.12 0 0.16-0.055 0.219-0.276 0.438-0.541 0.639-0.825 0.267-0.383 0.517-0.775 0.766-1.169 0.056-0.097 0.106-0.209 0.145-0.326l0.004-0.013v-0.013c0.015-0.029 0.024-0.063 0.024-0.098v0c0-0.002 0-0.004 0-0.006 0-0.079-0.042-0.148-0.104-0.186l-0.001-0.001c-0.219-0.166-0.451-0.344-0.687-0.506-0.071-0.037-0.154-0.062-0.242-0.070h-0.003c-0.079-0.002-0.154-0.011-0.227-0.026l0.008 0.001c-0.239-0.072-0.269-0.186-0.116-0.377 0.116-0.149 0.219-0.304 0.344-0.458 0.053-0.074 0.096-0.077 0.169-0.031 0.146 0.069 0.245 0.214 0.245 0.383v0c0 0.055 0.063 0.116 0.114 0.164 0.177 0.192 0.407 0.331 0.667 0.394l0.009 0.002h0.026c0 0 0.001 0 0.002 0 0.048 0 0.091-0.018 0.123-0.048v0c0.193-0.239 0.37-0.486 0.563-0.727 0.034-0.031 0.055-0.076 0.055-0.125v0c0 0 0 0 0 0 0-0.045-0.017-0.086-0.046-0.116v0c-0.012-0.014-0.027-0.026-0.043-0.035h-0.001c-0.25-0.206-0.488-0.438-0.749-0.622-0.347-0.265-0.752-0.477-1.189-0.614l-0.028-0.008h-0.028c-0.32-0.092-0.657-0.155-0.974-0.219-0.042-0.009-0.077-0.019-0.112-0.030l0.007 0.002c-0.107-0.031-0.131-0.083-0.061-0.177s0.107-0.171 0.164-0.254c0.019-0.018 0.031-0.044 0.031-0.072s-0.012-0.054-0.031-0.072v0c-0.010-0.010-0.023-0.019-0.037-0.024h-0.001c-0.219-0.123-0.416-0.25-0.626-0.368s-0.23-0.177-0.274-0.438c-0.013-0.385 0.129-0.633-0.088-0.876-0.142-0.15-0.308-0.277-0.491-0.374l-0.010-0.005c-0.163-0.056-0.278-0.209-0.278-0.388 0-0.001 0-0.003 0-0.004v0c-0.001-0.010-0.002-0.022-0.002-0.034s0.001-0.024 0.002-0.035v0.001c0-0.149 0.017-0.322 0.017-0.497q0-0.142 0-0.282v0.013z"></path>
<path d="M14.886 27.495c0.127-0.637 0.624-0.974 0.963-1.427l0.048 0.015c0 0.081 0.015 0.166 0.028 0.247 0.077 0.468 0.142 0.939 0.23 1.408 0.088 0.298 0.142 0.641 0.151 0.995v0.005c-0.011 0.31-0.085 0.601-0.209 0.863l0.006-0.013v-0.013c-0.333 0.687-0.674 1.375-1.011 2.053-0.048 0.094-0.090 0.19-0.138 0.285-0.023 0.033-0.049 0.061-0.076 0.087v0c-0.035-0.025-0.066-0.054-0.091-0.087l-0.001-0.001c-0.219-0.412-0.416-0.825-0.624-1.239-0.16-0.317-0.328-0.633-0.486-0.954-0.151-0.323-0.239-0.701-0.239-1.099 0-0.004 0-0.008 0-0.011v0.001c0-0.155 0.013-0.306 0.037-0.454l-0.002 0.016v0.015c0.081-0.668 0.195-1.331 0.296-1.996 0.014-0.044 0.031-0.083 0.052-0.119l-0.001 0.003c0.041 0.023 0.076 0.047 0.108 0.075l-0.001-0.001c0.177 0.188 0.348 0.388 0.509 0.597l0.014 0.018 0.013 0.017c0.111 0.163 0.223 0.354 0.323 0.552l0.014 0.031 0.013 0.033 0.066 0.109z"></path>
<path d="M4.884 3.181l0.28 0.398c0.374 0.486 0.788 0.91 1.247 1.283l0.014 0.011c0.124 0.094 0.234 0.188 0.338 0.29l-0.001-0.001c0.261 0.3 0.62 0.39 0.981 0.473 0.474 0.124 0.871 0.401 1.143 0.776l0.004 0.006c0.394 0.51 0.764 1.040 1.145 1.563 0.033 0.049 0.068 0.107 0.1 0.167l0.005 0.010c-0.109 0-0.184 0-0.254-0.020-0.523-0.092-1.046-0.182-1.567-0.28-0.466-0.085-0.935-0.166-1.394-0.282-0.208-0.064-0.389-0.165-0.543-0.295l0.002 0.002c-0.381-0.306-0.753-0.628-1.112-0.959-0.449-0.41-0.73-0.999-0.73-1.653 0-0.096 0.006-0.19 0.018-0.283l-0.001 0.011c0.048-0.436 0.152-0.834 0.304-1.208l-0.011 0.030-0.011 0.031c0.011-0.030 0.024-0.055 0.038-0.079l-0.001 0.002z"></path>
<path d="M24.724 3.26c0.072 0.158 0.146 0.356 0.209 0.559l0.010 0.039v0.042c0.063 0.201 0.099 0.432 0.099 0.671 0 0.432-0.118 0.837-0.324 1.183l0.006-0.011c-0.187 0.281-0.396 0.524-0.632 0.739l-0.003 0.003c-0.291 0.276-0.619 0.512-0.926 0.775-0.234 0.177-0.516 0.305-0.822 0.362l-0.012 0.002c-0.407 0.101-0.823 0.169-1.237 0.245-0.486 0.092-0.972 0.179-1.458 0.267l-0.219 0.033c0.015-0.054 0.034-0.1 0.057-0.144l-0.002 0.004c0.394-0.545 0.784-1.095 1.189-1.629 0.276-0.38 0.685-0.649 1.157-0.738l0.012-0.002h0.013c0.475-0.084 0.886-0.313 1.197-0.638l0.001-0.001c0.396-0.394 0.803-0.779 1.191-1.178 0.153-0.155 0.28-0.337 0.42-0.506l0.088-0.079z"></path>
<path d="M29.137 10.985c-0.099 0.129-0.166 0.219-0.245 0.32-0.506 0.569-1.141 1.012-1.859 1.285l-0.033 0.011h-0.033c-0.635 0.227-1.368 0.365-2.132 0.381h-0.007c-1.024 0.053-2.049 0.114-3.065 0.173l-0.269 0.013c0.015-0.046 0.017-0.074 0.031-0.083 0.424-0.348 0.897-0.684 1.392-0.986l0.055-0.031c0.385-0.197 0.831-0.344 1.302-0.415l0.024-0.003h0.024c0.63-0.103 1.261-0.195 1.9-0.282 0.567-0.079 1.136-0.14 1.701-0.219 0.304-0.042 0.604-0.105 0.906-0.151 0.033-0.002 0.071-0.003 0.109-0.003s0.077 0.001 0.115 0.003h0.080z"></path>
<path d="M8.023 13.17l-0.438-0.026c-0.409-0.022-0.821-0.039-1.232-0.066-0.7-0.046-1.399-0.081-2.095-0.151-0.534-0.050-1.019-0.136-1.49-0.257l0.065 0.014 0.061 0.013c-0.765-0.203-1.425-0.584-1.956-1.096l0.001 0.001c-0.151-0.144-0.293-0.3-0.438-0.458-0.034-0.045-0.067-0.096-0.094-0.15l-0.003-0.006c0.125 0 0.219 0 0.302 0.020l3.87 0.543c0.63 0.085 1.27 0.129 1.848 0.425 0.338 0.183 0.624 0.366 0.897 0.567l-0.043-0.030c0.219 0.151 0.438 0.326 0.639 0.495 0.046 0.037 0.088 0.079 0.129 0.114z"></path>
<path d="M5.186 11.193l-0.51-0.055c-0.219-0.022-0.42-0.037-0.628-0.066-0.398-0.055-0.797-0.116-1.193-0.177l-1.48-0.234c-0.344-0.050-0.679-0.096-1.018-0.149-0.204-0.028-0.28-0.118-0.315-0.32-0.026-0.162-0.042-0.348-0.042-0.538 0-0.552 0.128-1.074 0.355-1.538l-0.009 0.021-0.011 0.022c0.050-0.116 0.101-0.23 0.158-0.337 0.026-0.044 0.055-0.082 0.088-0.116v0c0.063 0.164 0.116 0.309 0.171 0.451 0.108 0.219 0.277 0.395 0.484 0.509l0.006 0.003c0.425 0.267 0.863 0.497 1.285 0.762 0.854 0.536 1.701 1.075 2.55 1.616 0.045 0.033 0.085 0.067 0.122 0.105v0z"></path>
<path d="M24.257 11.175c0.201-0.138 0.401-0.285 0.606-0.418 0.619-0.398 1.237-0.801 1.863-1.186 0.506-0.313 1.020-0.611 1.532-0.917 0.090-0.053 0.177-0.114 0.267-0.166 0.208-0.135 0.354-0.35 0.393-0.601l0.001-0.005c0-0.061 0.033-0.114 0.055-0.195 0.026 0.024 0.044 0.033 0.048 0.046 0.147 0.427 0.309 0.852 0.438 1.285 0.045 0.173 0.070 0.373 0.070 0.578 0 0.246-0.037 0.483-0.105 0.707l0.005-0.017v-0.018c-0.037 0.151-0.166 0.188-0.293 0.219-0.458 0.077-0.917 0.147-1.368 0.219l-2.034 0.322-1.355 0.219h-0.114z"></path>
<path d="M13.207 28.642c-0.039-0.013-0.073-0.031-0.104-0.053l0.001 0.001c-0.368-0.401-0.757-0.788-0.983-1.294-0.109-0.223-0.173-0.486-0.173-0.763 0-0.003 0-0.005 0-0.008v0c0-0.376 0.115-0.726 0.311-1.016l-0.004 0.006c0.219-0.381 0.504-0.742 0.764-1.095 0.219-0.309 0.468-0.609 0.7-0.915 0.024-0.036 0.046-0.077 0.064-0.12l0.002-0.005 0.068 0.053c-0.031 0.085-0.057 0.173-0.090 0.258-0.164 0.412-0.331 0.821-0.497 1.232-0.026 0.057-0.042 0.123-0.042 0.193 0 0 0 0.001 0 0.001v0c0 0.080 0.020 0.155 0.054 0.222l-0.001-0.003c0.065 0.127 0.133 0.235 0.21 0.336l-0.004-0.006c0.136 0.164 0.219 0.377 0.219 0.61 0 0.003 0 0.005 0 0.008v0c0 0 0 0.001 0 0.002 0 0.077-0.010 0.152-0.028 0.224l0.001-0.006c-0.16 0.676-0.293 1.359-0.438 2.040 0 0.033-0.020 0.066-0.033 0.116z"></path>
<path d="M16.543 28.653c-0.035-0.162-0.074-0.324-0.114-0.486l-0.368-1.729c-0.022-0.099-0.050-0.195-0.063-0.293-0.001-0.011-0.002-0.023-0.002-0.036s0.001-0.025 0.002-0.038v0.002c0-0.001 0-0.002 0-0.002 0-0.143 0.066-0.271 0.17-0.354l0.001-0.001c0.179-0.139 0.293-0.354 0.293-0.596 0 0 0-0.001 0-0.001v0c0-0.113-0.024-0.219-0.068-0.316l0.002 0.005c-0.129-0.344-0.25-0.698-0.37-1.049-0.015-0.054-0.026-0.118-0.030-0.183v-0.003l0.039-0.017c0.037 0.029 0.070 0.059 0.1 0.091v0.001c0.274 0.37 0.574 0.731 0.817 1.119 0.224 0.326 0.436 0.698 0.616 1.089l0.019 0.047 0.020 0.048c0.075 0.187 0.119 0.404 0.119 0.631 0 0.304-0.078 0.59-0.215 0.838l0.005-0.009c-0.219 0.477-0.615 0.834-0.917 1.252z"></path>
<path d="M18.673 8.656c-0.011-0.040-0.018-0.087-0.020-0.135v-0.001c0.028-0.549 0.039-1.095 0.099-1.644 0.071-0.385 0.232-0.723 0.461-1.005l-0.003 0.004 1.057-1.497c0.027-0.042 0.065-0.074 0.11-0.093l0.002-0.001c0.013 0.16 0.037 0.32 0.042 0.482 0 0.129 0.013 0.28 0.013 0.438s0 0.302-0.015 0.453v-0.022c-0.023 0.474-0.179 0.907-0.43 1.269l0.005-0.008c-0.409 0.552-0.801 1.114-1.2 1.672-0.020 0.034-0.041 0.076-0.060 0.12l-0.004 0.009z"></path>
<path d="M9.168 4.267l0.53 0.733c0.201 0.278 0.398 0.56 0.602 0.836 0.344 0.426 0.552 0.975 0.552 1.571 0 0.039-0.001 0.079-0.003 0.117v-0.006c-0.020 0.326 0 0.657 0 0.976-0.007 0.052-0.020 0.099-0.039 0.144l0.001-0.004c-0.044-0.023-0.081-0.050-0.114-0.083v0c-0.368-0.508-0.731-1.020-1.095-1.532-0.297-0.42-0.48-0.939-0.492-1.501v-0.003c-0.020-0.396 0.020-0.795 0.035-1.195 0.009-0.022 0.018-0.041 0.029-0.058l-0.001 0.001z"></path>
<path d="M15.912 18.631c0.177 0.103 0.324 0.184 0.466 0.271 0.254 0.153 0.503 0.309 0.755 0.471 0.162 0.088 0.269 0.257 0.269 0.451 0 0 0 0 0 0v0 0.037c-0.020 0.35-0.026 0.703-0.042 1.055 0 0.164-0.026 0.173-0.164 0.096-0.352-0.195-0.703-0.39-1.049-0.593-0.132-0.081-0.219-0.224-0.219-0.388 0-0.002 0-0.004 0-0.006v0c0-0.004-0.001-0.009-0.001-0.014s0-0.010 0.001-0.015v0.001-1.206c-0.002-0.018-0.003-0.040-0.003-0.061s0.001-0.043 0.003-0.064v0.003-0.039z"></path>
<path d="M13.791 18.684v0.86c0 0.114 0 0.219 0 0.328 0.001 0.009 0.001 0.021 0.001 0.032s0 0.022-0.001 0.033v-0.002c-0.001 0.196-0.106 0.367-0.262 0.461l-0.002 0.001c-0.344 0.219-0.705 0.42-1.060 0.63-0.032 0.014-0.070 0.025-0.109 0.032h-0.003c0-0.162-0.020-0.311-0.028-0.46 0-0.206 0-0.412-0.026-0.617-0.001-0.014-0.002-0.031-0.002-0.048s0.001-0.034 0.002-0.050v0.002c0 0 0-0.001 0-0.001 0-0.274 0.16-0.51 0.392-0.621l0.004-0.002c0.333-0.171 0.657-0.359 0.983-0.538 0.027-0.013 0.059-0.026 0.091-0.036l0.005-0.001z"></path>
<path d="M16.705 22.427c0.335 0.017 0.672 0.020 1.005 0.053 0.123 0.024 0.231 0.078 0.318 0.154l-0.001-0.001c0.315 0.243 0.619 0.497 0.928 0.749 0.020 0.020 0.038 0.041 0.054 0.064l0.001 0.001c0 0.015 0 0.028-0.015 0.028-0.145 0.014-0.314 0.022-0.485 0.022s-0.34-0.008-0.506-0.024l0.021 0.002c-0.241-0.074-0.45-0.192-0.626-0.345l0.002 0.002c-0.236-0.177-0.438-0.39-0.67-0.587-0.013-0.015-0.025-0.031-0.036-0.049l-0.001-0.002z"></path>
<path d="M17.648 24.498c-0.114-0.090-0.23-0.175-0.335-0.267s-0.25-0.219-0.385-0.331c-0.335-0.246-0.551-0.638-0.554-1.081v0c0-0.14-0.013-0.28-0.022-0.438 0.059 0.029 0.109 0.059 0.156 0.094l-0.003-0.002c0.291 0.258 0.593 0.506 0.86 0.786 0.114 0.134 0.198 0.298 0.237 0.479l0.001 0.007c0.042 0.201 0.074 0.441 0.089 0.686l0.001 0.014v0.015z"></path>
<path d="M12.951 22.513l-0.876 0.679c-0.085 0.068-0.171 0.138-0.261 0.199-0.053 0.045-0.118 0.078-0.19 0.094l-0.003 0.001c-0.344 0.028-0.679 0.044-1.016 0.066l-0.018-0.055c0.031-0.043 0.063-0.081 0.098-0.116v0c0.276-0.219 0.558-0.438 0.83-0.674 0.19-0.149 0.43-0.243 0.692-0.252h0.002c0.239-0.022 0.479 0 0.72 0z"></path>
<path d="M13.34 22.432c-0.092 0.42-0.066 0.876-0.438 1.208-0.219 0.197-0.438 0.405-0.657 0.606-0.083 0.081-0.171 0.155-0.256 0.219l-0.048-0.022c0.026-0.19 0.053-0.381 0.074-0.574 0.059-0.547 0.414-0.876 0.832-1.182 0.085-0.061 0.162-0.131 0.25-0.19 0.054-0.035 0.117-0.071 0.183-0.104l0.012-0.005h0.013z"></path>
<path d="M10.643 1.567c0.219 0.127 0.337 0 0.549-0.085-0.247-0.169-0.381 0.050-0.549 0.085z"></path>
<path d="M18.461 1.482c0.219 0.042 0.339 0.171 0.549 0.042-0.169 0-0.296-0.254-0.549-0.042z"></path>
</svg>
