<!-- Generated by IcoMoon.io -->
<svg version="1.1" xmlns="http://www.w3.org/2000/svg" width="32" height="32" viewBox="0 0 32 32">
<title>crucible</title>
<path d="M15.584 1.792q-0.224 0.16-3.264 3.168l-2.912 2.816-0.704-0.608q-0.736-0.704-1.568-1.248t-1.408-0.672-0.672-0.032-0.128 0.576 0.16 0.896 0.768 1.152 1.088 1.28l0.672 0.608-3.296 3.296-3.328 3.296 7.040 7.168-0.96 0.96q-0.64 0.64-0.8 0.768t-0.352 0.032-0.256-0.064l-0.288 0.16q-0.384 0.256-0.576 0.576t-0.096 0.512 0.16 0.64q0.064 0.288 0.16 0.384t0.384 0.096q0.416 0.064 0.64 0.128t0.704-0.416 0.416-0.672l-0.096-0.32q-0.032-0.064 0.256-0.352t0.608-0.672l0.928-0.928 2.464 2.4q2.752 2.688 3.584 3.52l1.088 1.088 3.52-3.456q3.552-3.488 3.616-3.52t0.992 0.928q0.64 0.64 0.768 0.832t0.032 0.32-0.064 0.288 0.448 0.48q0.48 0.544 0.736 0.48 0.352-0.096 0.64-0.128h0.032q0.288-0.064 0.384-0.128t0.096-0.416q0.064-0.48 0.16-0.64t0.064-0.256-0.256-0.288q-0.576-0.544-0.736-0.64t-0.256 0.032-0.224 0.128-0.992-0.96l-0.928-0.96 3.488-3.552 3.488-3.52-6.464-6.624 0.32-0.384q0.224-0.32 0.464-0.464t0.912-1.104 0.736-1.312q0.064-0.192 0.096-0.672l0.064-0.576h-0.512q-0.512 0.032-1.056 0.32t-1.344 0.928l-1.248 1.056-0.384 0.256-3.2-3.136q-3.296-3.168-3.36-3.168t-0.192 0.064-0.256 0.256zM19.040 11.392l-3.040 3.040-5.984-6.016 5.984-5.984 6.048 5.92zM26.688 19.552q-3.264 3.264-3.328 3.264t-0.512-0.672-0.48-0.864 0.288-0.576 0.736-0.768 0.64-0.384 0.416-0.16 0.224-0.288-0.512-0.704-0.608-0.608q-0.16 0-0.384 0.288t-0.224 0.448-0.128 0.384-0.48 0.512q-0.576 0.576-0.64 0.576t-1.248-1.12l-2.528-2.56 6.048-6.048 6.016 6.016zM11.104 13.344l3.008 2.976-1.824 1.824q-1.056 1.024-1.44 1.376-0.48 0.416-0.544 0.384-0.192-0.064-0.704-0.576-0.32-0.288-0.416-0.448t-0.096-0.384q0-0.352-0.288-0.544-0.192-0.128-0.256-0.096l-0.32 0.16q-0.256 0.128-0.576 0.544t-0.32 0.512 0.224 0.32 0.416 0.16q0.32 0 1.056 0.736 0.48 0.512 0.608 0.704t0.032 0.32-0.384 0.704-0.544 0.736q-0.096 0.128-3.36-3.136l-3.264-3.296 2.944-2.944q1.088-1.12 2.112-2.112 0.896-0.864 0.928-0.864t0.928 0.864zM19.648 21.984q0 0.128-0.544 0.672-0.32 0.352-0.512 0.48t-0.352 0.128q-0.288 0-0.544 0.256l-0.224 0.256 0.224 0.352q0.288 0.384 0.672 0.64l0.384 0.352 0.288-0.32q0.256-0.32 0.224-0.544t0.736-0.928q0.512-0.512 0.672-0.608t0.384-0.032 0.8 0.48 0.608 0.512q0.064 0.032-3.232 3.328l-3.232 3.232-3.264-3.296q-1.568-1.568-2.144-2.176-0.672-0.704-0.832-0.928t-0.096-0.256 0.32-0.256l0.256-0.192q0.352-0.288 0.704-0.416 0.16-0.096 0.288-0.064t0.256 0.128 0.544 0.544q0.768 0.768 0.768 1.024 0 0.128 0.064 0.288t0.128 0.192q0.16 0.128 0.256 0.16t0.288-0.096 0.608-0.576 0.384-0.576-0.256-0.32-0.512-0.16-0.736-0.48l-0.128-0.128q-0.352-0.352-0.384-0.544t0.256-0.576q0.192-0.256 1.088-1.152l2.144-2.144 1.824 1.824q0.736 0.704 1.28 1.28t0.544 0.64z"></path>
</svg>
