<!-- Generated by IcoMoon.io -->
<svg version="1.1" xmlns="http://www.w3.org/2000/svg" width="32" height="32" viewBox="0 0 32 32">
<title>damage_solar</title>
<path d="M16 2.368q0.096 0.16 0.32 0.48 1.856 3.040 5.76 9.024l1.6 2.4q0.864 1.344 1.408 2.368 0.672 1.344 0.992 2.56 1.28 4.736-2.176 8.32-1.792 1.888-4.064 2.72l-0.128 0.032q-0.192 0.064-0.288 0.064h-0.032q0.8-0.48 1.6-1.152v0.032q1.984-1.76 2.368-4.032t-0.96-4.576q-1.248-2.144-3.968-6.272l-2.4-3.68-0.064 0.032q-0.032 0-0.032 0.032-0.8 1.312-2.528 3.872-2.624 4-3.808 6.048-2.016 3.456-0.128 6.72 0.96 1.632 2.784 2.752l0.064 0.032q0.224 0.096 0.288 0.256-1.76-0.576-3.104-1.632l0.032 0.032q-1.344-1.056-2.208-2.176-0.96-1.28-1.408-2.752-0.896-2.944 0.608-6.368 0.512-1.184 1.344-2.56 0.512-0.8 1.568-2.368l0.384-0.576q3.232-4.8 5.92-9.216 0.16-0.192 0.256-0.416zM16 16.896q0.32 0.576 0.96 1.632l1.056 1.792q1.152 1.92 1.632 2.912 0.608 1.344 0.256 2.624t-1.568 2.208q-1.12 0.832-2.432 0.8t-2.4-0.96q-1.184-0.992-1.44-2.304t0.448-2.656q0.8-1.504 2.592-4.48l0.8-1.376z"></path>
</svg>
