<!-- Generated by IcoMoon.io -->
<svg version="1.1" xmlns="http://www.w3.org/2000/svg" width="32" height="32" viewBox="0 0 32 32">
<title>damage_void</title>
<path d="M16 2.368q-3.808 0-7.072 1.92-3.168 1.856-4.992 5.024-1.92 3.264-1.92 7.072t1.92 7.072q1.824 3.168 4.992 5.024 3.264 1.92 7.072 1.92t7.072-1.92q3.168-1.856 5.024-5.024 1.92-3.264 1.92-7.072t-1.92-7.072q-1.856-3.168-5.024-5.024-3.264-1.92-7.072-1.92zM11.392 5.152q1.024-0.448 2.432-0.736 1.248-0.192 2.528-0.16t2.56 0.352 2.368 1.12q2.304 1.472 3.52 3.712t1.248 4.928q0.064 2.592-0.992 4.864-0.544 1.152-1.376 1.984t-2.080 1.28q0.96-0.672 1.6-1.632t0.832-2.016q0.544-1.856 0.256-4.352-0.256-2.24-1.312-4t-2.912-2.912q-0.896-0.608-1.824-0.896t-1.984-0.352q-1.184-0.064-2.144 0.032-1.248 0.16-2.080 0.448-2.016 0.64-3.84 2.080-1.728 1.376-3.072 3.36 0.704-2.304 2.336-4.16 1.664-1.92 3.936-2.944zM21.152 16.384q0 1.408-0.672 2.592t-1.888 1.856-2.592 0.704-2.592-0.704-1.856-1.856-0.704-2.592 0.704-2.592 1.856-1.888 2.592-0.672 2.592 0.672 1.888 1.888 0.672 2.592zM20.16 27.2q-1.152 0.544-2.4 0.768t-2.528 0.16-2.56-0.352-2.4-1.12q-2.272-1.536-3.456-3.744t-1.28-4.896q-0.064-2.592 0.992-4.864 0.544-1.152 1.408-2.016 0.928-0.928 2.048-1.248-0.928 0.64-1.6 1.632-0.576 0.96-0.864 2.016-0.512 1.92-0.256 4.352 0.32 2.304 1.344 3.968 1.088 1.76 2.88 2.912 0.928 0.64 1.824 0.896 0.96 0.288 2.016 0.384 1.248 0.064 2.144-0.064 1.088-0.096 2.080-0.416 2.016-0.64 3.808-2.080t3.104-3.392q-0.704 2.304-2.336 4.16-1.696 1.92-3.968 2.944z"></path>
</svg>
