<!-- Generated by IcoMoon.io -->
<svg version="1.1" xmlns="http://www.w3.org/2000/svg" width="32" height="32" viewBox="0 0 32 32">
<title>damage_arc</title>
<path d="M15.089 30.037v-5.005q0-0.63-0.066-0.862t-0.331-0.199-0.762 0.365q-3.48 1.889-6.961 3.845-0.762 0.398-2.154 0.597l-0.331 0.033q-1.956 0.265-2.983 0.199 0.099-0.199 0.431-0.464l0.133-0.099 3.116-2.95q1.624-1.558 4.872-4.74 0.166-0.133 0.166-0.232t-0.232-0.199l-1.757-0.961q-2.42-1.326-3.679-1.889-1.425-0.663-2.486-2.254 0.166-0.066 0.431-0.066h4.773q0.663 0 0.796-0.199t-0.232-0.729q-1.889-3.547-3.878-7.060-0.497-0.895-0.663-2.287-0.166-1.094-0.232-1.657-0.066-0.928-0.033-1.69 0.994 0.994 1.458 1.492 3.348 3.613 6.795 7.126 0.199 0.199 0.331 0.166t0.199-0.265q0.398-0.796 1.26-2.353 1.16-2.121 1.69-3.215 0.298-0.663 0.895-1.26 0.365-0.365 1.193-0.994l0.033-0.033q0.099 0.166 0.099 0.464v4.806q0 0.663 0.166 0.762t0.729-0.199l7.093-3.911q0.829-0.464 2.121-0.63 0.63-0.099 1.856-0.199l0.895-0.099h0.663q-0.199 0.331-0.63 0.729l-0.232 0.199q-3.812 3.547-7.524 7.226-0.232 0.232-0.199 0.365t0.298 0.298l1.724 0.928q2.486 1.359 3.779 1.956 0.597 0.265 1.16 0.829 0.398 0.398 0.928 1.094l0.033 0.033q0.133 0.099 0.099 0.199t-0.265 0.099h-5.336q-0.597 0-0.331 0.53l1.26 2.353 2.917 5.237q0.265 0.53 0.431 1.226l0.232 1.69q0.133 0.762 0.133 1.79v0.497l-0.331-0.265-0.961-0.829-2.154-2.32-4.773-4.906q-0.199-0.199-0.331-0.199t-0.265 0.265q-0.298 0.597-0.961 1.79-1.293 2.353-1.823 3.58-0.331 0.729-0.928 1.359-0.53 0.497-1.359 1.094zM16.017 13.365q-0.099 0.066-0.232 0.199l-2.287 2.287q-0.166 0.133-0.166 0.265t0.166 0.298q1.127 1.061 2.221 2.188 0.166 0.166 0.298 0.166t0.265-0.133q0.53-0.597 1.69-1.724l0.563-0.563q0.166-0.133 0.166-0.232t-0.133-0.232q-1.193-1.127-2.32-2.32l-0.099-0.066q-0.099-0.066-0.133-0.133z"></path>
</svg>
