<!-- Generated by IcoMoon.io -->
<svg version="1.1" xmlns="http://www.w3.org/2000/svg" width="32" height="32" viewBox="0 0 32 32">
<title>damage_strand</title>
<path d="M16.055 2.385c0.502 0.223 0.855 0.583 1.244 0.96 0.627 0.593 1.261 1.162 1.934 1.703 0.777 0.625 1.515 1.284 2.246 1.962 0.334 0.302 0.673 0.576 1.029 0.849 0.923 0.794 1.326 1.866 1.471 3.053 0.061 1.496-0.297 2.703-1.267 3.851-0.515 0.523-1.076 0.975-1.652 1.428-0.469 0.376-0.911 0.771-1.353 1.179-0.717 0.66-1.458 1.277-2.217 1.889-0.456 0.379-0.894 0.772-1.33 1.174-0.577 0.531-1.163 1.039-1.773 1.531-2.277 1.711-2.277 1.711-3.369 4.217-0.069 1.169 0.287 1.966 0.87 2.957 0.109 0.214 0.217 0.429 0.322 0.645-3.62-2.576-3.62-2.576-4.126-4.77-0.218-1.305 0.068-2.467 0.681-3.623 0.929-1.149 2.013-2.091 3.163-3.013 0.429-0.351 0.841-0.714 1.25-1.088 0.547-0.499 1.106-0.976 1.683-1.441 0.783-0.633 1.528-1.299 2.266-1.983 0.272-0.245 0.552-0.481 0.84-0.707 0.478-0.391 0.655-0.683 0.854-1.27 0.061-0.783-0.057-1.407-0.554-2.025-0.661-0.689-1.428-1.267-2.186-1.844-1.125 0.681-2.533 1.587-2.902 2.902-0.052 0.76 0.058 1.406 0.544 2.005 0.41 0.426 0.41 0.426 0.907 0.736-0.253 0.64-0.67 0.999-1.179 1.451-0.152 0.136-0.305 0.273-0.462 0.413-0.413 0.356-0.833 0.7-1.261 1.038-1.283-0.425-2.399-1.523-3.073-2.68-0.692-1.442-0.798-2.787-0.356-4.344 0.755-1.8 2.647-3.040 4.123-4.225 0.467-0.385 0.915-0.786 1.361-1.195 0.146-0.133 0.291-0.266 0.441-0.403 0.25-0.23 0.498-0.461 0.744-0.695 0.702-0.647 0.702-0.647 1.086-0.638z"></path>
<path d="M20.272 18.821c1.336 0.558 2.819 2.053 3.385 3.385 0.493 1.357 0.421 2.761-0.181 4.070-0.772 1.392-2.271 2.798-3.688 3.506 0.166-0.341 0.338-0.671 0.53-0.998 0.576-1.022 0.796-1.864 0.598-3.032-0.506-1.8-2.145-2.922-3.547-4.030 0.22-0.504 0.458-0.806 0.877-1.161 0.107-0.092 0.215-0.183 0.325-0.278 0.112-0.094 0.224-0.188 0.339-0.284 0.222-0.189 0.444-0.377 0.666-0.566 0.098-0.083 0.197-0.166 0.298-0.251 0.228-0.189 0.228-0.189 0.396-0.362z"></path>
</svg>
