<!-- Generated by IcoMoon.io -->
<svg version="1.1" xmlns="http://www.w3.org/2000/svg" width="32" height="32" viewBox="0 0 32 32">
<title>damage_kinetic</title>
<path d="M29.248 29.44q-0.192 0.064-0.416-0.096l-1.6-0.768q-2.496-1.184-3.712-1.792-2.048-1.024-3.616-1.92l-0.288-0.128h-0.032q-0.352-0.16-0.544-0.096t-0.448 0.416q-0.224 0.448-0.32 0.672l-0.032 0.064q-0.96 2.112-1.952 4.384l-0.032 0.096q-0.096 0.192-0.192 0.256l-0.736-1.504-1.76-3.808q-0.096-0.192-0.16-0.256l0.032 0.032q-0.192-0.288-0.384-0.352t-0.544 0.064q-0.16 0.064-0.48 0.256l0.032-0.032q-2.912 1.6-8.8 4.672-0.128 0.064-0.224 0.064h-0.032q-0.064-0.096 0.032-0.256l0.544-1.12q1.248-2.688 1.92-4.032 1.088-2.208 2.080-3.936l0.128-0.192q0.384-0.864-0.48-1.28l-1.664-0.672q-2.368-1.088-3.552-1.664 0.032-0.16 0.224-0.224l4.736-2.208q0.16-0.096 0.224-0.096 0.544-0.256 0.64-0.544t-0.224-0.8q-1.792-3.328-2.656-5.024l-2.048-3.968-0.064-0.064q-0.096-0.128-0.064-0.224 0.128-0.064 0.32 0.064l0.992 0.48q2.72 1.28 4.064 1.952 2.272 1.12 4 2.112 0.032 0.032 0.064 0.032 0.544 0.32 0.832 0.224t0.544-0.672l2.208-4.864 0.032-0.128q0.064-0.224 0.224-0.32l2.304 5.12q0 0.096 0.064 0.16 0.288 0.64 0.576 0.704t0.896-0.224q2.912-1.632 8.864-4.64 0.128-0.128 0.256-0.096 0.064 0.096-0.064 0.256l-0.416 0.928q-1.28 2.752-1.952 4.096-1.12 2.304-2.112 4.064h-0.032v0.032q-0.288 0.544-0.192 0.832t0.64 0.512q1.632 0.768 4.832 2.368l0.288 0.128q-0.032 0.128-0.256 0.224l-4.704 2.048q-0.736 0.352-0.832 0.64t0.288 0.992q1.44 2.464 4 7.616zM8.704 9.088q-0.064-0.064-0.096-0.032t0 0.032 0.064 0.032q0.032 0.256 0.256 0.64l0.064 0.096q0.544 1.088 1.696 3.264l0.864 1.664q-1.152 0.512-3.424 1.632 0.928 0.48 2.784 1.312l0.64 0.288q-1.056 1.888-2.784 5.728l0.096 0.064 5.568-2.912 1.664 3.456 1.568-3.488q2.144 1.216 5.792 2.848l-0.064-0.16q-1.6-3.232-2.688-5.216-0.128-0.256-0.096-0.32t0.288-0.192q1.472-0.64 2.208-0.992 0.512-0.192 0.8-0.416l-3.36-1.632q1.568-2.88 2.88-5.824-3.296 1.568-5.76 2.944l-1.632-3.552-1.6 3.552q-1.568-0.896-4.704-2.368l-0.544-0.256q-0.32-0.16-0.48-0.192zM16.064 13.536q1.152 0 1.984 0.8t0.8 1.984-0.8 2.016-1.984 0.832-1.984-0.832-0.832-1.984v0 0q0-1.184 0.832-2.016t1.984-0.8v0 0zM16.864 16.32q-0.032-0.32-0.256-0.544t-0.544-0.224-0.544 0.224-0.256 0.576v0 0q0.032 0.32 0.256 0.544t0.544 0.224h0.032q0.32-0.032 0.544-0.256t0.224-0.544v0 0z"></path>
</svg>
