<!-- Generated by IcoMoon.io -->
<svg version="1.1" xmlns="http://www.w3.org/2000/svg" width="32" height="32" viewBox="0 0 32 32">
<title>destiny</title>
<path d="M13.792 14.752q0.416 0.48 1.152 0.768 0.512 0.224 0.928 0.224v0q0.512 0 1.056-0.16h-0.032q0.288-0.032 0.608-0.256v0q0.288-0.192 0.512-0.416v0q0.384-0.384 0.672-0.864v-0.032q0.224-0.512 0.224-0.992v-5.312q0-0.352-0.096-0.64h0.032q-0.288-0.832-0.992-1.44v0q-0.672-0.576-1.632-0.64-0.096-0.032-0.352-0.032t-0.384 0.032h0.032q-0.288 0.064-0.736 0.256l0.032-0.032q-0.8 0.32-1.28 1.056v0q-0.448 0.64-0.448 1.504v4.992q0 0.288 0.032 0.416v0q0.032 0.096 0.032 0.32v0q0.192 0.704 0.64 1.248v0zM29.824 7.904v-0.256l0.032-0.288-0.032-0.608v0.032q-0.128-0.352-0.16-0.672-0.096-0.448-0.224-0.672v0q-0.256-0.512-0.64-1.056v0q-0.512-0.576-0.832-0.8h-0.032q-0.288-0.256-0.8-0.48v0q-0.48-0.224-0.96-0.256l-0.032-0.032q-0.448-0.064-0.768-0.064h-0.032q-0.48 0-0.928 0.096l0.032-0.032q-0.704 0.192-1.152 0.448l0.032-0.032q-0.384 0.192-1.024 0.576h0.032q-0.448 0.288-0.896 0.544-0.256 0.16-0.896 0.48h-0.064l-0.064 0.064v7.872q0 0.448-0.096 0.896v-0.032q-0.032 0.288-0.224 0.8v-0.032q-0.32 0.8-0.928 1.44v-0.032q-0.576 0.608-1.344 0.96l-0.032 0.032q-0.096 0.064-0.352 0.16l-0.256 0.096h-0.032q-0.288 0.096-0.704 0.096v0 0q-0.192 0.064-0.32 0.064h-0.16q-0.32-0.064-0.544-0.064h-0.032q-0.416-0.032-0.864-0.192l0.064 0.032q-0.352-0.128-0.768-0.352v0q-0.672-0.384-1.152-0.96v0q-0.48-0.576-0.768-1.312l-0.16-0.448q-0.064-0.128-0.064-0.416l-0.096-0.544v-8.064q0-0.064-0.064-0.064-0.384-0.224-0.64-0.352t-0.64-0.384v0q-0.448-0.224-0.832-0.448l-0.8-0.448q-0.48-0.256-1.152-0.416h-0.032q-0.448-0.064-0.768-0.064t-0.544 0.032h0.032q-0.608 0.096-1.152 0.288l0.032-0.032q-0.672 0.288-0.96 0.576v0q-0.48 0.288-0.8 0.704v0q-0.32 0.416-0.544 0.832v0.032q-0.096 0.16-0.288 0.608l-0.096 0.224v0.064q-0.16 0.48-0.16 0.928l-0.032 0.448q0 0.32 0.096 0.608h-0.032q0.128 0.48 0.288 0.928 0.224 0.544 0.608 1.024l-0.032-0.032q0.256 0.352 0.896 0.864l1.792 1.184q0.128 0.16 0.48 0.416l0.16 0.16 0.224 0.192q0.288 0.224 0.416 0.352l0.736 0.768q0.32 0.288 0.672 0.8v0q0.32 0.384 0.544 0.736l0.448 0.704q0.416 0.608 0.608 1.088v0.032q0.288 0.576 0.512 1.184 0.288 0.832 0.512 1.6 0.256 0.928 0.288 1.568v0.032q0.096 0.224 0.096 0.448v0q0 0.32 0.064 0.48v-0.032q0 0.416 0.032 0.64v-0.032q0.032 0.192 0.032 0.608l0.16 0.896q0.096 0.576 0.224 0.928v-0.032q0.128 0.48 0.448 1.024v-0.032q0.288 0.512 0.736 0.864v0q0.928 0.864 2.144 0.96l0.032 0.032q0.384 0.064 0.672 0.064v0q0.32 0 0.608-0.096v0.032q0.416 0 0.832-0.16h-0.032q0.384-0.16 0.832-0.384 0.832-0.512 1.248-1.248l0.032-0.032q0.32-0.384 0.544-0.96v-0.032q0.192-0.512 0.256-1.12v-0.032q0-0.192 0.064-0.512l-0.032 0.032q0.064-0.32 0.064-0.512v0q0.064-0.448 0.096-0.896 0.064-0.576 0.128-0.864v0.064l0.128-0.928q0.096-0.608 0.256-0.992l-0.032 0.032 0.384-1.184 0.448-1.184q0.288-0.608 0.608-1.152 0.384-0.704 0.672-1.12v0.032l0.832-1.024q0.384-0.48 0.864-0.992 0.32-0.224 0.576-0.448t0.48-0.448l0.608-0.448q0.256-0.192 0.576-0.384l0.768-0.512 0.736-0.608q0.32-0.32 0.544-0.64v-0.032q0.256-0.288 0.416-0.8v-0.032 0.096q0.224-0.416 0.32-1.024v-0.032z"></path>
</svg>
