<!-- Generated by IcoMoon.io -->
<svg version="1.1" xmlns="http://www.w3.org/2000/svg" width="32" height="32" viewBox="0 0 32 32">
<title>discipline</title>
<path d="M5.768 22.76c0.824 4.31 4.060 6.848 4.060 6.848h12.688c0 0 3.236-2.538 4.060-6.848h-20.809z"></path>
<path d="M5.43 13.367v-6.627c0-0.449 0.184-0.875 0.508-1.192l2.78-2.663c0.331-0.316 0.772-0.493 1.228-0.493h12.541c0 0 1.398 0.316 1.398 2.251s-1.302 2.155-1.302 2.155h-13.284c0 0-1.773 0.346-1.773 1.964s-0.007 2.795-2.096 4.605z"></path>
<path d="M23.216 12.491h0.015c0-4.163-2.751-4.163-2.751-4.163h-8.599c0 0-2.751 0-2.751 4.163h-0.007c0 0-3.354 2.376-3.354 7.613h20.809c-0.007-5.583-3.361-7.613-3.361-7.613zM13.315 18.111h-1.905v-1.905h1.905v1.905zM13.315 14.308h-1.905v-1.905h1.905v1.905zM17.118 18.111h-1.905v-1.905h1.905v1.905zM17.118 14.308h-1.905v-1.905h1.905v1.905zM20.928 18.111h-1.905v-1.905h1.905v1.905zM20.928 14.308h-1.905v-1.905h1.905v1.905z"></path>
</svg>
