<!-- Generated by IcoMoon.io -->
<svg version="1.1" xmlns="http://www.w3.org/2000/svg" width="32" height="32" viewBox="0 0 32 32">
<title>gambit_sentry</title>
<path d="M23.327 23.915l1.983 2.103 1.5 0.683-1.53-0.164-4.677 1.822 0.564 2.067-1.294-2h-7.647l-1.319 1.966 0.647-2.030-4.85-1.719-1.539 0.225 1.311-0.65 2.244-2.311-5.808 3.114 7.108 4.98h11.996l7.072-5.097-5.761-2.989z"></path>
<path d="M24.26 2.314c-0.431-0.228-0.794-0.369-1.111-0.594-0.327-0.241-0.614-0.479-0.887-0.731l0.007 0.006v-0.994c-0.664 0.25-1.253 0.478-1.844 0.697-0.2 0.075-0.503 0.25-0.597 0.175-0.689-0.539-1.572-0.039-2.303-0.505-0.307-0.193-0.68-0.307-1.080-0.307-0.154 0-0.303 0.017-0.447 0.049l0.014-0.003c-0.53 0.167-1.169 0.022-1.536 0.278-0.694 0.472-1.564-0.106-2.158 0.508-0.845-0.258-1.559-0.54-2.243-0.873l0.091 0.040c-0.067-0.031-0.169 0.022-0.306 0.047v0.964c-0.414 0.133-0.505 0.611-1.005 0.689-0.353 0.053-0.664 0.403-1.044 0.656 0.142 0.875 0.278 1.742 0.425 2.608l0.189-0.169c0.033 0.178 0.069 0.353 0.131 0.669 0.144-0.422 0.2-0.583 0.367-1.064 0.031 0.667 0.061 1.019 0.061 1.369 0 3.791 0 7.583 0 11.388 0 0.897 0.278 1.733 0.444 2.594 0.233 1.153 0.5 2.297 0.783 3.58 0.3 0.387 0.725 0.664 1.214 0.772l0.014 0.003-0.747 0.117v1.636h2.736v0.203l-2.647 0.097 0.428 1.030h9.607l0.261-1.080s-0.833 0.025-1.258 0c-0.356-0.028-0.753 0.133-1.35-0.278h2.958l-0.017-1.597-0.756-0.142c0.417-0.219 0.833-0.439 1.511-2.5 0.027-0.146 0.071-0.276 0.132-0.397l-0.004 0.008c0.047-0.153 0.094-0.314 0.147-0.483-0.047-0.555-0.064-0.958-0.058-1.244-0.243 0.702-0.498 1.619-0.705 2.554l-0.034 0.182c-0.678 0.73-1.758 0.331-2.575 0.833-0.206-0.311-0.6-0.636-0.6-0.967-0.019-1.111-0.717-2.105-0.586-3.236-0.319-0.772-1.111-0.95-1.73-1.005-0.059-0.007-0.128-0.010-0.198-0.010-0.687 0-1.289 0.363-1.625 0.908l-0.005 0.008c-0.106 0.697-0.167 1.453-0.347 2.175s-0.475 1.367-0.722 2.058c-0.378-0.083-0.642-0.164-0.911-0.194-0.35-0.036-0.694 0.056-1.014-0.261-0.175-0.172-0.556-0.133-0.792-0.178-0.297-1.142-0.556-2.144-0.833-3.144-0.217-0.805-0.469-1.589-0.461-2.447 0.033-3.055 0.014-6.111 0.014-9.152v-1.194l0.894 1.336c0.514-0.909 0.817-1.996 0.817-3.153 0-0.011 0-0.023 0-0.034v0.002l0.811-0.389c-0.586 0-0.85 0-1.111 0.114 0.108-0.206 0.206-0.358 0.328-0.378 0.117-0.010 0.254-0.016 0.392-0.016s0.274 0.006 0.409 0.017l-0.018-0.001c0.072-0.092 0.153-0.278 0.214-0.278 0.744 0.075 1.539-0.25 2.222 0.278 1.342-0.133 2.691 0.189 4.047-0.194 0.65-0.183 1.408 0.025 2.116 0.064 0 0 0 0.086 0 0.131 0.117-0.010 0.253-0.016 0.39-0.016s0.273 0.006 0.408 0.017l-0.018-0.001c0.122 0.019 0.219 0.172 0.35 0.278 0.236 0.017 0.492 0.017 0.803 0.017-0.461 0.258-0.461 0.258-0.803-0.017-0.392-0.019-0.761-0.019-1.13-0.019 0.061 0.533 0.555 0.131 0.75 0.336 0.156 1.966 0.242 2.297 0.833 3.055 0.278-0.483 0.511-0.939 0.767-1.403 0.009-0.004 0.020-0.006 0.031-0.006s0.022 0.002 0.031 0.007v0c0.036 0.025 0.083 0.067 0.083 0.1 0 3.927 0 7.858-0.428 14.443-0.022 0.125-0.044 0.231-0.064 0.331 0.369-0.583 0-1.214 0.45-1.778 0.278-0.339 0.094-1.030 0.278-1.583s0.044-1.28 0.044-1.928q0-5 0-9.985c0-0.35 0.031-0.697 0.058-1.247 0.181 0.383 0.278 0.556 0.333 0.703 0.461-0.164 0.514-0.533 0.433-0.911s0.197-0.667 0.278-1c0.018-0.164 0.029-0.354 0.029-0.547 0-0.173-0.009-0.344-0.025-0.513l0.002 0.021z"></path>
<path d="M22.291 21.254l-0.128 0.389c-0.039 0.242 0.047 0.253 0.211-0.555v0c-0.030 0.047-0.058 0.102-0.081 0.16l-0.002 0.007z"></path>
<path d="M17.747 23.006l0.333 0.88v0.017l0.081 0.211-0.858-0.311c-0.247-0.175-0.483-0.364-0.73-0.555z"></path>
<path d="M16.844 20.14l0.7 1.803-0.522 0.436-0.555-0.539c0.128-0.611 0.378-1.7 0.378-1.7z"></path>
<path d="M16.603 24.545c-0.172 0.436-0.306 0.769-0.555 1.369l-0.514-1.369z"></path>
<path d="M15.211 19.807c0.2 0.872 0.325 1.419 0.453 1.986-0.222 0.139-0.447 0.278-0.719 0.447l-0.336-0.278c0.175-0.631 0.353-1.261 0.603-2.155z"></path>
<path d="M14.331 23.173h1.328l-1.478 1.111-0.233-0.192c0.125-0.292 0.25-0.592 0.383-0.919z"></path>
<path d="M9.856 4.486l-0.017-0.183 0.819-0.108c0 0.064 0 0.128 0 0.144-0.227 0.093-0.49 0.148-0.766 0.148-0.013 0-0.026 0-0.039 0h0.002z"></path>
<path d="M22.38 19.526c0.033-0.089 0.067-0.178 0.106-0.278 0.125-0.283-0.097-0.697-0.106 0.278z"></path>
<path d="M20.314 6.747c0.047 0.528-0.053 1.13 0.172 1.567 0.278 0.511 0.106 0.98 0.15 1.461 0.053 0.556 0 1.111 0 1.667v3.611c0 0.922 0.047 1.847 0 2.778-0.058 0.833-0.233 1.667-0.353 2.466-0.264-0.833-0.35-9.885 0.031-13.549z"></path>
<path d="M12.039 5.93c0 0.911 0.028 1.822 0 2.733-0.075 2 0.431 3.966 0.306 5.977-0.064 1.075-0.419 2.105-0.319 3.208 0.027 0.429 0.042 0.93 0.042 1.435 0 0.65-0.025 1.295-0.075 1.932l0.005-0.084c-0.3-0.9-0.375-12.402 0.042-15.201z"></path>
<path d="M11.159 8.163v10.877c-0.294-0.986-0.364-8.296 0-10.877z"></path>
<path d="M21.244 18.901v-10.871c0.303 0.961 0.372 8.235 0 10.871z"></path>
<path d="M20.372 3.947v0.278h-1.628c0.522-0.372 1.086-0.233 1.628-0.278z"></path>
<path d="M11.814 3.98h1.347c-0.822 0.322-0.822 0.322-1.347 0z"></path>
</svg>
