<!-- Generated by IcoMoon.io -->
<svg version="1.1" xmlns="http://www.w3.org/2000/svg" width="32" height="32" viewBox="0 0 32 32">
<title>gambit_invader</title>
<path d="M0.003 15.959c-0.108-8.745 7.264-15.935 15.938-15.955 8.512-0.020 16.060 6.841 16.060 15.991 0 0.013 0 0.028 0 0.043 0 8.813-7.144 15.957-15.957 15.957-0.025 0-0.050 0-0.075 0h0.004c-9.159 0-16.133-7.59-15.969-16.037zM18.193 8.298c-0.613 2.4-1.251 4.892-1.887 7.377h-0.165v-13.012h-0.284c0 1.436-0.020 2.871-0.026 4.307s0 2.931 0 4.395v4.304c-0.786-2.488-1.552-4.954-2.003-7.417 0.178-0.177 0.424-0.286 0.695-0.286 0.023 0 0.046 0.001 0.069 0.002h-0.003c0.016 0.001 0.036 0.002 0.055 0.002 0.276 0 0.518-0.149 0.65-0.37l0.002-0.003c-0.054-1.552 0.148-3.226 0.253-4.903-5.666-0.304-12.328 4.443-12.992 12.155-0.712 8.16 5.794 14.57 13.336 14.635 7.8 0.071 14.167-6.625 13.585-14.425-0.616-7.962-7.627-12.7-13.060-12.365 0.255 1.702 0.247 3.425 0.312 5.034 0.494 0.369 0.993 0.111 1.467 0.556z"></path>
<path d="M5.601 19.239c-0.253-0.284-0.187-0.46-0.167-0.741 0.948-0.383 1.986-0.763 2.31-1.986h5.068z"></path>
<path d="M19.252 26.42c-0.135 0.108-0.309 0.174-0.498 0.174-0.099 0-0.194-0.018-0.282-0.051l0.006 0.002c-0.34-0.956-0.743-1.986-1.949-2.27v-5.093c0.97 2.573 1.844 4.894 2.724 7.238z"></path>
<path d="M19.459 15.38l6.971-2.608c0.111 0.118 0.179 0.277 0.179 0.453 0 0.137-0.042 0.264-0.113 0.37l0.002-0.002c-1.030 0.253-1.898 0.829-2.27 1.921h-4.727z"></path>
<path d="M9.020 24.894c-1.904 0-2.412-0.78-1.702-2.48 0.288-0.287 0.668-0.482 1.092-0.535l0.009-0.001c0.586 0.028 1.092 0.349 1.378 0.818l0.004 0.008c0.21 1.376 0.21 1.376-0.78 2.19z"></path>
<path d="M6.963 15.854c-0.099 0.911-0.531 1.504-1.498 1.637-0.587-0.044-1.091-0.36-1.392-0.822l-0.004-0.007c-0.092-0.228-0.145-0.493-0.145-0.77 0-0.212 0.031-0.417 0.089-0.61l-0.004 0.015c0.44-0.877 1.172-0.985 1.986-0.777 0.522 0.249 0.892 0.741 0.967 1.325l0.001 0.008z"></path>
<path d="M26.558 14.503c0.607 0.053 1.124 0.398 1.414 0.891l0.005 0.009c0.070 0.201 0.111 0.432 0.111 0.672s-0.041 0.472-0.115 0.687l0.004-0.015c-0.443 0.826-1.135 0.922-1.929 0.749-0.53-0.237-0.909-0.726-0.986-1.311l-0.001-0.009c0.057-0.874 0.48-1.481 1.498-1.674z"></path>
<path d="M24.759 9.558c-1.348 0.803-1.501 0.783-2.554-0.301-0.078-0.213-0.123-0.459-0.123-0.716 0-0.235 0.038-0.461 0.107-0.672l-0.004 0.015c0.775-0.851 1.478-1.050 2.176-0.624s0.803 1.078 0.397 2.298z"></path>
<path d="M19.138 16.504h5.068c0.338 1.186 1.217 1.813 2.366 2.032 0.028 0.258 0.099 0.445-0.153 0.695z"></path>
<path d="M15.498 24.193c-1.068 0.314-1.863 1.216-2.013 2.323l-0.002 0.015c-0.080 0.037-0.173 0.059-0.272 0.059-0.17 0-0.324-0.064-0.441-0.17h0.001l2.727-7.286z"></path>
<path d="M7.834 15.527c-0.409-1.178-1.178-1.856-2.27-2.015-0.089-0.095-0.143-0.224-0.143-0.365 0-0.079 0.017-0.155 0.048-0.223l-0.001 0.003c0.167-0.204 4.080 1.175 7.318 2.599h-4.951z"></path>
<path d="M13.038 13.848c-0.772-0.068-1.387-0.536-2.068-0.831-1.549-0.667-3.079-1.379-4.605-2.077 0-0.366 0.227-0.511 0.533-0.687 0.482 0.351 1.086 0.562 1.739 0.562 0.437 0 0.851-0.094 1.224-0.263l-0.019 0.008c1.024 1.118 2.27 2.043 3.158 3.325z"></path>
<path d="M18.976 18.163c0.775 0.065 1.387 0.539 2.071 0.831 1.549 0.655 3.073 1.373 4.605 2.066-0.007 0.299-0.199 0.552-0.466 0.648l-0.005 0.002c-1.353-0.616-1.563-0.638-3.030-0.284-1.004-1.098-2.27-2.023-3.138-3.308z"></path>
<path d="M15.864 25.027c0.928 0.142 1.484 0.567 1.634 1.481-0.025 0.626-0.378 1.165-0.891 1.451l-0.009 0.005c-0.202 0.072-0.435 0.114-0.678 0.114s-0.476-0.042-0.693-0.118l0.015 0.004c-1.288-1.288-1.101-2.207 0.621-2.937z"></path>
<path d="M18.162 13.031c0.173-0.987 0.735-1.813 1.118-2.713 0.567-1.336 1.209-2.644 1.813-3.972 0.36-0.017 0.462 0.284 0.715 0.477-0.376 0.493-0.603 1.118-0.603 1.795 0 0.438 0.095 0.854 0.265 1.228l-0.008-0.019c-1.135 1.016-2.051 2.27-3.337 3.152z"></path>
<path d="M13.855 18.969c-0.173 0.987-0.735 1.816-1.118 2.715-0.55 1.294-1.161 2.554-1.748 3.839-0.026 0.043-0.054 0.080-0.085 0.114v0c-0.34 0.020-0.445-0.267-0.709-0.488 0.707-0.911 0.766-1.893 0.375-2.999 1.115-1.007 2.040-2.259 3.337-3.135z"></path>
<path d="M10.141 8.372c-0.491 1.359-0.874 1.674-1.847 1.563-0.775-0.099-1.22-0.621-1.226-1.439 0-0.766 0.375-1.28 1.064-1.439 0.951-0.227 1.458 0.102 2.009 1.314z"></path>
<path d="M24.265 24.843c-1.609 0.261-1.822 0.148-2.372-1.234 0.042-0.599 0.369-1.114 0.844-1.414l0.007-0.004c0.769-0.227 1.575-0.284 2.026 0.596 0.383 0.732 0.258 1.456-0.505 2.057z"></path>
<path d="M13.889 12.999c-1.246-0.851-2.142-2.088-3.286-3.096l0.363-1.339c-0.031-0.647-0.321-1.192-0.519-1.685 0-0.284 0.131-0.42 0.454-0.567 0.959 2.27 2.182 4.387 2.951 6.727z"></path>
<path d="M19.013 13.882c0.851-1.251 2.094-2.139 3.098-3.283l1.419 0.392c0.67-0.043 1.135-0.409 1.626-0.545 0.264 0 0.397 0.128 0.567 0.463-2.253 0.962-4.395 2.165-6.739 2.937z"></path>
<path d="M13.007 18.121c-0.868 1.243-2.083 2.151-3.107 3.28l-1.402-0.4c-0.684 0.034-1.135 0.411-1.637 0.545-0.004 0-0.009 0-0.014 0-0.21 0-0.39-0.126-0.47-0.306l-0.001-0.003c-0.031-0.235 5.144-2.642 6.679-3.073z"></path>
<path d="M18.125 19.015c1.246 0.851 2.145 2.085 3.283 3.093l-0.366 1.365c0.067 0.598 0.254 1.14 0.535 1.619l-0.010-0.019c0 0.006 0 0.012 0 0.019 0 0.285-0.192 0.525-0.453 0.598l-0.004 0.001c-0.962-2.247-2.173-4.384-2.948-6.725z"></path>
<path d="M13.852 13.033l0.119 0.088-0.082-0.122z"></path>
<path d="M19.013 18.115l-0.125-0.079 0.088 0.116z"></path>
<path d="M13.906 19.015l0.082-0.125-0.119 0.088z"></path>
<path d="M18.162 18.966l-0.119-0.088 0.082 0.125z"></path>
<path d="M18.971 13.845l-0.082 0.119 0.122-0.082z"></path>
<path d="M13.001 13.885l0.125 0.082-0.088-0.119z"></path>
<path d="M18.122 12.994l-0.079 0.125 0.116-0.088z"></path>
<path d="M13.055 18.163l0.085-0.122-0.122 0.085z"></path>
</svg>
