<!-- Generated by IcoMoon.io -->
<svg version="1.1" xmlns="http://www.w3.org/2000/svg" width="32" height="32" viewBox="0 0 32 32">
<title>gambit</title>
<path d="M26.279 11.335c0.415 0.41 0.66 0.896 0.567 1.525-0.040 0.272-0.081 0.538-0.201 0.788-0.169 0.369-0.463 0.657-0.825 0.815l-0.010 0.004c-0.28 0.122-0.557 0.222-0.87 0.214-0.205-0.001-0.388-0.090-0.516-0.231l-0.001-0.001c-0.375-0.397-0.746-0.797-1.124-1.191-0.108-0.102-0.176-0.247-0.176-0.408 0-0.004 0-0.007 0-0.011v0.001c0.006-0.287 0.096-0.399 0.379-0.465l1.051-0.247c0.502-0.117 0.961-0.314 1.335-0.684 0.092-0.091 0.19-0.181 0.392-0.111z"></path>
<path d="M5.741 20.655c-0.354-0.309-0.581-0.702-0.609-1.176-0.004-0.050-0.006-0.109-0.006-0.168 0-0.393 0.097-0.763 0.269-1.087l-0.006 0.013c0.282-0.534 0.767-0.776 1.326-0.908 0.059-0.013 0.117-0.012 0.176-0.023 0.274-0.059 0.5 0.032 0.686 0.229 0.387 0.41 0.769 0.825 1.156 1.236 0.153 0.162 0.161 0.351 0.106 0.544-0.047 0.165-0.171 0.247-0.338 0.284-0.416 0.094-0.835 0.181-1.245 0.298-0.422 0.12-0.829 0.281-1.131 0.626-0.090 0.1-0.203 0.152-0.383 0.132z"></path>
<path d="M10.123 21.767c-0.091 0.036-0.208 0.075-0.328 0.106l-0.023 0.005c-0.411 0.083-0.776 0.221-1.11 0.408l0.019-0.010c-0.237 0.141-0.44 0.283-0.631 0.439l0.010-0.008c-0.059 0.043-0.087 0.126-0.128 0.19l-0.14 0.216c-0.265-0.095-0.493-0.203-0.683-0.372-0.304-0.273-0.596-0.56-0.895-0.839-0.17-0.158-0.2-0.351-0.142-0.561 0.102-0.359 0.329-0.654 0.63-0.842l0.006-0.004c0.58-0.375 1.239-0.482 1.863-0.546 0.156 0.078 0.161 0.176 0.164 0.276 0.012 0.266 0.121 0.505 0.293 0.683v0c0.243 0.272 0.516 0.501 0.859 0.64 0.096 0.046 0.177 0.092 0.254 0.143l-0.008-0.005z"></path>
<path d="M23.318 11.98c-0.026-0.076-0.047-0.166-0.058-0.259l-0.001-0.007c-0.006-0.215-0.089-0.41-0.223-0.559l0.001 0.001c-0.246-0.293-0.527-0.542-0.889-0.694-0.113-0.057-0.209-0.116-0.3-0.18l0.007 0.005c0.069-0.132 0.176-0.147 0.282-0.167 0.407-0.089 0.766-0.215 1.102-0.379l-0.029 0.013c0.269-0.126 0.501-0.28 0.705-0.465l-0.002 0.002c0.052-0.054 0.096-0.116 0.132-0.183l0.002-0.005c0.041-0.064 0.076-0.131 0.111-0.193 0.219-0.013 0.376 0.095 0.527 0.196 0.423 0.284 0.783 0.641 1.135 1.007 0.136 0.141 0.149 0.313 0.102 0.491-0.052 0.22-0.154 0.411-0.294 0.568l0.001-0.001c-0.276 0.297-0.596 0.527-1.001 0.621-0.246 0.059-0.491 0.125-0.736 0.186-0.089 0.025-0.19 0.039-0.296 0.039-0.099 0-0.196-0.013-0.288-0.037l0.008 0.002z"></path>
<path d="M9.698 26.937c0.139 0.125 0.282 0.256 0.427 0.385 0.126 0.1 0.205 0.253 0.205 0.424 0 0.066-0.012 0.129-0.033 0.187l0.001-0.004c-0.023 0.066-0.036 0.142-0.036 0.221 0 0.084 0.015 0.164 0.042 0.239l-0.002-0.005c0.064 0.195 0.030 0.239-0.196 0.36-0.124-0.064-0.271-0.102-0.427-0.102-0.054 0-0.108 0.005-0.159 0.013l0.006-0.001c-0.015 0.001-0.033 0.002-0.051 0.002-0.124 0-0.242-0.031-0.344-0.087l0.004 0.002c-0.424-0.218-0.841-0.449-1.254-0.685-0.19-0.106-0.341-0.261-0.441-0.447l-0.003-0.006c-0.206-0.395-0.602-0.481-1.003-0.324-0.153 0.055-0.284 0.117-0.408 0.189l0.011-0.006c-0.133 0.095-0.249 0.189-0.359 0.29l0.003-0.002c-0.524-0.314-0.728-0.911-1.15-1.308 0.077-0.34 0.246-0.548 0.581-0.6 0.105-0.016 0.208-0.047 0.313-0.070 0.39-0.083 0.702 0.071 0.986 0.318 0.021 0.020 0.037 0.044 0.047 0.071v0.001c0.008 0.031 0.013 0.066 0.016 0.103v0.002h-0.533c-0.204 0.206-0.218 0.473-0.046 0.852 0.037-0.117 0.067-0.2 0.091-0.287 0.059-0.212 0.101-0.263 0.321-0.258 0.252 0.005 0.503 0.036 0.755 0.067 0.26 0.032 0.523 0.061 0.779 0.117 0.241 0.049 0.454 0.118 0.656 0.21l-0.019-0.008c0.365 0.17 0.728 0.273 1.126 0.14 0.008-0.001 0.018-0.001 0.027-0.001 0.024 0 0.047 0.003 0.070 0.008h-0.002zM7.884 27.116c0.029 0.142 0.066 0.275 0.234 0.354 0.025-0.208-0.082-0.297-0.235-0.354zM5.158 26.058c0.217 0.205 0.217 0.205 0.397 0.109-0.101-0.113-0.222-0.137-0.397-0.109z"></path>
<path d="M21.83 3.27c0.258 0.023 0.447 0.050 0.637 0.053 0.005 0 0.012 0 0.018 0 0.187 0 0.363 0.050 0.514 0.138l-0.005-0.003c0.319 0.187 0.644 0.365 0.968 0.54 0.246 0.133 0.473 0.296 0.588 0.55 0.183 0.404 0.625 0.45 0.977 0.335 0.371-0.121 0.48-0.197 0.773-0.488 0.092 0.058 0.172 0.119 0.247 0.187l-0.001-0.001c0.135 0.143 0.265 0.295 0.387 0.454l0.010 0.014c0.174 0.221 0.335 0.451 0.507 0.685-0.086 0.342-0.27 0.572-0.656 0.585-0.097 0.011-0.185 0.028-0.269 0.052l0.012-0.003c-0.356 0.077-0.649-0.059-0.918-0.275-0.064-0.051-0.114-0.108-0.061-0.21 0.184-0.059 0.404 0.092 0.579-0.072 0.098-0.216 0.089-0.499-0.038-0.767-0.067 0.176-0.128 0.33-0.194 0.503-0.090 0.012-0.194 0.019-0.3 0.019-0.030 0-0.059-0.001-0.089-0.002h0.004c-0.464-0.053-0.928-0.109-1.389-0.186-0.208-0.042-0.392-0.106-0.565-0.19l0.014 0.006c-0.363-0.161-0.726-0.275-1.13-0.169-0.015 0.003-0.033 0.004-0.051 0.004-0.071 0-0.137-0.024-0.191-0.063l0.001 0.001c-0.156-0.126-0.296-0.255-0.427-0.393l-0.002-0.002c-0.078-0.082-0.126-0.193-0.126-0.315 0-0.054 0.009-0.106 0.027-0.154l-0.001 0.003c0.028-0.081 0.044-0.174 0.044-0.271s-0.016-0.19-0.046-0.277l0.002 0.006c-0.060-0.179-0.011-0.232 0.15-0.298zM24.147 4.858c-0.059-0.103-0.114-0.208-0.18-0.306-0.013-0.021-0.070-0.011-0.117-0.016 0.026 0.18 0.111 0.286 0.297 0.323zM26.441 5.762c0.167 0.176 0.17 0.179 0.376 0.108-0.106-0.112-0.217-0.172-0.376-0.107z"></path>
<path d="M13.411 14.994c0.081 0.089 0.159 0.176 0.239 0.261 0.193 0.205 0.384 0.413 0.585 0.612 0.1 0.1 0.15 0.211 0.108 0.342-0.102 0.318-0.050 0.635-0.016 0.955 0.016 0.148 0.026 0.321 0.026 0.495v0c-0.006 0.077-0.019 0.148-0.039 0.216l0.002-0.007c-0.149 0.070-0.251 0.008-0.351-0.054-0.143-0.086-0.315-0.138-0.499-0.14h-0.001c-0.293-0.015-0.581-0.053-0.871-0.056-0.206 0.004-0.404 0.030-0.595 0.075l0.019-0.004c-0.275 0.059-0.331 0.035-0.433-0.238-0.037-0.1-0.065-0.205-0.109-0.301-0.199-0.43-0.13-0.845 0.102-1.229 0.359-0.594 0.92-0.874 1.596-0.947 0.005 0 0.010 0 0.015 0 0.078 0 0.155 0.007 0.229 0.021l-0.008-0.001z"></path>
<path d="M17.653 14.099c0.176-0.052 0.285 0.009 0.389 0.083 0.109 0.076 0.244 0.121 0.389 0.121 0.007 0 0.014 0 0.021 0h-0.001c0.002 0 0.005 0 0.007 0 0.161 0 0.318 0.017 0.47 0.049l-0.015-0.003c0.303 0.064 0.599 0.030 0.898-0.025 0.15-0.027 0.305-0.034 0.464-0.050 0.031 0.053 0.064 0.118 0.094 0.185l0.005 0.014c0.045 0.117 0.079 0.241 0.125 0.358 0.066 0.157 0.105 0.339 0.105 0.53 0 0.402-0.17 0.764-0.442 1.019l-0.001 0.001c-0.356 0.34-0.787 0.532-1.265 0.626-0.191 0.038-0.341-0.032-0.468-0.172-0.208-0.231-0.414-0.464-0.633-0.687-0.136-0.139-0.163-0.273-0.131-0.471 0.016-0.117 0.025-0.253 0.025-0.391s-0.009-0.274-0.027-0.407l0.002 0.016c-0.016-0.135-0.026-0.291-0.026-0.45 0-0.122 0.006-0.242 0.016-0.361l-0.001 0.015z"></path>
<path d="M16.761 22.924c-0.17 0.31-0.363 0.544-0.725 0.631-0.468 0.112-0.867 0.385-1.244 0.68-0.117 0.090-0.224 0.189-0.342 0.272-0.080 0.064-0.173 0.115-0.274 0.149l-0.006 0.002c-0.305 0.074-0.592-0.065-0.882-0.12-0.207-0.040-0.343-0.248-0.448-0.437-0.048-0.082-0.076-0.181-0.076-0.286 0-0.111 0.031-0.214 0.085-0.302l-0.001 0.003c0.216-0.381 0.501-0.697 0.841-0.942l0.009-0.006c0.028-0.023 0.061-0.044 0.095-0.061l0.003-0.002c0.468-0.205 0.951-0.331 1.466-0.308 0.051 0 0.1 0.010 0.145 0.027l-0.003-0.001c0.53 0.226 0.976 0.46 1.4 0.725l-0.042-0.025z"></path>
<path d="M15.236 9.086c0.131-0.311 0.325-0.504 0.615-0.585 0.604-0.169 1.112-0.506 1.585-0.901 0.221-0.185 0.448-0.255 0.726-0.193 0.099 0.017 0.218 0.030 0.339 0.036h0.008c0.385 0.030 0.686 0.349 0.686 0.739 0 0.162-0.052 0.312-0.14 0.434l0.002-0.002c-0.251 0.365-0.527 0.702-0.942 0.892-0.363 0.172-0.789 0.273-1.239 0.273-0.073 0-0.145-0.003-0.217-0.008l0.010 0.001c-0.041-0.002-0.080-0.010-0.116-0.024l0.003 0.001c-0.522-0.221-0.955-0.443-1.372-0.69l0.052 0.029z"></path>
<path d="M15.167 13.331c0.063-0.099 0.129-0.185 0.201-0.265l-0.001 0.001c0.438-0.397 0.527-0.908 0.487-1.463-0.006-0.087-0.020-0.176-0.030-0.255 0.044-0.040 0.102-0.065 0.167-0.065 0.031 0 0.061 0.006 0.089 0.017l-0.002-0.001q0.961 0.293 1.921 0.592c0.025 0.013 0.046 0.028 0.066 0.046v0c0.080 0.252 0.145 0.527 0.123 0.809-0.052 0.661-0.43 1.070-1.038 1.27-0.172 0.059-0.37 0.093-0.576 0.093-0.327 0-0.634-0.086-0.899-0.237l0.009 0.005c-0.229-0.121-0.408-0.31-0.514-0.54l-0.003-0.007z"></path>
<path d="M18.85 21.657c-0.071-0.014-0.129-0.030-0.187-0.049l0.011 0.003c-0.535-0.205-1.068-0.416-1.604-0.618-0.165-0.066-0.298-0.18-0.385-0.326l-0.002-0.004c-0.245-0.369-0.189-0.761-0.139-1.157 0.022-0.169 0.125-0.305 0.252-0.417 0.254-0.238 0.597-0.385 0.974-0.385 0.115 0 0.227 0.014 0.335 0.040l-0.010-0.002c0.091 0.018 0.173 0.052 0.244 0.099l-0.003-0.002c0.32 0.22 0.634 0.448 0.916 0.649 0.103 0.17 0.094 0.3 0.034 0.431-0.040 0.088-0.077 0.179-0.125 0.263-0.127 0.215-0.202 0.474-0.202 0.75 0 0.124 0.015 0.244 0.043 0.359l-0.002-0.010c0.036 0.148-0.002 0.268-0.152 0.375z"></path>
<path d="M13.015 10.398c0.187-0.078 0.3-0.026 0.42 0.022 0.468 0.184 0.942 0.366 1.416 0.54 0.377 0.138 0.678 0.599 0.641 1.006-0.014 0.092-0.024 0.202-0.028 0.314v0.006c0.004 0.277-0.121 0.483-0.336 0.644-0.365 0.276-0.757 0.441-1.223 0.301-0.091-0.023-0.172-0.057-0.245-0.101l0.004 0.002c-0.29-0.197-0.578-0.396-0.859-0.605-0.16-0.117-0.183-0.228-0.117-0.41 0.037-0.104 0.076-0.192 0.122-0.275l-0.005 0.010c0.205-0.363 0.252-0.749 0.193-1.157-0.001-0.017-0.001-0.038-0.001-0.058 0-0.083 0.007-0.165 0.020-0.245l-0.001 0.009z"></path>
<path d="M11.347 14.649c-0.063 0.026-0.135 0.041-0.212 0.041s-0.149-0.015-0.215-0.042l0.004 0.001c-0.293-0.112-0.595-0.083-0.894-0.073-0.122 0.016-0.233 0.054-0.332 0.109l0.005-0.002c-0.176 0.078-0.347 0.168-0.541 0.263-0.076-0.088-0.163-0.149-0.191-0.229-0.056-0.166-0.111-0.374-0.152-0.586l-0.005-0.032c-0.021-0.104-0.005-0.214-0.015-0.32-0.050-0.582 0.238-1.003 0.654-1.36 0.059-0.050 0.131-0.086 0.188-0.138 0.249-0.229 0.536-0.246 0.845-0.16 0.425 0.117 0.745 0.314 1.045 0.863-0.074 0.268-0.184 0.534-0.215 0.808s0.017 0.557 0.031 0.855z"></path>
<path d="M16.809 18.721c-0.071 0.097-0.139 0.181-0.211 0.262l0.003-0.003c-0.399 0.404-0.523 0.894-0.464 1.444 0.008 0.077 0.018 0.155 0.022 0.234-0.006 0.036-0.015 0.069-0.029 0.1l0.001-0.002c-0.028 0.008-0.061 0.012-0.094 0.012-0.014 0-0.028-0.001-0.041-0.002h0.002q-0.962-0.29-1.92-0.585c-0.050-0.019-0.091-0.039-0.131-0.061l0.005 0.003c-0.33-0.781-0.117-1.569 0.557-1.967 0.029-0.021 0.062-0.041 0.097-0.057l0.004-0.002c0.594-0.201 1.184-0.224 1.747 0.087 0.206 0.11 0.378 0.269 0.452 0.539z"></path>
<path d="M22.942 17.066c0.070 0.18 0.133 0.311 0.171 0.449 0.055 0.194 0.086 0.416 0.086 0.646 0 0.13-0.010 0.257-0.029 0.381l0.002-0.014c-0.059 0.405-0.287 0.739-0.599 1.006-0.095 0.081-0.211 0.14-0.308 0.22-0.199 0.162-0.432 0.187-0.664 0.137-0.508-0.106-0.924-0.433-1.148-0.873l-0.004-0.009c0.080-0.288 0.188-0.554 0.22-0.829 0.030-0.265-0.020-0.537-0.035-0.817 0.063-0.047 0.143-0.075 0.229-0.075 0.045 0 0.088 0.008 0.128 0.022l-0.003-0.001c0.169 0.042 0.34 0.081 0.512 0.107 0.264 0.040 0.523 0.026 0.766-0.106 0.101-0.058 0.222-0.117 0.348-0.168l0.021-0.008c0.085-0.026 0.189-0.050 0.296-0.066l0.012-0.002z"></path>
<path d="M17.338 10.101c0.083-0.185 0.227-0.218 0.365-0.264 0.277-0.083 0.502-0.167 0.722-0.263l-0.041 0.016c0.286-0.135 0.514-0.356 0.707-0.599 0.208-0.263 0.451-0.311 0.749-0.213 0.138 0.046 0.28 0.082 0.415 0.136 0.722 0.288 1.048 1.076 0.714 1.746-0.086 0.158-0.191 0.293-0.314 0.409l-0.001 0.001c-0.238 0.234-0.519 0.288-0.831 0.148-0.53-0.239-1.062-0.475-1.593-0.714-0.291-0.129-0.582-0.26-0.893-0.403z"></path>
<path d="M14.684 21.903c-0.113 0.083-0.184 0.144-0.265 0.191-0.048 0.026-0.104 0.044-0.164 0.051h-0.002c-0.565 0.081-0.974 0.416-1.346 0.819-0.091 0.099-0.194 0.187-0.284 0.275-0.513 0.017-0.973-0.127-1.321-0.442-0.585-0.532-0.523-1.329-0.067-1.805 0.306-0.32 0.607-0.38 1.034-0.199 0.761 0.323 1.51 0.677 2.264 1.020 0.040 0.014 0.067 0.037 0.152 0.089z"></path>
<path d="M11.015 17.221c-0.592-0.011-1.136 0.005-1.659 0.242-0.059-0.064-0.114-0.133-0.164-0.207l-0.004-0.006c-0.135-0.234-0.269-0.474-0.392-0.716-0.163-0.317-0.135-0.625 0.087-0.905 0.372-0.468 0.855-0.731 1.457-0.741 0.017 0 0.038-0.001 0.058-0.001 0.225 0 0.444 0.021 0.657 0.063l-0.022-0.003c0.247 0.044 0.45 0.202 0.556 0.416l0.002 0.005c-0.059 0.089-0.117 0.186-0.187 0.277-0.282 0.38-0.451 0.793-0.391 1.278 0.003 0.049 0.005 0.107 0.005 0.165 0 0.047-0.001 0.094-0.004 0.14v-0.006z"></path>
<path d="M22.698 14.525c0.185 0.351 0.373 0.678 0.536 1.018 0.142 0.293 0.071 0.575-0.138 0.813-0.41 0.468-0.906 0.752-1.552 0.735-0.306-0.008-0.605-0.013-0.869-0.19-0.111-0.074-0.239-0.142-0.239-0.301 0.158-0.283 0.328-0.555 0.465-0.842 0.143-0.301 0.067-0.633 0.077-0.976 0.066-0.022 0.142-0.036 0.221-0.040h0.002c0.083 0.008 0.179 0.013 0.277 0.013 0.385 0 0.752-0.073 1.090-0.205l-0.020 0.007c0.041-0.012 0.092-0.023 0.145-0.031l0.007-0.001z"></path>
<path d="M23.874 8.619c0.059 0.283-0.083 0.421-0.234 0.546-0.235 0.201-0.517 0.355-0.827 0.443l-0.016 0.004c-0.272 0.072-0.544 0.146-0.819 0.205-0.259 0.055-0.387 0.009-0.49-0.202-0.28-0.574-0.773-0.878-1.335-1.108-0.079-0.032-0.159-0.062-0.224-0.087-0.048-0.15 0.044-0.176 0.129-0.198 0.198-0.049 0.397-0.098 0.598-0.132 0.283-0.049 0.539-0.14 0.756-0.344 0.187-0.176 0.413-0.194 0.65-0.078 0.462 0.225 0.931 0.439 1.391 0.67 0.161 0.094 0.299 0.187 0.429 0.288l-0.009-0.006z"></path>
<path d="M12.087 23.681c-0.055 0.032-0.12 0.062-0.187 0.085l-0.008 0.003c-0.245 0.059-0.491 0.12-0.738 0.167-0.202 0.032-0.379 0.119-0.52 0.246l0.001-0.001c-0.123 0.114-0.28 0.191-0.455 0.214h-0.004c-0.065-0.026-0.146-0.055-0.225-0.092-0.423-0.197-0.847-0.39-1.264-0.598-0.198-0.099-0.382-0.225-0.531-0.315-0.097-0.18-0.054-0.293 0.027-0.4 0.149-0.191 0.339-0.343 0.558-0.443l0.009-0.004c0.405-0.198 0.842-0.293 1.284-0.365 0.050-0.004 0.108-0.007 0.167-0.007s0.117 0.002 0.174 0.007h-0.008c0.163 0.234 0.285 0.459 0.458 0.637 0.177 0.169 0.375 0.317 0.59 0.441l0.015 0.008c0.211 0.128 0.442 0.222 0.664 0.331z"></path>
<path d="M6.99 16.882c-0.169 0.049-0.278 0.090-0.391 0.111-0.52 0.094-0.878 0.426-1.216 0.799-0.075 0.083-0.157 0.161-0.217 0.222 0 0 0 0 0 0-0.252 0-0.473-0.13-0.602-0.326l-0.002-0.003c-0.381-0.557-0.472-1.141-0.124-1.751 0.072-0.126 0.152-0.249 0.234-0.368 0.271-0.391 0.788-0.464 1.129-0.133 0.25 0.256 0.489 0.526 0.713 0.809l0.016 0.021c0.156 0.184 0.29 0.387 0.459 0.619z"></path>
<path d="M25.028 15.105c0.332-0.147 0.709-0.138 0.982-0.376 0.262-0.229 0.52-0.463 0.828-0.737 0.198-0.059 0.398 0.059 0.545 0.255 0.374 0.499 0.522 1.045 0.234 1.639-0.109 0.226-0.232 0.421-0.373 0.6l0.005-0.007c-0.135 0.164-0.337 0.267-0.564 0.267-0.162 0-0.312-0.053-0.433-0.143l0.002 0.001c-0.129-0.094-0.242-0.197-0.341-0.312l-0.002-0.003c-0.26-0.315-0.509-0.64-0.761-0.963-0.041-0.062-0.081-0.135-0.117-0.211l-0.005-0.011z"></path>
<path d="M13.821 18.379c-0.241 0.481-0.38 0.998-0.229 1.58-0.044 0.004-0.095 0.007-0.146 0.007s-0.102-0.002-0.153-0.007h0.006c-0.861-0.184-1.603-0.411-2.317-0.693l0.099 0.034c-0.014-0.399 0.076-0.743 0.422-0.99 0.26-0.199 0.588-0.322 0.944-0.331h0.002c0.348-0.003 0.702-0.046 1.033 0.109 0.126 0.055 0.255 0.097 0.339 0.289z"></path>
<path d="M18.201 13.733c0.019-0.112 0.012-0.225 0.059-0.312 0.214-0.418 0.234-0.856 0.164-1.308-0.001-0.012-0.002-0.026-0.002-0.040s0.001-0.028 0.002-0.042v0.002c0.333-0.059 1.764 0.322 2.482 0.659 0.013 0.316-0.027 0.618-0.293 0.855-0.332 0.293-0.702 0.483-1.16 0.457-0.053-0.004-0.114-0.006-0.176-0.006s-0.123 0.002-0.184 0.007h0.008c-0.319 0.028-0.587-0.102-0.901-0.271z"></path>
<path d="M11.171 9.122c0.422 0.301 0.866 0.57 1.251 0.908 0.303 0.266 0.475 0.636 0.371 1.072-0.032 0.132-0.052 0.268-0.088 0.398-0.065 0.234-0.155 0.351-0.378 0.496-0.118-0.052-0.218-0.109-0.313-0.173l0.007 0.004c-0.421-0.334-0.764-0.746-1.103-1.16-0.027-0.027-0.047-0.060-0.058-0.097v-0.002c-0.070-0.486-0.122-0.969 0.228-1.386 0.025-0.021 0.053-0.041 0.082-0.059l0.003-0.002z"></path>
<path d="M21.145 21.415c0.056 0.521 0.099 1.013-0.3 1.436-0.144-0.090-0.278-0.165-0.402-0.254-0.276-0.199-0.56-0.39-0.819-0.611-0.363-0.311-0.536-0.702-0.41-1.191 0.037-0.14 0.070-0.283 0.117-0.421 0.043-0.128 0.098-0.254 0.203-0.325 0.198-0.076 0.334 0.003 0.468 0.117 0.334 0.298 0.634 0.617 0.906 0.959l0.012 0.016c0.074 0.090 0.149 0.18 0.225 0.274z"></path>
<path d="M6.535 27.727c0.19 0.297 0.444 0.326 0.736 0.355 0.064-0.003 0.124-0.011 0.182-0.023l-0.007 0.001c0.024-0.003 0.053-0.005 0.081-0.005 0.135 0 0.261 0.040 0.366 0.108l-0.003-0.002c0.218 0.145 0.439 0.287 0.663 0.422s0.454 0.26 0.69 0.396c0.008 0.077 0.015 0.152 0.021 0.225-0.207 0.243-0.497 0.41-0.827 0.455l-0.007 0.001c-0.032 0.004-0.070 0.007-0.108 0.007-0.114 0-0.224-0.022-0.324-0.061l0.006 0.002c-0.294-0.116-0.537-0.231-0.771-0.361l0.033 0.017c-0.167-0.095-0.36-0.18-0.563-0.245l-0.022-0.006c-0.727-0.215-0.975-0.937-0.675-1.546l0.262-0.013c0.102 0.079 0.189 0.169 0.263 0.271l0.003 0.004zM7.724 28.876c-0.253-0.18-0.494-0.193-0.707-0.276s-0.4-0.207-0.604-0.315c-0.043 0.121 0.033 0.176 0.096 0.234 0.184 0.175 0.408 0.311 0.655 0.393l0.012 0.004c0.101 0.031 0.217 0.052 0.337 0.058h0.003c0.053 0.003 0.107-0.049 0.207-0.098z"></path>
<path d="M25.453 4.25c-0.145-0.221-0.342-0.265-0.556-0.327-0.021-0.006-0.046-0.010-0.072-0.010-0.016 0-0.032 0.001-0.047 0.004h0.002c-0.363 0.065-0.659-0.083-0.952-0.275s-0.602-0.358-0.905-0.534c-0.257-0.148-0.275-0.307-0.039-0.493 0.351-0.279 0.749-0.377 1.177-0.214 0.244 0.092 0.473 0.225 0.711 0.336 0.149 0.070 0.3 0.135 0.452 0.198 0.063 0.026 0.131 0.039 0.194 0.063 0.501 0.198 0.878 0.761 0.582 1.496h-0.321c-0.085-0.072-0.159-0.152-0.223-0.241l-0.003-0.004zM25.591 3.706c0.006-0.195-0.133-0.28-0.252-0.367-0.286-0.207-0.591-0.366-0.961-0.345-0.024 0.054-0.039 0.088-0.059 0.128 0.19 0.171 0.445 0.149 0.65 0.25s0.403 0.216 0.621 0.334z"></path>
<path d="M5.72 11.572c-0.176-0.071-0.2-0.21-0.207-0.362-0.014-0.342-0.071-0.665-0.166-0.972l0.007 0.027c-0.047-0.188-0.134-0.352-0.252-0.488l0.001 0.002c-0.077-0.072-0.125-0.175-0.125-0.288 0-0.072 0.019-0.139 0.052-0.197l-0.001 0.002c0.117-0.234 0.239-0.468 0.362-0.697 0.085-0.154 0.238-0.261 0.417-0.281h0.002c0.32-0.053 0.617 0.033 0.9 0.173 0.055 0.027 0.091 0.093 0.137 0.143-0.418 0.845-0.644 1.741-0.92 2.621-0.040 0.119-0.059 0.249-0.209 0.319z"></path>
<path d="M26.177 20.419c0.254 0.054 0.271 0.081 0.297 0.296 0.030 0.26 0.064 0.52 0.109 0.778 0.039 0.284 0.155 0.536 0.326 0.74l-0.002-0.002c0.124 0.142 0.135 0.293 0.046 0.456-0.109 0.205-0.198 0.423-0.317 0.622-0.197 0.331-0.435 0.426-0.812 0.343-0.215-0.047-0.444-0.063-0.644-0.242 0.015-0.098 0.037-0.186 0.066-0.27l-0.003 0.010c0.321-0.721 0.532-1.479 0.768-2.228 0.050-0.164 0.107-0.326 0.166-0.503z"></path>
<path d="M26.213 16.939c0.195-0.049 0.293 0.063 0.362 0.196 0.18 0.334 0.345 0.674 0.527 1.006 0.074 0.12 0.157 0.224 0.251 0.317v0c0.064 0.062 0.133 0.121 0.205 0.175l0.005 0.004c0.012 0.045 0.031 0.076 0.025 0.101-0.129 0.54-0.356 1.009-0.915 1.229-0.058 0.022-0.125 0.035-0.194 0.035-0.011 0-0.022 0-0.033-0.001h0.002c-0.001 0-0.003 0-0.005 0-0.122 0-0.225-0.084-0.255-0.197v-0.002c-0.035-0.111-0.056-0.238-0.058-0.37v-0.001c0.015-0.508 0-1.008-0.12-1.507-0.088-0.368-0.017-0.602 0.205-0.983z"></path>
<path d="M5.803 15.025c-0.207 0.063-0.303-0.034-0.37-0.159-0.181-0.332-0.348-0.672-0.533-1.002-0.080-0.129-0.168-0.24-0.267-0.342v0c-0.071-0.072-0.145-0.14-0.223-0.203l-0.005-0.004c-0.006-0.027-0.010-0.058-0.010-0.089 0-0.015 0.001-0.030 0.003-0.045v0.002c0.153-0.434 0.327-0.856 0.752-1.105 0.22-0.129 0.441-0.111 0.671 0.078 0.021 0.162 0.033 0.352 0.035 0.544v0.003c-0.017 0.44-0.018 0.878 0.122 1.298 0.128 0.382-0.023 0.698-0.176 1.023z"></path>
<path d="M24.986 23.667c0.285 0.175 0.631 0.279 1 0.279 0.077 0 0.152-0.004 0.226-0.013l-0.009 0.001c-0.204 0.275-0.351 0.5-0.527 0.702-0.276 0.327-0.561 0.65-0.862 0.95-0.198 0.185-0.412 0.358-0.639 0.515l-0.019 0.012c-0.080 0.059-0.191 0.074-0.264 0.1-0.050-0.030-0.076-0.036-0.083-0.050-0.128-0.293-0.111-0.605-0.108-0.911 0-0.090 0.085-0.196 0.158-0.265 0.303-0.28 0.57-0.592 0.797-0.934l0.012-0.019c0.080-0.128 0.197-0.233 0.316-0.368z"></path>
<path d="M8.207 5.821c0.087 0.277 0.088 0.561 0.097 0.841 0.005 0.13-0.070 0.239-0.166 0.33-0.328 0.299-0.616 0.633-0.86 0.998l-0.012 0.020c-0.068 0.111-0.186 0.194-0.244 0.259-0.224-0.076-0.401-0.153-0.585-0.196-0.159-0.030-0.353-0.054-0.549-0.067l-0.015-0.001c0.073-0.234 0.21-0.407 0.354-0.572 0.303-0.344 0.604-0.69 0.925-1.015 0.197-0.2 0.429-0.365 0.647-0.543 0.109-0.092 0.237-0.121 0.409-0.055z"></path>
<path d="M27.012 17.384c0.002-0.031 0.008-0.061 0.018-0.088l-0.001 0.002c0.186-0.32 0.376-0.644 0.68-0.862 0.217-0.156 0.482-0.107 0.727-0.078 0.176 0.437 0.146 2.005-0.087 2.347-0.188 0.059-0.351-0.032-0.508-0.128-0.327-0.199-0.577-0.495-0.713-0.848l-0.004-0.012c-0.042-0.107-0.076-0.22-0.113-0.333z"></path>
<path d="M3.555 15.628c-0.169-0.479-0.123-1.851 0.071-2.334 0.045-0.012 0.097-0.019 0.151-0.019 0.138 0 0.265 0.045 0.369 0.12l-0.002-0.001c0.438 0.277 0.745 0.727 0.827 1.251l0.001 0.010c-0.176 0.337-0.393 0.675-0.748 0.901-0.081 0.041-0.176 0.066-0.277 0.067v0c-0.125 0.011-0.251 0.004-0.392 0.004z"></path>
<path d="M9.368 19.202c0.095 0.040 0.176 0.084 0.252 0.134l-0.006-0.003c0.473 0.364 1.007 0.701 1.571 0.988l0.058 0.027c0.050 0.030 0.092 0.060 0.132 0.092l-0.003-0.002c-0.036 0.039-0.074 0.074-0.115 0.105l-0.002 0.002c-0.241 0.153-0.443 0.345-0.601 0.57l-0.004 0.007c-0.104 0.156-0.248 0.193-0.433 0.146-0.353-0.090-0.655-0.272-0.89-0.519l-0.001-0.001c-0.289-0.293-0.327-1.117-0.063-1.452 0.032-0.033 0.066-0.064 0.102-0.092l0.002-0.002z"></path>
<path d="M22.653 12.772c-0.068-0.024-0.161-0.033-0.22-0.082-0.536-0.447-1.137-0.784-1.756-1.096-0.013-0.009-0.024-0.021-0.033-0.034v0l0.84-0.836c0.419-0.066 1.021 0.212 1.254 0.595 0.113 0.19 0.179 0.418 0.179 0.663 0 0.298-0.099 0.573-0.267 0.793l0.002-0.003z"></path>
<path d="M15.73 8.19c-0.036-0.088-0.077-0.148-0.081-0.21-0.025-0.296-0.19-0.502-0.41-0.678-0.135-0.108-0.273-0.213-0.359-0.341 0.011-0.089 0.087-0.157 0.178-0.157 0.002 0 0.003 0 0.005 0v0c0.491-0.059 0.979-0.153 1.478-0.133 0.301 0.012 0.603-0.006 0.904-0.008 0.094 0 0.189 0.009 0.31 0.016-0.022 0.080-0.023 0.14-0.053 0.18-0.423 0.577-0.947 1.028-1.631 1.269-0.097 0.027-0.213 0.049-0.332 0.062l-0.009 0.001z"></path>
<path d="M14.221 25.259c0.078-0.108 0.15-0.221 0.234-0.323 0.322-0.386 0.714-0.701 1.157-0.931l0.021-0.010c0.211-0.108 0.43-0.176 0.68-0.082 0.011 0.037 0.021 0.085 0.029 0.134l0.001 0.008c0.027 0.243 0.148 0.454 0.325 0.598l0.002 0.001c0.153 0.133 0.3 0.273 0.431 0.393 0 0.138-0.069 0.163-0.153 0.176-0.458 0.088-0.984 0.138-1.523 0.138-0.025 0-0.051 0-0.076 0h0.004c-0.273-0.006-0.546 0-0.819 0-0.094 0-0.188-0.016-0.282-0.025z"></path>
<path d="M3.655 13.021c0.248-1.116 0.531-2.166 1.042-3.146 0.162 0.063 0.22 0.179 0.263 0.293 0.144 0.382 0.266 0.771 0.301 1.182 0.017 0.197-0.024 0.38-0.186 0.495-0.32 0.228-0.511 0.554-0.719 0.871-0.078 0.117-0.176 0.227-0.265 0.342z"></path>
<path d="M19.086 24.436c0.044-0.003 0.095-0.005 0.146-0.005s0.103 0.002 0.153 0.005h-0.007c0.481 0.074 0.931 0.029 1.321-0.296 0.030-0.020 0.064-0.037 0.1-0.050l0.003-0.001c0.423 0.299 0.626 1.293 0.371 1.815-0.205 0.067-0.404-0.009-0.601-0.047-0.226-0.051-0.421-0.115-0.608-0.195l0.023 0.009c-0.186-0.075-0.335-0.207-0.43-0.374l-0.002-0.004c-0.151-0.266-0.296-0.539-0.47-0.855z"></path>
<path d="M28.323 19.016c-0.242 1.176-0.599 2.216-1.068 3.191l0.035-0.081c-0.117-0.060-0.206-0.161-0.249-0.283l-0.001-0.004c-0.144-0.358-0.254-0.775-0.31-1.209l-0.003-0.026c-0.019-0.164 0.019-0.321 0.15-0.421 0.367-0.279 0.582-0.671 0.828-1.044 0.169-0.26 0.284-0.28 0.618-0.122z"></path>
<path d="M10.826 6.043c0.484 0.011 0.937 0.14 1.332 0.359l-0.015-0.008c0.112 0.064 0.203 0.151 0.268 0.257l0.002 0.003c0.169 0.28 0.316 0.572 0.483 0.882-0.137 0-0.254 0.017-0.365 0-0.444-0.078-0.849-0.005-1.208 0.278-0.041 0.029-0.089 0.057-0.138 0.083l-0.007 0.003c-0.407-0.316-0.611-1.35-0.352-1.857z"></path>
<path d="M23.373 19.45c0.212 0.227 0.262 0.468 0.152 0.757-0.161 0.438-0.375 0.817-0.642 1.154l0.007-0.009c-0.188 0.234-0.365 0.474-0.56 0.729l-0.669-0.884c0.19-0.285 0.366-0.561 0.555-0.829 0.061-0.087 0.14-0.157 0.231-0.207l0.004-0.002c0.347-0.175 0.617-0.441 0.922-0.709z"></path>
<path d="M9.677 9.906q0.351 0.468 0.663 0.882c-0.207 0.293-0.403 0.585-0.608 0.864-0.051 0.071-0.116 0.129-0.191 0.17l-0.003 0.001c-0.344 0.172-0.626 0.423-0.906 0.702-0.191-0.172-0.272-0.371-0.203-0.62 0.116-0.408 0.292-0.764 0.523-1.079l-0.007 0.009c0.198-0.276 0.41-0.543 0.616-0.812 0.037-0.042 0.074-0.081 0.114-0.117l0.001-0.001z"></path>
<path d="M12.214 12.597l0.46 0.356c0.039 0.307 0.047 0.604 0.122 0.882s0.216 0.533 0.324 0.79c-0.026 0.027-0.037 0.049-0.053 0.054-0.363 0.101-0.727 0.201-1.112 0.307-0.045-0.055-0.085-0.116-0.118-0.182l-0.003-0.006c-0.133-0.316-0.21-0.683-0.21-1.068 0-0.016 0-0.031 0-0.047v0.002c0.016-0.457 0.217-0.817 0.59-1.089z"></path>
<path d="M19.938 22.675c0.372 0.324 0.608 0.686 0.824 1.059-0.788 0.791-1.916 0.732-2.579-0.334 0.306-0.070 0.627-0.114 0.925-0.221s0.587-0.247 0.83-0.505z"></path>
<path d="M13.86 8.604c-0.695 0.048-1.308 0.198-1.777 0.685-0.293-0.182-0.706-0.72-0.838-1.087 0.238-0.24 0.553-0.405 0.904-0.454l0.008-0.001c0.545-0.082 1.023 0.037 1.377 0.499 0.088 0.115 0.193 0.215 0.325 0.359z"></path>
<path d="M19.771 19.391l-0.44-0.346c-0.043-0.298-0.059-0.602-0.138-0.89-0.074-0.276-0.212-0.534-0.323-0.8 0.367-0.172 1.003-0.332 1.236-0.3 0.196 0.498 0.346 1.014 0.204 1.57-0.080 0.311-0.263 0.558-0.539 0.766z"></path>
<path d="M18.806 24.619c-0.282 0.105-0.541 0.21-0.807 0.3-0.058 0.024-0.126 0.037-0.197 0.037-0.115 0-0.221-0.036-0.308-0.097l0.002 0.001c-0.219-0.147-0.41-0.301-0.587-0.47l0.002 0.002c-0.238-0.243-0.265-0.557-0.176-0.872 0.045-0.164 0.138-0.315 0.207-0.465 0.468 0.111 1.415 0.906 1.863 1.563z"></path>
<path d="M13.175 7.375c0.327-0.117 0.623-0.234 0.924-0.335 0.039-0.013 0.084-0.021 0.13-0.021 0.088 0 0.169 0.028 0.236 0.075l-0.001-0.001c0.153 0.103 0.306 0.207 0.451 0.32 0.559 0.437 0.447 1.133 0.067 1.518-0.709-0.368-1.288-0.885-1.807-1.556z"></path>
<path d="M25.134 22.254c-0.327-0.227-0.662-0.44-0.974-0.683-0.24-0.188-0.336-0.442-0.212-0.752 0.082-0.204 0.098-0.434 0.257-0.644 0.086 0.021 0.161 0.050 0.232 0.087l-0.006-0.003c0.259 0.175 0.561 0.308 0.886 0.383l0.018 0.004c0.095 0.022 0.194 0.036 0.229 0.151-0.023 0.293-0.29 1.213-0.43 1.456z"></path>
<path d="M7.772 11.865c-0.433-0.33-0.893-0.474-1.371-0.602 0.092-0.558 0.28-1.034 0.41-1.565 0.147 0.098 0.258 0.17 0.366 0.246 0.214 0.151 0.433 0.297 0.637 0.459 0.279 0.221 0.332 0.439 0.215 0.771-0.044 0.128-0.079 0.259-0.125 0.387-0.029 0.086-0.073 0.172-0.132 0.303z"></path>
<path d="M10.196 5.794c-0.166-0.125-0.285-0.306-0.327-0.514l-0.001-0.005c-0.034-0.166-0.060-0.365-0.072-0.567l-0.001-0.011c-0.002-0.024-0.003-0.051-0.003-0.079 0-0.238 0.082-0.457 0.219-0.631l-0.002 0.002c0.2-0.276 0.457-0.498 0.754-0.655l0.012-0.006c0.173-0.088 0.347-0.176 0.516-0.269 0.084-0.048 0.185-0.076 0.293-0.076 0.070 0 0.137 0.012 0.2 0.034l-0.004-0.001c-0.018 0.041-0.039 0.077-0.065 0.108l0.001-0.001c-0.702 0.606-1.054 1.401-1.237 2.288-0.015 0.076-0.035 0.152-0.055 0.227-0.029 0.108-0.101 0.162-0.228 0.156z"></path>
<path d="M20.183 28.961c0.083-0.091 0.129-0.15 0.184-0.202 0.528-0.496 0.908-1.144 1.072-1.874l0.005-0.025c0.035-0.152 0.080-0.301 0.107-0.454 0.022-0.117 0.087-0.188 0.205-0.245 0.205 0.141 0.346 0.363 0.377 0.619v0.004c0.020 0.125 0.032 0.251 0.049 0.375 0.009 0.053 0.014 0.114 0.014 0.176 0 0.287-0.111 0.548-0.292 0.742l0.001-0.001c-0.242 0.27-0.51 0.506-0.85 0.649-0.125 0.053-0.243 0.122-0.363 0.185-0.143 0.074-0.291 0.092-0.508 0.050z"></path>
<path d="M12.353 9.525c0.046-0.159 0.16-0.238 0.274-0.308 0.369-0.237 0.82-0.378 1.303-0.378 0.040 0 0.081 0.001 0.121 0.003h-0.006c0.081 0.003 0.156 0.027 0.22 0.067l-0.002-0.001c0.368 0.237 0.731 0.481 1.122 0.74l-0.5 0.023c-0.423 0.013-0.823 0.088-1.2 0.216l0.029-0.009c-0.528 0.183-0.973 0.013-1.362-0.354z"></path>
<path d="M19.646 22.515c-0.52 0.497-1.132 0.663-1.815 0.615-0.41-0.27-0.815-0.536-1.244-0.819 0.095-0.005 0.162-0.013 0.229-0.010 0.491 0.027 0.964-0.069 1.435-0.197 0.121-0.038 0.261-0.060 0.406-0.060 0.306 0 0.59 0.098 0.821 0.265l-0.004-0.003c0.042 0.029 0.078 0.059 0.111 0.093v0c0.023 0.034 0.043 0.072 0.059 0.113l0.001 0.004z"></path>
<path d="M17.361 1.125c-0.042 0.118-0.14 0.206-0.261 0.234h-0.002c-0.306 0.101-1.107 0.148-1.445 0.084-0.306-0.282-0.343-0.662-0.091-0.982 0.151-0.19 0.349-0.336 0.576-0.421l0.009-0.003c0.234-0.088 0.555-0.022 0.615 0.299 0.044 0.241 0.186 0.422 0.373 0.574 0.080 0.064 0.15 0.145 0.227 0.216z"></path>
<path d="M14.614 30.827c0.122-0.146 0.3-0.242 0.5-0.255h0.002c0.3-0.033 0.602-0.042 0.902-0.070 0.465-0.044 0.67 0.296 0.544 0.725-0.122 0.416-0.456 0.644-0.857 0.761-0.181 0.053-0.405-0.085-0.45-0.286-0.063-0.286-0.228-0.487-0.444-0.664-0.070-0.066-0.135-0.135-0.195-0.208l-0.003-0.004z"></path>
<path d="M21.189 7.568c-0.087 0.047-0.193 0.095-0.303 0.136l-0.019 0.006c-0.222 0.068-0.448 0.124-0.674 0.182-0.43 0.111-0.591 0.059-0.85-0.3-0.172-0.244-0.437-0.412-0.742-0.452l-0.005-0.001c-0.067-0.010-0.137 0-0.203-0.015-0.111-0.025-0.219-0.062-0.333-0.095v-0.234c0.026-0.020 0.055-0.040 0.085-0.057l0.003-0.002c0.19-0.078 0.381-0.030 0.574-0.004 0.718 0.092 1.362 0.236 1.982 0.431l-0.080-0.022c0.141 0.044 0.257 0.089 0.37 0.141l-0.019-0.008c0.123 0.043 0.21 0.157 0.213 0.291v0z"></path>
<path d="M10.785 24.416c0.061-0.038 0.132-0.074 0.205-0.103l0.009-0.003q0.448-0.125 0.902-0.234c0.275-0.067 0.512-0.036 0.687 0.234 0.15 0.23 0.348 0.424 0.627 0.498 0.14 0.037 0.288 0.045 0.43 0.076 0.1 0.022 0.197 0.059 0.309 0.094-0.013 0.1-0.023 0.176-0.030 0.234-0.172 0.109-0.341 0.098-0.502 0.073-0.778-0.122-1.551-0.269-2.297-0.527-0.149-0.056-0.291-0.122-0.339-0.341z"></path>
<path d="M9.162 4.135h0.376c0.021 0.355 0.014 0.696 0.066 1.027 0.050 0.322 0.161 0.635 0.255 0.987l-0.811 0.541c-0.157-0.047-0.181-0.152-0.201-0.258-0.043-0.213-0.068-0.457-0.068-0.708 0-0.334 0.044-0.657 0.127-0.965l-0.006 0.026c0.060-0.224 0.089-0.461 0.263-0.65z"></path>
<path d="M13.888 10.175c0.564-0.449 2.002-0.478 2.954 0.211-0.013 0.022-0.022 0.059-0.040 0.064-0.474 0.144-0.951 0.271-1.446 0.315-0.028 0.002-0.061 0.003-0.095 0.003-0.192 0-0.375-0.039-0.542-0.108l0.009 0.003q-0.286-0.108-0.569-0.224c-0.119-0.048-0.228-0.109-0.272-0.265z"></path>
<path d="M18.1 21.862c-0.672 0.501-2.301 0.367-2.955-0.239 0.049-0.023 0.112-0.049 0.177-0.071l0.014-0.004c0.272-0.076 0.541-0.159 0.816-0.219 0.425-0.093 0.847-0.117 1.253 0.094 0.146 0.075 0.306 0.123 0.46 0.184 0.119 0.036 0.209 0.133 0.235 0.254v0.002z"></path>
<path d="M23.006 25.262c0.337 0.574 0.213 2.052-0.187 2.569h-0.361c-0.023-0.351-0.019-0.685-0.071-1.008s-0.16-0.636-0.251-0.98z"></path>
<path d="M6.553 24.33c0.043-0.014 0.092-0.021 0.142-0.021 0.132 0 0.252 0.053 0.339 0.139v0c0.289 0.26 0.578 0.521 0.845 0.802 0.139 0.146 0.28 0.267 0.475 0.32 0.296 0.082 0.547 0.25 0.792 0.426s0.368 0.415 0.428 0.722c-0.094 0.032-0.203 0.050-0.316 0.050-0.2 0-0.386-0.058-0.543-0.157l0.004 0.002c-0.402-0.238-0.773-0.523-1.002-0.952-0.192-0.37-0.466-0.673-0.8-0.895l-0.009-0.005c-0.1-0.068-0.187-0.143-0.264-0.227l-0.001-0.001c-0.040-0.046-0.052-0.115-0.090-0.201z"></path>
<path d="M22.391 5.237c0.421-0.051 0.772 0.006 1.079 0.246 0.169 0.132 0.333 0.27 0.488 0.418 0.085 0.087 0.163 0.183 0.23 0.286l0.004 0.007c0.122 0.176 0.231 0.361 0.351 0.536 0.134 0.193 0.303 0.353 0.498 0.473l0.007 0.004c0.11 0.072 0.206 0.15 0.292 0.239v0c0.041 0.042 0.053 0.113 0.080 0.176-0.191 0.102-0.332 0.021-0.446-0.081-0.289-0.259-0.576-0.522-0.841-0.805-0.138-0.148-0.272-0.265-0.472-0.316-0.336-0.085-0.624-0.272-0.89-0.486-0.199-0.165-0.295-0.4-0.382-0.697z"></path>
<path d="M14.473 13.552l0.123-0.101c0.117 0.095 0.231 0.181 0.339 0.276 0.307 0.28 0.678 0.496 1.088 0.623l0.020 0.005c0.138 0.040 0.296 0.062 0.459 0.062 0.113 0 0.224-0.011 0.332-0.032l-0.011 0.002c0.112-0.019 0.228-0.022 0.33-0.030 0.238 0.359 0.286 1.084 0.097 1.386-0.064-0.039-0.132-0.074-0.192-0.117q-1.151-0.851-2.3-1.703c-0.126-0.095-0.252-0.187-0.284-0.371z"></path>
<path d="M23.634 21.49c0.229 0.197 0.44 0.402 0.674 0.572 0.224 0.164 0.473 0.293 0.729 0.451-0.171 0.39-0.384 0.723-0.574 1.096-0.078-0.059-0.134-0.092-0.181-0.136-0.283-0.272-0.527-0.582-0.722-0.923l-0.011-0.020c-0.037-0.065-0.075-0.143-0.107-0.224l-0.005-0.013c-0.037-0.073-0.059-0.159-0.059-0.251 0-0.135 0.047-0.258 0.126-0.355l-0.001 0.001c0.046-0.061 0.082-0.128 0.13-0.198z"></path>
<path d="M7.532 8.38c0.212 0.14 0.389 0.314 0.527 0.516l0.004 0.006c0.134 0.173 0.269 0.37 0.393 0.575l0.016 0.029c0.226 0.388 0.19 0.605-0.153 0.985-0.358-0.412-0.8-0.742-1.301-0.964l-0.024-0.009c-0.016-0.248 0.151-0.405 0.238-0.591s0.191-0.355 0.299-0.547z"></path>
<path d="M21.303 12.898c0.494 0.287 1.083 1.015 1.116 1.366-0.41 0.383-1.441 0.263-1.804-0.196 0.022-0.089 0.052-0.167 0.090-0.24l-0.003 0.006c0.070-0.099 0.144-0.187 0.225-0.267v0c0.129-0.137 0.228-0.304 0.285-0.49l0.002-0.009c0.027-0.066 0.057-0.122 0.091-0.175l-0.002 0.004z"></path>
<path d="M10.745 8.884c-0.085 0.396-0.167 0.778-0.263 1.224-0.728-0.846-1.263-1.718-1.501-2.764 0.106-0.051 0.15 0.018 0.201 0.073 0.22 0.234 0.431 0.477 0.661 0.699 0.203 0.195 0.427 0.368 0.644 0.55z"></path>
<path d="M11.399 17.932c-0.050 0.092-0.083 0.196-0.15 0.27-0.224 0.246-0.444 0.491-0.516 0.829-0.004 0.015-0.029 0.024-0.044 0.036-0.41-0.199-1.057-0.974-1.123-1.346 0.446-0.389 1.388-0.301 1.834 0.211z"></path>
<path d="M21.248 23.095c0.071-0.361 0.14-0.71 0.213-1.058 0.007-0.033 0.040-0.059 0.061-0.090 0.527 0.361 1.357 1.904 1.477 2.772-0.084-0.064-0.159-0.13-0.229-0.201v0c-0.395-0.471-0.831-0.886-1.31-1.246l-0.020-0.014c-0.062-0.046-0.118-0.099-0.192-0.162z"></path>
<path d="M24.534 6.252c0.042-0.029 0.094-0.047 0.15-0.047s0.108 0.018 0.151 0.048l-0.001-0.001c0.157 0.092 0.291 0.184 0.418 0.284l-0.008-0.006c0.394 0.333 0.779 0.677 1.171 1.013 0.076 0.069 0.163 0.13 0.256 0.178l0.007 0.003c0.085 0.046 0.187 0.073 0.294 0.073s0.209-0.027 0.298-0.075l-0.003 0.002c0.194-0.101 0.293-0.248 0.282-0.468 0.004-0.030 0.015-0.057 0.031-0.081v0.001c0.003-0.007 0.016-0.009 0.046-0.026 0.023 0.027 0.063 0.054 0.077 0.091 0.030 0.075 0.048 0.162 0.048 0.254 0 0.339-0.243 0.621-0.564 0.682l-0.004 0.001c-0.132 0.027-0.266 0.043-0.402 0.064-0.042 0.105-0.084 0.193-0.112 0.284-0.188 0.636-0.828 0.653-1.218 0.27 0.061-0.003 0.131-0.005 0.203-0.005s0.142 0.002 0.213 0.006h-0.010c0.351 0.037 0.589-0.27 0.556-0.592s-0.159-0.585-0.415-0.774c-0.273-0.203-0.56-0.387-0.838-0.585-0.149-0.095-0.278-0.19-0.4-0.294l0.005 0.004c-0.082-0.090-0.157-0.189-0.224-0.295l-0.005-0.009z"></path>
<path d="M10.884 8.364c-0.133 0.107-0.244 0.053-0.345-0.030q-0.468-0.39-0.932-0.788c-0.098-0.082-0.186-0.169-0.267-0.262l-0.002-0.003c-0.088-0.104-0.164-0.219-0.122-0.41 0.254-0.155 0.531-0.331 0.814-0.496 0.109-0.063 0.117-0.052 0.299-0.005 0.059 0.341 0.094 0.689 0.186 1.021s0.243 0.645 0.369 0.973z"></path>
<path d="M22.783 25.086c-0.29 0.229-0.621 0.429-0.975 0.584l-0.029 0.011c-0.114-0.022-0.163-0.078-0.163-0.166 0.004-0.657-0.21-1.256-0.496-1.834-0.008-0.015 0-0.037 0-0.068 0.041-0.024 0.091-0.038 0.144-0.038 0.076 0 0.146 0.029 0.198 0.077v0c0.382 0.33 0.766 0.656 1.141 0.992 0.112 0.090 0.183 0.227 0.183 0.381 0 0.021-0.001 0.042-0.004 0.063v-0.002z"></path>
<path d="M14.748 16.301c0.324 0.245 0.644 0.498 0.976 0.732 0.497 0.358 1 0.706 1.5 1.059 0.135 0.095 0.265 0.197 0.293 0.385-0.093 0.117-0.182 0.078-0.272 0-0.139-0.121-0.276-0.245-0.42-0.36-0.25-0.193-0.544-0.344-0.863-0.435l-0.018-0.005c-0.122-0.039-0.261-0.061-0.406-0.061-0.090 0-0.179 0.009-0.264 0.025l0.009-0.001c-0.15 0.028-0.306 0.029-0.481 0.043-0.183-0.459-0.193-0.906-0.132-1.359z"></path>
<path d="M6.544 23.197c-0.172-0.008-0.316-0.022-0.459-0.021-0.26 0-0.388 0.107-0.468 0.351-0.070 0.21-0.026 0.403 0.059 0.594 0.082 0.194 0.212 0.354 0.375 0.47l0.003 0.002c0.273 0.187 0.549 0.369 0.827 0.549 0.23 0.15 0.445 0.312 0.558 0.578-0.096 0.080-0.194 0.046-0.278 0.009-0.104-0.045-0.194-0.101-0.274-0.168l0.002 0.001c-0.445-0.378-0.884-0.761-1.326-1.143-0.029-0.025-0.059-0.051-0.089-0.076-0.302-0.248-0.742-0.252-0.999 0.147l-0.062 0.362c-0.063-0.064-0.113-0.093-0.129-0.135-0.027-0.070-0.042-0.151-0.042-0.236 0-0.304 0.198-0.562 0.472-0.652l0.005-0.001c0.133-0.035 0.3-0.066 0.47-0.088l0.021-0.002c0.034-0.085 0.079-0.189 0.117-0.293 0.206-0.567 0.755-0.691 1.218-0.25z"></path>
<path d="M9.241 9.149c-0.14 0.348-0.169 0.389-0.363 0.527-0.385-0.543-0.769-1.086-1.142-1.613 0.154-0.404 0.41-0.702 0.697-0.808 0.172 0.299 0.234 0.644 0.378 0.96s0.284 0.618 0.43 0.934z"></path>
<path d="M10.847 5.713c-0.012-0.358 0.027-0.723 0.242-1.073 0.455-0.015 0.872 0.048 1.184 0.351v1.179z"></path>
<path d="M22.757 22.807c0.065-0.199 0.164-0.38 0.351-0.506l1.147 1.62c-0.124 0.351-0.351 0.596-0.647 0.838-0.058-0.078-0.112-0.166-0.159-0.259l-0.005-0.011c-0.080-0.199-0.135-0.41-0.217-0.605-0.147-0.351-0.304-0.696-0.471-1.078z"></path>
<path d="M20.805 27.377c-0.606-0.077-0.93-0.204-1.090-0.4v-1.163c0.062 0.018 0.112 0.031 0.162 0.047 0.376 0.123 0.733 0.31 1.138 0.337 0.035 0 0.067 0.033 0.096 0.048 0.083 0.446-0.041 0.918-0.306 1.131z"></path>
<path d="M19.171 31.071c-0.257-0.186-0.521-0.365-0.773-0.56-0.191-0.149-0.164-0.41 0.043-0.536 0.035-0.019 0.078-0.040 0.123-0.059l0.009-0.003q0.369-0.172 0.738-0.342c0.258-0.121 0.392-0.063 0.488 0.21 0.179 0.512-0.108 1.103-0.629 1.29z"></path>
<path d="M14.561 26.99l0.19-0.144c0.747 0.059 1.442 0.276 2.125 0.632-0.040 0.050-0.068 0.117-0.117 0.142-0.364 0.197-0.742 0.335-1.168 0.234-0.217-0.052-0.439-0.086-0.656-0.141-0.378-0.098-0.491-0.312-0.374-0.722z"></path>
<path d="M17.435 4.991l-0.2 0.16c-0.761-0.037-1.446-0.287-2.129-0.626 0.042-0.059 0.088-0.111 0.141-0.156l0.001-0.001c0.23-0.152 0.513-0.243 0.817-0.243 0.044 0 0.089 0.002 0.132 0.006h-0.006c0.326 0.037 0.618 0.092 0.902 0.168l-0.043-0.010c0.362 0.087 0.478 0.299 0.385 0.703z"></path>
<path d="M12.85 0.926c0.241 0.181 0.442 0.351 0.66 0.492 0.172 0.112 0.24 0.245 0.169 0.486-0.073 0.052-0.158 0.105-0.245 0.153l-0.013 0.006c-0.244 0.117-0.494 0.224-0.74 0.338-0.262 0.122-0.392 0.070-0.488-0.202-0.163-0.461 0.087-1.059 0.527-1.253 0.039-0.012 0.084-0.019 0.131-0.019v0z"></path>
<path d="M6.242 12.819c-0.030-0.117-0.080-0.207-0.071-0.293 0.035-0.327 0.089-0.651 0.141-1.008 0.102 0.016 0.183 0.009 0.244 0.042 0.282 0.15 0.562 0.306 0.836 0.468 0.185 0.111 0.18 0.117 0.272 0.368-0.036 0.181-0.074 0.369-0.111 0.548-0.137 0.091-0.262 0.059-0.38 0.021-0.287-0.088-0.572-0.181-0.93-0.146z"></path>
<path d="M24.442 18.965c0.481 0.004 0.869 0.28 1.326 0.207 0.122 0.488-0.028 0.894-0.132 1.299-0.054 0-0.078 0.012-0.092 0.004q-0.508-0.285-1.013-0.575c-0.109-0.060-0.182-0.174-0.182-0.305 0-0.024 0.003-0.048 0.007-0.071v0.002c0.026-0.172 0.053-0.343 0.086-0.562z"></path>
<path d="M13.015 28.915c-0.094 0.234-0.176 0.472-0.283 0.698-0.046 0.1-0.146 0.169-0.261 0.169-0.030 0-0.059-0.005-0.086-0.013l0.002 0.001c-0.347-0.092-0.691-0.194-1.030-0.31-0.176-0.059-0.208-0.181-0.121-0.348 0.096-0.196 0.244-0.354 0.425-0.461l0.005-0.003c0.076-0.045 0.168-0.072 0.267-0.072 0.023 0 0.045 0.001 0.067 0.004h-0.003c0.312 0.066 0.618 0.163 0.925 0.252 0.032 0.006 0.056 0.046 0.093 0.084z"></path>
<path d="M15.787 21.097c-0.016 0.021-0.030 0.053-0.053 0.064-0.306 0.159-0.663 0.27-1.040 0.311l-0.013 0.001c-0.006 0-0.013 0-0.020 0-0.075 0-0.146-0.019-0.209-0.052l0.002 0.001c-0.445-0.219-0.888-0.444-1.33-0.668-0.015-0.008-0.023-0.030-0.053-0.072 0.1-0.043 0.225-0.087 0.353-0.122l0.022-0.005c0.387-0.080 0.769-0.080 1.15 0.059 0.31 0.113 0.632 0.196 0.946 0.299 0.098 0.034 0.22 0.045 0.246 0.184z"></path>
<path d="M18.968 3.033c0.155-0.245 0.184-0.558 0.404-0.819 0.492 0 0.932 0.204 1.373 0.347 0.023 0.054 0.046 0.082 0.044 0.108-0.022 0.454-0.546 0.824-0.975 0.692-0.195-0.059-0.393-0.112-0.589-0.167-0.119-0.032-0.123-0.032-0.257-0.159z"></path>
<path d="M18.914 11.266c-0.146 0.139-0.328 0.14-0.498 0.176-0.116 0.027-0.249 0.042-0.385 0.042-0.192 0-0.376-0.031-0.549-0.087l0.012 0.004c-0.332-0.112-0.667-0.215-0.999-0.326-0.097-0.033-0.19-0.080-0.314-0.132 0.059-0.073 0.088-0.135 0.131-0.15 0.293-0.101 0.588-0.202 0.888-0.281 0.031-0.007 0.066-0.011 0.102-0.011 0.076 0 0.148 0.017 0.213 0.047l-0.003-0.001c0.423 0.198 0.838 0.41 1.255 0.622 0.057 0.033 0.104 0.065 0.15 0.099l-0.004-0.003z"></path>
<path d="M18.962 2.147c0.027 0.387-0.095 0.673-0.389 0.896l-1.083-0.221c-0.205-0.287 0.005-0.611-0.032-0.907 0.132-0.117 0.263-0.091 0.383-0.073 0.287 0.046 0.573 0.098 0.856 0.164 0.097 0.023 0.181 0.095 0.264 0.141z"></path>
<path d="M18.869 28.41c0.658 0.266 0.756 0.321 0.873 0.513-0.045 0.059-0.092 0.112-0.144 0.16l-0.001 0.001c-0.136 0.11-0.289 0.201-0.418 0.318-0.351 0.32-1.165 0.204-1.471-0.283-0.013-0.031-0.024-0.068-0.030-0.105v-0.003z"></path>
<path d="M13.381 28.966c0.394 0 0.761 0.145 1.155 0.2 0.085 0.331 0.043 0.637-0.034 0.937-0.234 0.085-0.443 0.007-0.65-0.025-0.181-0.027-0.362-0.067-0.541-0.107-0.234-0.052-0.307-0.157-0.282-0.388s0.104-0.374 0.352-0.616z"></path>
<path d="M12.186 3.119c0.317-0.316 0.58-0.609 0.952-0.691 0.079-0.021 0.169-0.033 0.262-0.033 0.339 0 0.641 0.158 0.837 0.403l0.002 0.002c0.022 0.029 0.042 0.061 0.057 0.096l0.001 0.003c0.006 0.021 0.010 0.045 0.011 0.069v0.001c-0.354 0.224-0.803 0.287-1.12 0.619z"></path>
<path d="M10.11 30.223c-0.074-0.308 0-0.619-0.122-0.897-0.112-0.005-0.143 0.051-0.117 0.128 0.070 0.225 0.004 0.445-0.019 0.666-0.010 0.039-0.024 0.073-0.043 0.104l0.001-0.002c-0.247-0.045-0.596-0.259-0.769-0.476 0.1-0.106 0.221-0.202 0.299-0.326s0.117-0.282 0.184-0.445c0.086 0.007 0.166 0.021 0.243 0.042l-0.009-0.002c0.1 0.042 0.185 0.086 0.266 0.137l-0.007-0.004c0.227 0.131 0.45 0.27 0.678 0.397 0.301 0.168 0.362 0.351 0.196 0.697-0.256 0.1-0.52 0.126-0.781-0.018z"></path>
<path d="M21.147 1.716c0.367-0.046 0.458-0.042 0.739 0.039 0.019 0.146 0.044 0.306 0.059 0.468 0.011 0.106 0 0.215 0.019 0.32 0.009 0.053 0.059 0.099 0.093 0.149l0.059-0.018c-0.014-0.123-0.021-0.265-0.021-0.409 0-0.011 0-0.021 0-0.032v0.002c0.018-0.176 0.043-0.33 0.075-0.481l-0.005 0.029c0.269 0.006 0.542 0.16 0.791 0.447-0.101 0.106-0.224 0.202-0.303 0.325s-0.109 0.267-0.172 0.431c-0.009 0-0.020 0-0.030 0-0.077 0-0.151-0.009-0.223-0.025l0.007 0.001c-0.108-0.049-0.2-0.1-0.287-0.158l0.007 0.004c-0.219-0.124-0.434-0.255-0.658-0.37-0.304-0.157-0.371-0.441-0.15-0.723z"></path>
<path d="M12.933 3.878l-0.563 0.871c-0.338-0.27-0.773-0.24-1.159-0.347 0.041-0.4 0.392-0.852 0.695-0.926 0.065-0.015 0.14-0.024 0.217-0.024 0.335 0 0.63 0.167 0.808 0.423l0.002 0.003z"></path>
<path d="M19.051 28.091c0.196-0.296 0.383-0.578 0.585-0.882 0.316 0.33 0.768 0.234 1.138 0.382-0.039 0.372-0.371 0.819-0.663 0.901-0.375 0.106-0.826-0.061-1.061-0.4z"></path>
<path d="M12.234 0.948c-0.102 0.293-0.226 0.54-0.27 0.8s0 0.517 0.004 0.804c0 0-0.012 0.035-0.035 0.041-0.277 0.071-0.557 0.088-0.814-0.064-0.21-0.125-0.268-0.322-0.183-0.552 0.103-0.271 0.285-0.492 0.518-0.641l0.005-0.003c0.203-0.132 0.418-0.244 0.629-0.361 0.043-0.013 0.092-0.022 0.143-0.025h0.001z"></path>
<path d="M19.797 31.037c0.008-0.095-0.006-0.169 0.022-0.218 0.247-0.417 0.277-0.861 0.179-1.323-0.004-0.017 0.007-0.037 0.011-0.059 0.325-0.225 0.805-0.117 1.063 0.239 0.059 0.248-0.047 0.461-0.196 0.644-0.276 0.338-0.647 0.541-1.079 0.716z"></path>
<path d="M17.115 29.11c0.234 0.173 0.441 0.318 0.64 0.472 0.041 0.042 0.077 0.091 0.104 0.144l0.002 0.003c-0.016 0.148-0.109 0.199-0.211 0.241-0.233 0.090-0.504 0.151-0.785 0.169h-0.008c-0.016 0.002-0.034 0.003-0.053 0.003-0.146 0-0.276-0.063-0.366-0.164v0c-0.191-0.2-0.335-0.417-0.301-0.736 0.18-0.029 0.34-0.059 0.502-0.080s0.327-0.036 0.479-0.052z"></path>
<path d="M15.849 2.727c-0.060 0.023-0.133 0.045-0.209 0.061l-0.010 0.002c-0.259 0.029-0.519 0.051-0.761 0.075-0.234-0.176-0.451-0.333-0.662-0.502-0.045-0.036-0.059-0.11-0.088-0.162 0.081-0.118 0.202-0.202 0.344-0.233l0.004-0.001c0.187-0.049 0.376-0.093 0.567-0.126 0.036-0.008 0.078-0.013 0.121-0.013 0.193 0 0.364 0.095 0.469 0.24l0.001 0.002c0.141 0.188 0.265 0.379 0.224 0.657z"></path>
<path d="M7.44 14.316c-0.336 0.092-0.635-0.169-0.979-0.080-0.213-0.371-0.148-0.769-0.268-1.124 0.062-0.037 0.137-0.059 0.217-0.059 0.057 0 0.111 0.011 0.161 0.031l-0.003-0.001c0.284 0.090 0.565 0.188 0.859 0.286 0.097 0.199 0.108 0.684 0.012 0.947z"></path>
<path d="M25.629 17.84c0.015 0.351 0.156 0.68 0.133 1.043-0.18 0.073-0.335 0.004-0.489-0.041-0.222-0.065-0.442-0.139-0.71-0.224-0.159-0.281-0.062-0.612-0.046-0.934 0.21-0.050 0.79 0.032 1.111 0.155z"></path>
<path d="M23.61 16.395c0.401 1.009 0.413 2.011 0.1 3.063-0.17-0.234-0.282-0.461-0.228-0.702 0.121-0.542-0.040-1.040-0.185-1.545-0.028-0.078-0.059-0.181-0.084-0.286l-0.004-0.022c-0.044-0.244 0.101-0.439 0.402-0.508z"></path>
<path d="M8.367 15.557c-0.391-1.002-0.41-1.995-0.073-3.022 0.18 0.24 0.26 0.492 0.207 0.761-0.095 0.479 0.012 0.927 0.155 1.376 0.043 0.116 0.084 0.257 0.114 0.403l0.003 0.019c0.046 0.256-0.11 0.438-0.407 0.463z"></path>
<path d="M16.871 0.081c0.118-0.018 0.253-0.028 0.392-0.028 0.331 0 0.649 0.059 0.942 0.168l-0.019-0.006c0.212 0.080 0.357 0.266 0.449 0.476 0.027 0.063 0.015 0.142 0.022 0.238-0.359 0.027-0.687 0.082-1.012 0.068-0.304-0.012-0.508-0.227-0.638-0.492-0.062-0.126-0.088-0.272-0.136-0.425z"></path>
<path d="M15.099 31.895c-0.459 0.049-0.903 0.028-1.321-0.151-0.197-0.092-0.349-0.255-0.424-0.454l-0.002-0.006c-0.025-0.064-0.017-0.141-0.027-0.239l0.376-0.032c0.117-0.010 0.234-0.011 0.348-0.030 0.372-0.064 0.629 0.012 0.906 0.431 0.090 0.125 0.144 0.282 0.144 0.451 0 0.011 0 0.021-0.001 0.032v-0.002z"></path>
<path d="M15.883 1.97c0.080-0.123 0.212-0.205 0.365-0.215h0.001c0.444-0.038 0.686-0.009 0.878 0.112 0.128 0.293 0.117 0.594-0.012 0.926-0.311 0.015-0.626 0.015-0.973 0-0.014-0.304-0.269-0.516-0.259-0.824z"></path>
<path d="M5.842 21.153c-0.025 0.111-0.073 0.173-0.221 0.136-0.698-0.825-1.271-1.748-1.555-2.835 0.109-0.037 0.234-0.059 0.364-0.059 0.153 0 0.3 0.030 0.434 0.084l-0.008-0.003c-0.018 0.117-0.028 0.242-0.059 0.362-0.121 0.512 0.016 0.968 0.308 1.381 0.191 0.27 0.41 0.52 0.616 0.779 0.044 0.053 0.084 0.107 0.12 0.155z"></path>
<path d="M26.162 10.828c0.026-0.049 0.059-0.111 0.091-0.172 0.053 0.014 0.091 0.012 0.107 0.030 0.133 0.154 0.274 0.304 0.392 0.468 0.491 0.683 0.901 1.408 1.147 2.218 0.016 0.054 0.024 0.11 0.039 0.181-0.112 0.016-0.24 0.025-0.371 0.025s-0.26-0.009-0.386-0.026l0.015 0.002c-0.108-0.13-0.036-0.243-0.012-0.351 0.033-0.126 0.052-0.27 0.052-0.418s-0.019-0.293-0.054-0.43l0.003 0.012c-0.059-0.231-0.16-0.432-0.295-0.606l0.003 0.004z"></path>
<path d="M14.865 29.226h0.987c0 0.302 0.299 0.502 0.246 0.844-0.341 0.263-0.739 0.101-1.119 0.151-0.263-0.303-0.231-0.625-0.114-0.995z"></path>
<path d="M25.447 17.471c-0.273 0.073-0.518-0.018-0.761-0.059-0.061-0.010-0.126-0.090-0.162-0.153-0.132-0.229-0.176-0.771-0.091-1.059 0.146-0.123 0.323-0.091 0.487-0.091 0.278 0.225 0.577 0.986 0.527 1.362z"></path>
<path d="M7.405 14.609c0.223 0.423 0.269 0.885 0.114 1.229l-0.493 0.042c-0.308-0.404-0.44-0.851-0.541-1.354 0.335-0.035 0.627-0.037 0.92 0.083z"></path>
<path d="M15.050 0.556c-0.132 0.040-0.21 0.067-0.289 0.087-0.138 0.024-0.253 0.052-0.365 0.085l0.024-0.006c-0.2 0.065-0.362 0.202-0.459 0.379l-0.002 0.004c-0.058 0.095-0.115 0.175-0.176 0.252l0.004-0.005c-0.326-0.176-0.548-0.423-0.78-0.65 0.020-0.037 0.022-0.049 0.030-0.053 0.45-0.253 0.987-0.404 1.559-0.41h0.002c0.185-0.006 0.283 0.148 0.453 0.317z"></path>
<path d="M18.171 30.679c0.234 0.034 0.599 0.323 0.808 0.635-0.12 0.102-0.266 0.177-0.427 0.214l-0.007 0.001c-0.242 0.070-0.488 0.129-0.734 0.184-0.293 0.066-0.561 0.026-0.783-0.194-0.012-0.014-0.021-0.031-0.028-0.049v-0.001c-0.001-0.009-0.002-0.019-0.002-0.029s0.001-0.020 0.002-0.030v0.001c0.065-0.030 0.141-0.055 0.22-0.071l0.007-0.001c0.41-0.039 0.711-0.237 0.892-0.611 0.008-0.015 0.025-0.026 0.053-0.050z"></path>
<path d="M17.657 27.312c0.075-0.112 0.194-0.19 0.332-0.208h0.002c0.376-0.040 0.753-0.076 1.13-0.111 0.054 0.001 0.107 0.007 0.157 0.017l-0.005-0.001c-0.040 0.287-0.165 0.539-0.348 0.737l0.001-0.001c-0.163 0.187-0.468 0.222-0.696 0.104s-0.468-0.207-0.561-0.476c-0.005-0.017-0.009-0.038-0.011-0.059v-0.002z"></path>
<path d="M12.687 4.983c0.14-0.414 0.26-0.774 0.681-0.904 0.072-0.022 0.166-0.050 0.226-0.022 0.289 0.133 0.606 0.239 0.738 0.592-0.064 0.117-0.178 0.2-0.313 0.22h-0.002c-0.392 0.063-0.851 0.104-1.318 0.115h-0.011z"></path>
<path d="M11.219 29.794c0.492 0.157 0.976 0.247 1.405 0.477-0.069 0.351-0.208 0.479-0.517 0.513-0.327 0.036-0.612-0.073-0.881-0.24-0.072-0.042-0.12-0.12-0.12-0.208 0-0.014 0.001-0.028 0.004-0.042v0.001c0.027-0.162 0.068-0.32 0.11-0.502z"></path>
<path d="M20.89 1.647c-0.034 0.149-0.072 0.317-0.109 0.478-0.286 0.023-1.074-0.217-1.381-0.41-0.019-0.257 0.117-0.451 0.372-0.484 0.301-0.039 0.599-0.020 0.878 0.122 0.123 0.052 0.213 0.16 0.24 0.291v0.003z"></path>
<path d="M9.394 3.661c0.087-0.468 0.731-1.316 1.121-1.485 0.040 0.126 0.059 0.262 0.125 0.371s0.176 0.172 0.275 0.268c-0.065 0.054-0.112 0.101-0.166 0.138-0.311 0.214-0.624 0.424-0.937 0.638-0.121 0.085-0.246 0.148-0.418 0.071z"></path>
<path d="M21.469 29.8c-0.059-0.293-0.059-0.293-0.392-0.635 0.051-0.050 0.105-0.097 0.161-0.14l0.004-0.003c0.33-0.221 0.666-0.434 0.991-0.661 0.063-0.052 0.145-0.083 0.234-0.083 0.039 0 0.077 0.006 0.113 0.017l-0.003-0.001c0.005 0.037 0.029 0.090 0.013 0.124-0.242 0.527-0.554 1.001-1.023 1.357-0.029 0.013-0.062 0.022-0.098 0.026h-0.001z"></path>
<path d="M15.369 1.499c-0.243 0.135-1.092 0.32-1.321 0.283-0.162-0.595 0.31-1.023 1.054-0.941z"></path>
<path d="M16.878 31.125c-0.085-0.218-0.164-0.424-0.253-0.654 0.193-0.132 0.439-0.139 0.666-0.189 0.217-0.048 0.436-0.158 0.666-0.089 0.092 0.648-0.357 1.034-1.078 0.932z"></path>
<path d="M18.719 25.579l0.555-0.141c0.194 0.396 0.186 0.774 0.109 1.151-0.303 0.18-0.336 0.186-0.664 0.106-0.179-0.351-0.246-0.714-0.001-1.116z"></path>
<path d="M13.253 5.272c0.11 0.174 0.175 0.386 0.175 0.613 0 0.056-0.004 0.111-0.012 0.164l0.001-0.006c-0.029 0.221-0.111 0.39-0.368 0.41-0.112 0.009-0.222 0.038-0.345 0.059-0.19-0.381-0.17-0.751-0.102-1.134 0.189-0.163 0.412-0.123 0.65-0.105z"></path>
<path d="M23.302 13.945c0.478 0.217 1.359 1.34 1.497 1.836-0.286 0.225-0.543 0.176-0.667-0.143-0.222-0.568-0.462-1.049-0.739-1.506l0.024 0.043c-0.044-0.073-0.077-0.153-0.115-0.229z"></path>
<path d="M8.626 18.087c-0.626-0.519-1.098-1.156-1.463-1.899 0.050-0.032 0.107-0.063 0.168-0.089l0.008-0.003c0.253-0.079 0.382-0.027 0.499 0.21 0.102 0.209 0.185 0.427 0.289 0.636 0.159 0.321 0.329 0.637 0.493 0.956 0.025 0.048 0.044 0.099 0.066 0.148z"></path>
<path d="M12.707 26.16l1.681 0.637c-0.048 0.152-0.095 0.303-0.139 0.444-0.54 0.060-1.356-0.5-1.542-1.082z"></path>
<path d="M17.866 26.861c-0.266-0.153-0.242-0.38-0.221-0.589 0.026-0.255 0.125-0.468 0.427-0.51 0.146-0.028 0.268-0.059 0.388-0.097l-0.024 0.006c-0.015 0.218-0.045 0.397-0.035 0.575s0.064 0.341 0.101 0.527c-0.201 0.117-0.424 0.083-0.636 0.089z"></path>
<path d="M19.284 5.814l-1.679-0.627c0.044-0.146 0.085-0.283 0.125-0.417 0.518-0.112 1.302 0.394 1.554 1.044z"></path>
<path d="M14.123 5.108c0.293 0.164 0.249 0.433 0.213 0.675-0.032 0.217-0.149 0.396-0.404 0.434-0.134 0.029-0.248 0.062-0.357 0.101l0.019-0.006c-0.092-0.204 0.040-0.38 0-0.557s-0.070-0.358-0.109-0.554c0.21-0.094 0.434-0.037 0.639-0.094z"></path>
<path d="M11.583 31.144c0.077-0.157 0.205-0.179 0.328-0.167 0.037 0.005 0.079 0.007 0.122 0.007 0.202 0 0.39-0.059 0.549-0.16l-0.004 0.002c0.087-0.054 0.218-0.037 0.32-0.052 0.21 0.248 0.34 0.481 0.234 0.814-0.095 0-0.188-0.007-0.28-0.019l0.011 0.001c-0.439-0.090-1.123-0.314-1.28-0.426z"></path>
<path d="M20.38 0.816c0.005 0.012 0.007 0.026 0.007 0.040 0 0.065-0.052 0.117-0.117 0.117-0.004 0-0.009 0-0.013-0.001h0.001c-0.371-0.029-0.702 0.093-1.025 0.249-0.015 0.007-0.038 0-0.059-0.004-0.277-0.18-0.366-0.382-0.335-0.769 0.081-0.081 0.182-0.059 0.272-0.033 0.41 0.117 0.819 0.234 1.229 0.358 0.016 0.005 0.026 0.027 0.040 0.042z"></path>
<path d="M27.662 14.005l0.4-0.078c0.234 0.713 0.249 1.434 0.373 2.149-0.166 0.030-0.316 0.051-0.451-0.059-0.074-0.16-0.013-0.314 0.043-0.452 0.121-0.293 0.077-0.568-0.047-0.844-0.099-0.222-0.195-0.44-0.317-0.716z"></path>
<path d="M4.314 17.98l-0.392 0.054c-0.203-0.702-0.265-1.395-0.369-2.104h0.453c0.015 0.062 0.024 0.134 0.025 0.208v0c-0.010 0.104-0.034 0.2-0.070 0.289l0.002-0.007c-0.117 0.28-0.088 0.55 0.033 0.819 0.071 0.159 0.146 0.317 0.217 0.477 0.031 0.068 0.057 0.14 0.101 0.263z"></path>
<path d="M11.836 26.581c0.155-0.282 0.303-0.351 0.606-0.332 0.214 0.227 0.394 0.457 0.613 0.644 0.21 0.176 0.46 0.307 0.682 0.476-0.647-0.219-1.313-0.385-1.901-0.788z"></path>
<path d="M11.923 12.386l-0.26 0.134c-0.21-0.194-0.397-0.41-0.625-0.566s-0.494-0.255-0.774-0.393l0.314-0.468z"></path>
<path d="M21.178 2.788l0.343 0.176c-0.055 0.15-0.1 0.275-0.142 0.39 0.026 0.204 0.189 0.394-0.014 0.618-0.306 0.023-0.501-0.23-0.77-0.357z"></path>
<path d="M11.395 28.364l-0.565 0.788c-0.144 0.012-0.254-0.050-0.358-0.184 0.131-0.221 0.211-0.458 0.025-0.694l0.092-0.277c0.337-0.011 0.543 0.215 0.805 0.366z"></path>
<path d="M20.407 19.504c0.308 0.468 0.791 0.702 1.333 0.899l-0.329 0.485-1.331-1.271c0.088-0.116 0.186-0.155 0.327-0.113z"></path>
<path d="M19.554 5.744c-0.209-0.234-0.374-0.468-0.585-0.644s-0.448-0.293-0.666-0.455c0.638 0.184 1.271 0.374 1.847 0.741-0.105 0.306-0.341 0.355-0.596 0.358z"></path>
<path d="M15.115 5.96c-0.204 0.020-0.404 0.117-0.617 0.063 0.018-0.303 0.035-0.585 0.052-0.875 0.253-0.075 0.41-0.074 0.64 0 0.084 0.311 0.062 0.541-0.075 0.812z"></path>
<path d="M17.451 26.849h-0.658c-0.066-0.289-0.069-0.558 0.062-0.839l0.652-0.092c-0.022 0.184-0.045 0.332-0.054 0.481s-0.002 0.287-0.002 0.45z"></path>
<path d="M19.087 1.691c-0.052 0.010-0.111 0.015-0.172 0.015-0.016 0-0.032 0-0.048-0.001h0.002c-0.43-0.076-0.858-0.158-1.288-0.241-0.022-0.005-0.039-0.036-0.064-0.059 0.021-0.027 0.034-0.059 0.056-0.068 0.232-0.12 0.506-0.19 0.796-0.19 0.099 0 0.196 0.008 0.291 0.024l-0.010-0.001c0.271 0.043 0.429 0.234 0.437 0.521z"></path>
<path d="M12.875 30.29c0.334-0.059 0.572 0.083 0.828 0.121s0.498 0.074 0.779 0.117c-0.037 0.059-0.053 0.117-0.082 0.124-0.198 0.064-0.454 0.128-0.714 0.179l-0.047 0.008c-0.287 0.047-0.509-0.096-0.68-0.316-0.046-0.056-0.053-0.136-0.084-0.233z"></path>
<path d="M11.688 19.875c0.351-0.040 0.972 0.102 1.624 0.369-0.041 0.043-0.069 0.092-0.111 0.114-0.078 0.045-0.169 0.080-0.265 0.102l-0.007 0.001c-0.102 0.018-0.229 0.042-0.313 0-0.293-0.148-0.576-0.324-0.861-0.491-0.022-0.011-0.033-0.046-0.067-0.095z"></path>
<path d="M20.274 12.094c-0.566 0.046-1.062-0.2-1.58-0.368 0.272-0.181 0.527-0.339 0.863-0.126 0.242 0.154 0.518 0.254 0.718 0.495z"></path>
<path d="M16.004 5.912h-0.541v-0.754h0.493c0.237 0.266 0.242 0.362 0.047 0.754z"></path>
<path d="M20.965 6.389c-0.117-0.141-0.226-0.285-0.347-0.421-0.091-0.102-0.198-0.189-0.288-0.293-0.028-0.032-0.023-0.092-0.048-0.213 0.577 0.399 1.072 0.778 1.493 1.271-0.207 0.047-0.267 0.024-0.81-0.345z"></path>
<path d="M16.534 26.859c-0.2 0.012-0.389 0.014-0.579-0.068-0.136-0.22-0.125-0.436 0.019-0.668l0.514-0.055c0.090 0.133 0.016 0.27 0.026 0.4s0.012 0.249 0.019 0.392z"></path>
<path d="M11.719 26.384c-0.348-0.006-1.266-0.785-1.463-1.177 0.171-0.074 0.261 0.085 0.383 0.132 0.144 0.061 0.263 0.122 0.378 0.189l-0.015-0.008c0.125 0.176 0.226 0.328 0.343 0.468s0.248 0.265 0.374 0.395z"></path>
<path d="M14.933 26.481c0.026-0.106 0.059-0.222 0.087-0.351h0.735c-0.049 0.187-0.094 0.362-0.145 0.553-0.232 0.042-0.452 0.026-0.677-0.202z"></path>
<path d="M17.020 5.437c0.042 0.166 0.017 0.293-0.097 0.41h-0.662c0.037-0.184 0.072-0.359 0.111-0.552 0.232-0.067 0.441 0.007 0.648 0.142z"></path>
<path d="M14.679 4.513c-0.117-0.087-0.222-0.171-0.332-0.247s-0.209-0.131-0.351-0.221c0.494 0.003 0.942-0.006 1.387 0.050z"></path>
<path d="M6.587 27.604c-0.019-0.030-0.031-0.067-0.031-0.106 0-0.013 0.001-0.026 0.004-0.038v0.001c0.011-0.186 0.133-0.293 0.328-0.293s0.321 0.107 0.332 0.289-0.094 0.303-0.283 0.343c-0.017 0.004-0.036 0.006-0.056 0.006-0.088 0-0.165-0.042-0.215-0.106v-0.001c-0.028-0.028-0.054-0.059-0.078-0.092l-0.002-0.002z"></path>
<path d="M25.384 4.356c0.013 0.037 0.020 0.079 0.020 0.123 0 0.058-0.013 0.113-0.036 0.162l0.001-0.002c-0.059 0.152-0.162 0.165-0.286 0.162-0.188-0.005-0.311-0.124-0.311-0.307s0.112-0.323 0.3-0.315c0.117 0.005 0.16 0.035 0.264 0.099 0.023 0.020 0.040 0.046 0.048 0.076v0.001z"></path>
<path d="M17.95 27.92h-1.333l-0.011-0.037c0.142-0.064 0.259-0.127 0.371-0.196l-0.015 0.008c0.111-0.076 0.195-0.195 0.379-0.187z"></path>
<path d="M12.368 25.951c-0.155 0.138-0.361 0.223-0.586 0.223-0.020 0-0.041-0.001-0.061-0.002h0.003c-0.153-0.149-0.279-0.29-0.363-0.51 0.358 0.066 0.681 0.132 1.007 0.29z"></path>
<path d="M14.016 26.349l0.052-0.221h0.726c-0.022 0.153 0.004 0.296-0.094 0.431-0.236-0.002-0.448-0.084-0.683-0.21z"></path>
<path d="M17.931 5.841h-0.752c0.032-0.154 0.059-0.287 0.093-0.447 0.14 0.033 0.252 0.054 0.361 0.087s0.199 0.070 0.325 0.117c-0.009 0.083-0.018 0.161-0.027 0.244z"></path>
<path d="M20.308 5.811c0.111 0.151 0.219 0.298 0.327 0.444-0.365-0.004-0.71-0.087-1.019-0.233l0.015 0.006c0.151-0.138 0.353-0.223 0.575-0.223 0.036 0 0.071 0.002 0.106 0.006h-0.004z"></path>
<path d="M20.648 0.905c0.201 0.035 0.767 0.334 1 0.527-0.486 0.211-0.722 0.018-1-0.527z"></path>
<path d="M10.329 30.514h0.629l0.435 0.547c-0.090 0.005-0.133 0.020-0.169 0.009-0.165-0.047-0.761-0.419-0.896-0.556z"></path>
<path d="M6.319 15.628c-0.046-0.028-0.085-0.056-0.122-0.086l0.002 0.002c-0.049-0.046-0.094-0.097-0.136-0.141-0.022-0.263-0.022-0.263 0.069-0.453 0.137 0.186 0.187 0.349 0.187 0.678z"></path>
<path d="M25.843 17.052c-0.139-0.228-0.164-0.445-0.198-0.677 0.341 0.147 0.389 0.312 0.198 0.677z"></path>
<path d="M16.335 31.944l0.277-0.262c0.183-0.039 0.293 0.038 0.422 0.162-0.171 0.067-0.37 0.105-0.577 0.105-0.043 0-0.086-0.002-0.128-0.005h0.006z"></path>
<path d="M17.375 27.112c-0.201 0.231-0.399 0.231-0.872-0.009 0.324-0.017 0.589 0.006 0.872 0.009z"></path>
<path d="M15.626 0.058c-0.332 0.318-0.395 0.323-0.644 0.065 0.197-0.094 0.398-0.075 0.644-0.065z"></path>
<path d="M13.102 26.034c0.037-0.007 0.079-0.012 0.122-0.012v0c0.187 0.033 0.373 0.069 0.569 0.106l-0.045 0.139c-0.279 0.014-0.385-0.025-0.646-0.234z"></path>
<path d="M18.865 5.97l-0.654-0.123c0.017-0.068 0.027-0.11 0.040-0.163 0.238 0.037 0.461 0.070 0.636 0.228z"></path>
<path d="M15.41 4.854h-0.806c0.049-0.099 0.15-0.166 0.267-0.166 0.020 0 0.039 0.002 0.057 0.006h-0.002c0.168 0.026 0.344 0.040 0.478 0.168z"></path>
<path d="M14.37 27.569l-0.307-0.094c0.177-0.063 0.177-0.063 0.307 0.094z"></path>
<path d="M17.967 4.539c-0.162 0.033-0.283 0.037-0.379-0.125 0.142 0.013 0.27 0.058 0.382 0.127l-0.004-0.002z"></path>
<path d="M15.404 4.861l0.022 0.006c0.019 0.016 0 0-0.016-0.013z"></path>
</svg>
