<!-- Generated by IcoMoon.io -->
<svg version="1.1" xmlns="http://www.w3.org/2000/svg" width="32" height="32" viewBox="0 0 32 32">
<title>gambit_reaper</title>
<path d="M16.006 5.776c0.026 0 0.056 0 0.087 0 5.601 0 10.141 4.54 10.141 10.141 0 0.063-0.001 0.126-0.002 0.189v-0.009c-0.027 5.685-4.53 10.273-10.207 10.243-0.025 0-0.055 0-0.085 0-5.648 0-10.227-4.579-10.227-10.227 0-0.023 0-0.047 0-0.070v0.004c0.063-5.776 4.525-10.293 10.293-10.271zM16.091 12.62c-1.284 0-2.566-0.027-3.851 0-1.205 0.033-1.474 0.512-0.875 1.573q1.791 3.169 3.642 6.302c0.677 1.144 1.276 1.128 1.975-0.055q1.815-3.078 3.576-6.181c0.655-1.158 0.402-1.609-0.897-1.65-1.188-0.022-2.379 0.003-3.57 0.003z"></path>
<path d="M15.975 0l1.042 2.979h-2.063c0.319-0.93 0.624-1.826 1.020-2.979z"></path>
<path d="M17.015 29.090c-0.336 0.946-0.646 1.821-1.031 2.91-0.385-1.084-0.696-1.956-1.037-2.91z"></path>
<path d="M2.949 17.053l-2.949-0.998 2.949-1.070z"></path>
<path d="M28.999 17.075v-2.063l2.982 1.012z"></path>
<path d="M7.391 26.042l-2.715 1.32 1.331-2.786z"></path>
<path d="M25.91 24.48c0.487 1.015 0.877 1.824 1.375 2.844l-2.855-1.326c0.498-0.506 0.941-0.968 1.48-1.518z"></path>
<path d="M4.648 4.698l2.814 1.375-1.524 1.218z"></path>
<path d="M24.675 5.98l2.602-1.265-1.337 2.775z"></path>
</svg>
