<!-- Generated by IcoMoon.io -->
<svg version="1.1" xmlns="http://www.w3.org/2000/svg" width="32" height="32" viewBox="0 0 32 32">
<title>ghost</title>
<path d="M15.818 22.297v7.49l-1.458 0.729-4.971-7.523 3.944-3.944zM9.72 16.199h-7.523l-0.696 1.392 7.49 5.038 3.944-3.944zM15.818 9.736v-7.523l-1.458-0.729-4.971 7.556 3.944 3.944zM9.786 15.801h-7.589l-0.696-1.392 7.523-5.038 3.944 3.944zM16.182 22.297v7.49l1.425 0.729 5.004-7.523-3.944-3.944zM22.247 16.166h7.523l0.729 1.458-7.523 4.971-3.911-3.944zM16.182 9.736v-7.523l1.425-0.729 5.004 7.556-3.944 3.944zM22.181 15.834h7.589l0.696-1.458-7.523-5.004-3.944 3.944zM15.983 19.347q-0.829 0-1.558-0.398t-1.16-1.16-0.398-1.591 0.398-1.591 1.16-1.16 1.558-0.398 1.591 0.398 1.16 1.16 0.398 1.591v0q0 0.862-0.398 1.591t-1.16 1.16-1.591 0.398v0zM15.983 13.614q-1.061 0-1.823 0.762t-0.729 1.823 0.729 1.823 1.823 0.762 1.823-0.762 0.762-1.823v0q0-1.061-0.762-1.823t-1.823-0.762v0zM15.685 15.138v0.53l-0.464 0.464h-0.563v-0.232zM15.685 17.16v-0.563l-0.464-0.464h-0.563v0.232zM16.249 15.138v0.53l0.464 0.464h0.563v-0.232zM16.249 17.16v-0.563l0.464-0.464h0.563v0.232zM16.249 16.199q0 0.133-0.066 0.199t-0.199 0.099-0.199-0.099l-0.099-0.199q-0.033-0.066 0.099-0.199t0.199-0.099l0.199 0.099q0.133 0.066 0.066 0.199z"></path>
</svg>
