<!-- Generated by IcoMoon.io -->
<svg version="1.1" xmlns="http://www.w3.org/2000/svg" width="32" height="32" viewBox="0 0 32 32">
<title>icon_display_options_equipped_with_medium</title>
<path d="M1.333 2.5h29.333v8h-29.333zM2.667 9.167h5.333v-5.333h-5.333z"></path>
<path d="M1.333 11.833h8.8v6.667h-8.8zM2.667 17.167h4v-4h-4z"></path>
<path d="M11.6 11.833h8.8v6.667h-8.8zM12.933 17.167h4v-4h-4z"></path>
<path d="M21.867 11.833h8.8v6.667h-8.8zM23.2 17.167h4v-4h-4z"></path>
<path d="M1.333 19.833h8.8v6.667h-8.8zM2.667 25.167h4v-4h-4z"></path>
<path d="M11.6 19.833h8.8v6.667h-8.8zM12.933 25.167h4v-4h-4z"></path>
<path d="M21.867 19.833h8.8v6.667h-8.8zM23.2 25.167h4v-4h-4z"></path>
</svg>
