<!-- Generated by IcoMoon.io -->
<svg version="1.1" xmlns="http://www.w3.org/2000/svg" width="32" height="32" viewBox="0 0 32 32">
<title>icon_display_options_equipped_with_small</title>
<path d="M1.333 2.5h29.333v8h-29.333zM2.667 9.167h5.333v-5.333h-5.333z"></path>
<path d="M1.333 11.833h4.8v4.8h-4.8v-4.8z"></path>
<path d="M7.467 11.833h4.8v4.8h-4.8v-4.8z"></path>
<path d="M13.6 11.833h4.8v4.8h-4.8v-4.8z"></path>
<path d="M19.733 11.833h4.8v4.8h-4.8v-4.8z"></path>
<path d="M25.867 11.833h4.8v4.8h-4.8v-4.8z"></path>
<path d="M1.333 18.1h4.8v4.8h-4.8v-4.8z"></path>
<path d="M7.467 18.1h4.8v4.8h-4.8v-4.8z"></path>
<path d="M13.6 18.1h4.8v4.8h-4.8v-4.8z"></path>
<path d="M19.733 18.1h4.8v4.8h-4.8v-4.8z"></path>
<path d="M25.867 18.1h4.8v4.8h-4.8v-4.8z"></path>
<path d="M1.333 24.367h4.8v4.8h-4.8v-4.8z"></path>
<path d="M7.467 24.367h4.8v4.8h-4.8v-4.8z"></path>
<path d="M13.6 24.367h4.8v4.8h-4.8v-4.8z"></path>
<path d="M19.733 24.367h4.8v4.8h-4.8v-4.8z"></path>
<path d="M25.867 24.367h4.8v4.8h-4.8v-4.8z"></path>
</svg>
