<!-- Generated by IcoMoon.io -->
<svg version="1.1" xmlns="http://www.w3.org/2000/svg" width="32" height="32" viewBox="0 0 32 32">
<title>icon_display_options_small_only</title>
<path d="M1.333 8.633h4.8v4.8h-4.8v-4.8z"></path>
<path d="M7.467 8.633h4.8v4.8h-4.8v-4.8z"></path>
<path d="M13.6 8.633h4.8v4.8h-4.8v-4.8z"></path>
<path d="M19.733 8.633h4.8v4.8h-4.8v-4.8z"></path>
<path d="M25.867 8.633h4.8v4.8h-4.8v-4.8z"></path>
<path d="M1.333 14.9h4.8v4.8h-4.8v-4.8z"></path>
<path d="M7.467 14.9h4.8v4.8h-4.8v-4.8z"></path>
<path d="M13.6 14.9h4.8v4.8h-4.8v-4.8z"></path>
<path d="M19.733 14.9h4.8v4.8h-4.8v-4.8z"></path>
<path d="M25.867 14.9h4.8v4.8h-4.8v-4.8z"></path>
<path d="M1.333 21.167h4.8v4.8h-4.8v-4.8z"></path>
<path d="M7.467 21.167h4.8v4.8h-4.8v-4.8z"></path>
<path d="M13.6 21.167h4.8v4.8h-4.8v-4.8z"></path>
<path d="M19.733 21.167h4.8v4.8h-4.8v-4.8z"></path>
<path d="M25.867 21.167h4.8v4.8h-4.8v-4.8z"></path>
<path d="M1.333 2.5h4.8v4.8h-4.8v-4.8z"></path>
<path d="M7.467 2.5h4.8v4.8h-4.8v-4.8z"></path>
<path d="M13.6 2.5h4.8v4.8h-4.8v-4.8z"></path>
<path d="M19.733 2.5h4.8v4.8h-4.8v-4.8z"></path>
<path d="M25.867 2.5h4.8v4.8h-4.8v-4.8z"></path>
</svg>
