<!-- Generated by IcoMoon.io -->
<svg version="1.1" xmlns="http://www.w3.org/2000/svg" width="32" height="32" viewBox="0 0 32 32">
<title>icon_display_options_only_medium</title>
<path d="M1.333 10.5h8.8v6.667h-8.8zM2.667 15.833h4v-4h-4z"></path>
<path d="M11.6 10.5h8.8v6.667h-8.8zM12.933 15.833h4v-4h-4z"></path>
<path d="M21.867 10.5h8.8v6.667h-8.8zM23.2 15.833h4v-4h-4z"></path>
<path d="M1.333 18.5h8.8v6.667h-8.8zM2.667 23.833h4v-4h-4z"></path>
<path d="M11.6 18.5h8.8v6.667h-8.8zM12.933 23.833h4v-4h-4z"></path>
<path d="M21.867 18.5h8.8v6.667h-8.8zM23.2 23.833h4v-4h-4z"></path>
<path d="M1.333 2.5h8.8v6.667h-8.8zM2.667 7.833h4v-4h-4z"></path>
<path d="M11.6 2.5h8.8v6.667h-8.8zM12.933 7.833h4v-4h-4z"></path>
<path d="M21.867 2.5h8.8v6.667h-8.8zM23.2 7.833h4v-4h-4z"></path>
</svg>
