<!-- Generated by IcoMoon.io -->
<svg version="1.1" xmlns="http://www.w3.org/2000/svg" width="32" height="32" viewBox="0 0 32 32">
<title>infuse</title>
<path d="M16.142 5.747l-2.066 2.285h4.133z"></path>
<path d="M13.233 4.27h2.562l-6.313 6.906v-2.853z"></path>
<path d="M13.233 9.123h2.562l-6.313 6.906v-2.853z"></path>
<path d="M19.051 4.27h-2.562l6.313 6.906v-2.853z"></path>
<path d="M19.051 9.123h-2.562l6.313 6.906v-2.853z"></path>
<path d="M32 16.671l-5.96-3.595-0.059-12.287h-1.335l0.059 15.986c0 0-1.283 3.647-8.615 3.647s-8.387-3.543-8.387-3.543l-0.059-16.090h-1.321l0.059 12.287-6.074 3.595 4.15 2.458-4.458 2.884 16.090 9.198 15.757-9.219-4.056-2.85 4.209-2.472zM29.292 21.885l-2.479 1.449c-1.033-0.846-1.737-1.605-1.834-2.136l-0.842 0.496-0.062 0.035c0.284 0.666 0.946 1.408 1.796 2.156l-0.707 0.413c-0.95-0.839-1.574-1.619-1.65-2.24l-0.849 0.499-0.076 0.049c0.246 0.711 0.849 1.473 1.657 2.233l-0.624 0.367c-0.96-0.856-1.581-1.633-1.65-2.236l-0.849 0.499-0.080 0.049c0.246 0.697 0.842 1.456 1.654 2.233l-0.607 0.347c-0.953-0.874-1.56-1.654-1.626-2.247l-0.846 0.496-0.080 0.045c0.243 0.683 0.836 1.442 1.643 2.233l-5.1 2.985-5.138-2.94c0.839-0.811 1.449-1.591 1.695-2.292l-0.083-0.049-0.842-0.499c-0.055 0.607-0.686 1.411-1.685 2.316l-0.603-0.347c0.846-0.801 1.47-1.588 1.72-2.309l-0.083-0.049-0.846-0.503c-0.059 0.617-0.711 1.428-1.727 2.323l-0.631-0.361c0.853-0.794 1.491-1.588 1.74-2.326l-0.087-0.052-0.849-0.503c-0.055 0.645-0.725 1.466-1.74 2.347l-0.711-0.406c0.908-0.784 1.616-1.567 1.9-2.267l-0.069-0.042-0.842-0.499c-0.073 0.548-0.832 1.359-1.945 2.26l-2.59-1.48 3.124-2.018 10.297 6.102 10.401-6.109 2.808 1.976z"></path>
</svg>
