<!-- Generated by IcoMoon.io -->
<svg version="1.1" xmlns="http://www.w3.org/2000/svg" width="32" height="32" viewBox="0 0 32 32">
<title>intellect</title>
<path d="M15.985 5.049l4.667 4.667 1.578-1.579-6.246-6.246-6.238 6.246 1.571 1.579z"></path>
<path d="M15.985 26.951l-4.667-4.667-1.571 1.578 6.238 6.246 6.246-6.246-1.579-1.578z"></path>
<path d="M22.97 10.357c-1.045 0.412-3.92 2.189-5.91 3.508-0.031-0.015-0.053-0.031-0.084-0.046-0.206-2.707-0.648-6.764-0.991-8.022-0.351 1.258-0.793 5.292-1.007 8.007-0.008 0-0.015 0.008-0.015 0.008-1.929-1.403-4.72-3.287-5.742-3.744 0.58 0.953 2.814 3.47 4.454 5.201-0.076 0.229-0.122 0.465-0.122 0.725 0 0.221 0.038 0.427 0.092 0.625-1.716 1.662-4.049 4.088-4.667 5.010 1.037-0.412 3.904-2.181 5.895-3.508 0.031 0.015 0.069 0.038 0.099 0.053 0.206 2.707 0.648 6.749 0.984 8.007 0.343-1.258 0.793-5.308 1.007-8.015 0 0 0.008 0 0.008 0 1.929 1.403 4.728 3.294 5.75 3.752-0.587-0.953-2.829-3.493-4.476-5.224 0.069-0.221 0.114-0.458 0.114-0.702 0-0.213-0.038-0.412-0.084-0.61 1.731-1.655 4.072-4.088 4.698-5.025z"></path>
<path d="M7.131 10.746l-5.224 5.231 5.147 5.155 1.579-1.578-3.576-3.576 3.653-3.653z"></path>
<path d="M24.945 10.845l-1.579 1.579 3.576 3.576-3.653 3.653 1.578 1.571 5.224-5.224z"></path>
</svg>
