<!-- Generated by IcoMoon.io -->
<svg version="1.1" xmlns="http://www.w3.org/2000/svg" width="32" height="32" viewBox="0 0 32 32">
<title>ironbanner</title>
<path d="M31.040 22.272c-0.016 0.065-0.025 0.14-0.025 0.216 0 0.003 0 0.005 0 0.008v0c0.022 0.090 0.050 0.169 0.086 0.243l-0.003-0.007c-0.217 0.154-0.471 0.313-0.733 0.46l-0.044 0.022c-0.492 0.244-0.915 0.538-1.288 0.885l0.003-0.003c-0.124 0.133-0.301 0.216-0.497 0.216-0.006 0-0.012 0-0.019 0h0.001c-0.122 0.009-0.234 0.029-0.343 0.060l0.012-0.003-0.251-0.456-1.33 0.265c0.048-0.379 0.319-0.676 0.13-1.061-0.305-0.269-0.688-0.457-1.11-0.529l-0.013-0.002-0.724 0.418c-0.013-0.052-0.021-0.111-0.021-0.172 0-0.012 0-0.024 0.001-0.036v0.002c0.035-0.157 0.087-0.311 0.132-0.468-0.261-0.28-0.588-0.34-0.901-0.413-0.083-0.017-0.185 0.042-0.266 0.088-0.154 0.088-0.297 0.197-0.45 0.287-0.057 0.023-0.124 0.039-0.193 0.046h-0.003c-0.031-0.287 0.213-0.508 0.097-0.791l-0.887-0.356-0.744 0.49-0.127-0.090c0.089-0.293 0.231-0.563 0.198-0.905l-0.641-0.342-1.206 0.691c-0.093-0.312 0.226-0.533 0.1-0.835-0.061 0-0.14-0.033-0.189-0.007-0.425 0.223-0.844 0.452-1.083 0.91-0.346 0.657-0.413 1.292 0.054 1.929 0.166 0.247 0.353 0.462 0.564 0.65l0.003 0.003c0.385-0.091 0.662-0.39 1.079-0.528l-0.314 0.864c0.19 0.291 0.557 0.27 0.811 0.471 0.413-0.198 0.776-0.496 1.284-0.71l-0.35 0.983c0.191 0.248 0.506 0.274 0.765 0.391 0.381-0.173 0.683-0.465 1.115-0.595 0 0.35-0.256 0.575-0.282 0.901 0.19 0.194 0.425 0.146 0.655 0.045 0.376-0.165 0.744-0.344 1.121-0.514 0.094-0.043 0.194-0.070 0.325-0.117 0.055 0.389-0.255 0.641-0.237 0.986 0.217 0.237 0.516 0.065 0.791 0.138l0.076 0.146c-0.102 0.389-0.17 0.767-0.3 1.124-0.314 0.858-0.893 1.484-1.781 1.746-0.109 0.032-0.234 0.050-0.363 0.050-0.246 0-0.477-0.066-0.676-0.181l0.006 0.003c-0.835-0.442-1.696-0.839-2.546-1.255-0.406-0.198-0.801-0.423-1.217-0.595-0.52-0.214-1.062-0.375-1.637-0.311-0.791 0.088-1.585 0.128-2.378 0.189-0.867 0.066-1.732 0.049-2.596 0.034-0.017-0.001-0.037-0.001-0.057-0.001-0.335 0-0.648 0.095-0.913 0.259l0.007-0.004c-0.055 0.033-0.109 0.067-0.22 0.136 0.345-0.698 0.786-1.18 1.507-1.352 0.368-0.084 0.67-0.173 0.965-0.277l-0.061 0.019c0.522-0.194 0.962-0.501 1.309-0.894l0.003-0.004c0.037-0.065 0.073-0.142 0.105-0.223l0.004-0.013c-0.11 0.103-0.227 0.202-0.35 0.294l-0.011 0.008c-0.496 0.366-1.066 0.557-1.665 0.649-0.769 0.118-1.341 0.538-1.785 1.14-0.163 0.232-0.377 0.418-0.625 0.545l-0.010 0.005c-0.945 0.478-1.715 1.179-2.383 1.991-0.331 0.405-0.641 0.833-0.987 1.287 0.117-0.614 0.419-1.123 0.597-1.725-1.282 0.689-2.187 1.714-3.029 2.873-0.053-0.090-0.109-0.199-0.158-0.311l-0.008-0.020c-0.165-0.462-0.319-0.935-0.356-1.424-0.057-0.775 0.127-1.495 0.662-2.092 0.209-0.232 2.154-1.877 2.168-1.893-0.010 0.021-1.681 1.264-1.737 1.314-0.364 0.312-0.679 0.666-0.942 1.056l-0.012 0.019c-0.051 0.083-0.117 0.151-0.187 0.24-0.689-0.703-1.528-1.257-2.465-1.61l-0.047-0.016 0.643-0.436c0.013-0.978-0.227-1.877-0.985-2.682 0.379 0.083 0.666 0.153 0.954 0.217 0.992 0.222 1.902 0.067 2.673-0.642q0.563-0.514 1.144-1.009c0.631-0.538 1.373-0.781 2.197-0.79 0.007 0 0.015 0.001 0.024 0.001 0.096 0 0.185-0.026 0.262-0.071l-0.002 0.001c-0.074-0.031-0.159-0.056-0.249-0.070l-0.006-0.001c-0.93-0.015-1.799 0.191-2.541 0.777-0.413 0.323-0.796 0.675-1.185 1.024-0.3 0.269-0.611 0.519-1.016 0.6-0.175 0.039-0.377 0.062-0.584 0.062-0.024 0-0.047 0-0.071-0.001h0.003c-0.615-0.021-1.192-0.165-1.654-0.592-0.112-0.473-0.18-0.952-0.343-1.396-0.157-0.43-0.413-0.827-0.632-1.248 0.264-0.284 0.612-0.419 0.952-0.551 0.44-0.168 0.952-0.293 1.483-0.351l0.028-0.003c0.61-0.077 1.215-0.184 1.819-0.295 0.752-0.137 1.501-0.289 2.25-0.442 0.247-0.049 0.467-0.129 0.669-0.238l-0.013 0.006-1.075 0.165c-0.496 0.083-0.997 0.165-1.499 0.231-0.651 0.083-1.303 0.157-1.956 0.23-0.326 0.036-0.654 0.059-0.981 0.092-0.503 0.050-0.951 0.253-1.374 0.513-0.314 0.194-0.612 0.413-0.94 0.641 0.005-0.083 0.017-0.16 0.036-0.235l-0.002 0.009c0.347-1.043 1.050-1.781 1.976-2.336 0.81-0.485 1.763-0.822 2.781-0.949l0.035-0.004c0.502-0.066 1.019-0.011 1.528-0.036 0.891-0.044 1.782-0.083 2.668-0.17 0.596-0.060 1.188-0.188 1.724-0.485 0.029-0.024 0.055-0.051 0.075-0.081l0.001-0.001 0.046-0.053-0.035 0.064c-0.222 0.057-0.449 0.104-0.667 0.174-0.442 0.138-0.951 0.218-1.478 0.218-0.006 0-0.011 0-0.017 0h0.001c-1.128 0.019-2.256-0.008-3.383 0.006-1.527 0.019-2.904 0.484-4.098 1.446-0.218 0.193-0.417 0.393-0.602 0.607l-0.007 0.008c-0.028 0.045-0.048 0.097-0.058 0.153v0.003l-0.089-0.067c0.034-0.361 0.072-0.721 0.101-1.082 0.035-0.423 0.102-0.849-0.041-1.263-0.083-0.23-0.185-0.451-0.298-0.72 0.145-0.109 0.31-0.219 0.482-0.318l0.024-0.013c1.17-0.589 2.169-1.206 3.11-1.898l-0.060 0.042c0.353-0.255 0.753-0.446 1.13-0.668 0.106-0.057 0.197-0.116 0.283-0.181l-0.005 0.004c-0.040 0.025-0.668 0.226-0.92 0.352-0.705 0.357-1.31 0.742-1.874 1.178l0.027-0.020c-0.248 0.192-0.517 0.362-0.768 0.552-0.432 0.331-0.934 0.482-1.47 0.637 0.295-0.875 0.372-1.758 0.512-2.63 0.116-0.749 0.274-1.407 0.48-2.043l-0.026 0.092c0.275-0.847 0.882-1.251 1.69-1.432 0.261-0.059 0.531-0.083 0.827-0.123l-1.137-0.787c1.433 0.427 2.791 0.797 4.225 0.95 0.253-0.27 0.474-0.538 0.727-0.77 0.28-0.258 0.582-0.504 0.9-0.73l0.028-0.019c0.185-0.12 0.334-0.28 0.437-0.47l0.003-0.007c0.311-0.626 0.558-1.269 0.613-1.985 0.061-0.638 0.148-1.205 0.266-1.761l-0.018 0.1c0.117-0.616 0.241-1.233 0.404-1.839 0.137-0.513 0.323-1.014 0.508-1.513 0.036-0.098 0.17-0.159 0.248-0.229 0.753 0.165 1.131 0.694 1.389 1.323 0.35 0.846 0.589 1.737 1.021 2.549 0.496 0.931 1.016 1.848 1.53 2.771 0.133 0.239 0.277 0.472 0.414 0.709 0.232 0.396 0.555 0.672 1.016 0.763 0.419 0.083 0.744 0.32 1.059 0.596 0.516 0.452 1.064 0.863 1.693 1.158 0.753 0.353 1.406 0.857 2.008 1.423 0.289 0.276 0.611 0.522 0.959 0.731l0.025 0.014c0.875 0.514 1.51 1.26 2.016 2.13 0.27 0.461 0.521 0.936 0.93 1.302 0.095 0.083 0.142 0.224 0.241 0.385 0.137 0.064 0.323 0.16 0.331 0.407 0.265 0.215 0.513 0.457 0.799 0.639 0.439 0.28 0.91 0.507 1.355 0.778 0.333 0.21 0.617 0.413 0.888 0.631l-0.018-0.014c0.562 0.44 1.116 0.889 1.753 1.222 0.461 0.241 0.91 0.496 1.365 0.758 0.144 0.081 0.251 0.213 0.3 0.37l0.001 0.005c0.136 0.418 0.111 0.81-0.138 1.178-0.026 0.039-0.083 0.058-0.126 0.083 0 0 0.053-0.193 0.074-0.29-0.083-0.16-0.223-0.16-0.35-0.096-0.237 0.119-0.465 0.256-0.625 0.477-0.013 0.018-0.026 0.037-0.039 0.056 0.094-0.057 0.203-0.101 0.319-0.125l0.007-0.001zM15.465 23.556c-0.449 0.404-0.983 0.626-1.559 0.782-0.443 0.133-0.811 0.274-1.166 0.437l0.057-0.023c-0.164 0.087-0.306 0.184-0.435 0.296l0.003-0.002c0.039-0.023 0.203-0.070 0.237-0.088 0.425-0.212 0.918-0.38 1.435-0.48l0.037-0.006c0.426-0.084 0.8-0.265 1.111-0.52l-0.004 0.004c0.193-0.16 0.587-0.598 0.614-0.626s0.349-0.457 0.363-0.474c-0.011 0.023-0.624 0.639-0.691 0.701zM23.191 26.349c0.137 0.108 0.496 0.312 0.516 0.331-0.021-0.012-1.258-1.136-1.276-1.149 0.021 0.005 0.545 0.649 0.758 0.818zM2.058 13.647c0.241-0.221 0.488-0.435 0.721-0.662 0.774-0.762 1.701-1.191 2.786-1.214 0.785-0.007 1.55-0.072 2.296-0.193l-0.087 0.011c0.322-0.055 0.642-0.12 0.963-0.18-0.046-0.037-0.105-0.059-0.169-0.059-0.015 0-0.030 0.001-0.044 0.004h0.002c-0.392 0.046-0.782 0.122-1.175 0.14-0.604 0.026-1.21 0.028-1.814 0.012-0.669-0.017-1.265 0.195-1.824 0.527-0.653 0.384-1.127 0.963-1.628 1.507-0.022 0.024-0.127 0.236-0.141 0.253 0.036-0.055 0.074-0.103 0.116-0.147l-0.001 0.001zM21.147 12.283c-0.024-0.011-0.514-0.309-0.673-0.366-0.692-0.244-1.406-0.198-2.116-0.127-0.271 0.027-0.544 0.118-0.811 0.101-0.565-0.037-1.089-0.178-1.564-0.405l0.026 0.011c-0.051-0.020-0.114-0.039-0.178-0.054l-0.009-0.002c0.331 0.261 0.728 0.457 1.161 0.558l0.020 0.004c0.293 0.060 0.594 0.142 0.886 0.126 0.529-0.031 1.055-0.134 1.584-0.194 0.040-0.004 0.087-0.006 0.134-0.006 0.112 0 0.221 0.011 0.326 0.033l-0.010-0.002c0.334 0.059 1.205 0.308 1.225 0.322zM11.909 19.943l-0.165 0.083c-0.005 0-0.011 0-0.017 0-0.037 0-0.072 0.006-0.106 0.016l0.003-0.001c-0.777 0.403-1.587 0.442-2.429 0.248-0.492-0.113-0.992-0.191-1.489-0.276-0.269-0.045-0.543-0.062-0.812-0.108-0.168-0.034-0.362-0.053-0.56-0.053-0.611 0-1.179 0.182-1.653 0.495l0.011-0.007c-0.029 0.018-0.491 0.384-0.504 0.401 0.008-0.021 0.534-0.298 0.566-0.317 0.686-0.404 1.424-0.445 2.182-0.303 0.832 0.156 1.661 0.323 2.503 0.428 0.141 0.019 0.304 0.030 0.47 0.030 0.624 0 1.212-0.155 1.727-0.428l-0.020 0.010c0.051-0.026 0.083-0.095 0.121-0.145l0.165-0.083 0.044-0.049zM24.118 21.534c-0.049-0.007-1.095-0.509-1.389-0.615-0.185-0.066-0.656-0.202-0.698-0.226 0.068 0.061 0.145 0.115 0.228 0.158l0.006 0.003c0.281 0.121 0.563 0.241 0.849 0.351 0.146 0.062 0.997 0.347 1.004 0.332zM25.555 16.955l0.055 0.040-0.065-0.030c-0.218-0.212-0.304-0.242-0.562-0.194 0.171 0.141 0.351 0.222 0.572 0.184zM18.434 20.346l1.22-0.518c-0.027-0.002-0.059-0.003-0.092-0.003-0.268 0-0.52 0.074-0.734 0.203l0.006-0.004c-0.148 0.083-0.331 0.136-0.391 0.331-0.022 0.010-0.045 0.021-0.019 0.008-0.014 0.026-0.002 0.004 0.009-0.017zM21.907 13.988l-0.060-0.038 0.069 0.028 1.24 1.003c-0.203-0.377-0.61-0.791-0.896-0.91-0.1-0.034-0.219-0.063-0.342-0.081l-0.012-0.001zM26.731 18.336c0.022 0.008 0.165 0.147 0.227 0.188 0.529 0.342 1.763 0.534 1.755 0.521l-0.027-0.012c-0.099-0.063-0.213-0.123-0.332-0.173l-0.015-0.006c-0.516-0.166-1.59-0.505-1.608-0.518zM18.558 16.395c0.082 0.066 0.174 0.125 0.272 0.173l0.009 0.004c0.45 0.213 0.974 0.348 1.528 0.371h0.008c0.392 0.018 0.796 0.078 1.265-0.136-0.299 0-0.505-0.006-0.709 0-0.591 0.020-1.171-0.031-1.737-0.241-0.157-0.060-0.595-0.146-0.636-0.171zM11.898 4.478l-0.050-0.045 0.061 0.035 1.4 2.068c-0.146-0.797-0.724-1.676-1.332-2.061-0.018-0.008-0.052 0.004-0.079 0.004zM5.53 21.005c0.125-0.049 0.248-0.095 0.374-0.148 0.367-0.158 0.739-0.257 1.149-0.189 0.526 0.089 1.051 0.197 1.59 0.183 0.111 0 0.222-0.014 0.382-0.024-0.59-0.127-1.122-0.243-1.654-0.353-0.705-0.146-1.323 0.008-1.827 0.542l-0.044 0.057zM11.733 12.252c-0.011-0.019-0.021-0.039-0.012-0.023l0.025 0.012c0.441 0.341 0.961 0.605 1.526 0.761l0.031 0.007c0.566 0.159 1.147 0.2 1.721 0.294 0.104 0.010 0.225 0.016 0.348 0.016 0.066 0 0.131-0.002 0.196-0.005h-0.009c0.037 0.003 0.081 0.004 0.124 0.004 0.141 0 0.279-0.015 0.412-0.043l-0.013 0.002c-0.339-0.065-0.677-0.091-1.015-0.13-0.257-0.029-0.514-0.064-0.768-0.113-0.874-0.183-1.641-0.434-2.369-0.756l0.075 0.030c-0.079-0.025-0.172-0.045-0.268-0.055l-0.006-0.001zM5.034 12.32c0.365-0.094 0.734-0.083 1.102-0.067 0.057 0.002 0.124 0.003 0.191 0.003 0.623 0 1.223-0.1 1.785-0.284l-0.040 0.011c0.382-0.117 0.784-0.212 1.1-0.487l0.045-0.054-0.037 0.065c-0.092 0.017-0.185 0.026-0.275 0.050-0.34 0.090-0.675 0.201-1.018 0.275-0.719 0.155-1.455 0.173-2.183 0.248-0.338 0.036-1.141 0.263-1.254 0.273 0.123 0.059 0.48-0.005 0.581-0.031zM19.78 11.36c-0.117-0.008-1.351-0.265-1.875-0.356-0.403-0.070-0.809-0.127-1.207-0.215-0.728-0.165-1.386-0.496-2.030-0.862-0.099-0.051-0.22-0.104-0.345-0.149l-0.023-0.007-0.010-0.022c-0.022-0.011 0.098 0.124 0.151 0.159 0.287 0.188 0.571 0.382 0.869 0.549 0.737 0.413 1.504 0.731 2.37 0.722 0.083 0 0.165 0.017 0.248 0.023 0.525 0.045 1.722 0.214 1.848 0.16zM12.405 7.941l0.011 0.019c0.025 0.010 0 0-0.021-0.009-0.083-0.075-0.172-0.147-0.266-0.214l-0.009-0.006c-0.643-0.392-1.103-1.031-1.25-1.782l-0.003-0.017c-0.058-0.264-0.097-0.571-0.107-0.885v-0.008c-0.028-0.863-0.069-1.728 0.051-2.589 0.006-0.078 0.009-0.169 0.009-0.261s-0.003-0.183-0.010-0.274l0.001 0.012c-0.101 0.318-0.184 0.697-0.234 1.087l-0.003 0.033c-0.043 0.312-0.055 0.628-0.102 0.938-0.038 0.235-0.060 0.505-0.060 0.78 0 0.301 0.026 0.596 0.076 0.883l-0.004-0.031c0.161 0.965 0.637 1.704 1.507 2.173 0.133 0.070 0.241 0.195 0.414 0.151zM19.207 14.616c0.339 0.356 0.706 0.681 1.158 0.9 0.579 0.281 1.162 0.543 1.715 0.929-0.131-0.262-0.248-0.491-0.361-0.719-0.078-0.174-0.153-0.316-0.236-0.454l0.011 0.019c-0.19-0.289-0.408-0.571-0.77-0.629-0.276-0.044-0.552-0.122-0.849-0.041-0.202 0.053-0.428 0.002-0.668-0.004zM14.913 13.689c-0.579-0.103-1.158-0.165-1.724-0.32s-1.116-0.39-1.705-0.602c1.016 0.886 2.214 0.968 3.428 0.922zM24.035 15.604c-0.178-1.002-0.627-1.848-1.441-2.488 0.615 0.753 0.959 1.659 1.44 2.488zM24.846 17.12c-0.872-0.588-1.556-0.716-2.118-0.409 0.088-0.009 0.191-0.014 0.295-0.014 0.391 0 0.764 0.073 1.108 0.206l-0.021-0.007c0.241 0.085 0.49 0.153 0.735 0.224zM19.104 14.173c-0.725-0.116-1.303 0.083-1.801 0.547zM21.806 17.246h-1.807c0.639 0.299 1.223 0.255 1.805 0zM29.236 23.44c-0.47 0.103-0.892-0.035-1.311-0.198-0.066-0.026-0.135-0.045-0.267-0.088 0.696 0.633 1.095 0.567 1.576 0.285zM24.019 26.086c0.285 0.361 0.711 0.609 0.838 1.166 0.043-0.602-0.174-0.894-0.839-1.17zM28.076 19.51c0.443 0.355 0.933 0.112 1.413 0.033zM8.843 11.047c-0.042-0.014-0.091-0.024-0.142-0.027h-0.002c-0.27 0.018-0.538 0.045-0.807 0.063-0.141 0.009-0.424 0.065-0.423 0.092 0.364 0 0.729 0 1.092 0 0.087-0.004 0.168-0.018 0.246-0.039l-0.008 0.002c0.015-0.005 0.022-0.043 0.044-0.090zM8.651 10.783l-0.923 0.083c0.313 0.024 0.636 0.136 0.923-0.083z"></path>
</svg>
