<!-- Generated by IcoMoon.io -->
<svg version="1.1" xmlns="http://www.w3.org/2000/svg" width="32" height="32" viewBox="0 0 32 32">
<title>leviathan_dogs</title>
<path d="M27.808 7.936q0.032-0.032 0.064-0.128 0.16-0.192 0.128-0.288l-0.032-0.192q-0.064-0.384-0.064-0.576t0.064-0.512v0.032l1.024 1.12-0.032-0.032q0.416 0.736 0.544 1.76 0.096 0.672 0.064 1.888 0 1.536-1.088 2.688l-0.608 0.608q-0.544 0.544-0.8 0.832-1.504 1.6 0.416 2.752l0.832 0.416q0.704 2.464 0.032 5.76-0.448 0.448-1.12 0.576-0.384 0.064-1.184 0.064h-0.288q-0.032 0.032-0.096 0.032-0.288 0-0.48-0.192t-0.224-0.448v0q-0.128-0.48 0.544-0.736 0.256-0.064 0.64-0.256v0q0.448-0.352 0.64-0.64 0.256-0.384 0.224-0.864t-0.352-0.8q-0.192-0.192-0.672-0.48l-0.128-0.096q-0.192-0.064-0.288-0.064v0q-1.824-0.352-3.2-1.408h0.032q-0.288 0.256-0.288 0.544-0.032 0.224 0.128 0.544 0.608 1.312-0.416 2.176l-0.096 0.096q-0.352 0.768-0.896 1.12-0.448 0.288-1.12 0.288-0.416 0-1.312-0.128l-0.608-0.096q0.608-0.8 1.536-1.088l0.032-0.032 0.544-0.192 0.128-0.064h-0.032q0.96-0.544 0.512-1.504-0.192-0.384-0.672-1.12l-0.224-0.32-0.544 0.096q-1.088 0.16-1.632 0.32-0.384 0.224-0.384 0.672v0q0.192 1.12-0.256 2.176-0.352 0.736-1.216 1.792-0.128 0.128-0.32 0.448v0.032q-0.448 0.864-0.928 1.248-0.64 0.544-1.536 0.512-0.32 0-0.928 0.288l-0.512 0.224-1.504-1.088q0.16-0.448 0.384-0.832t0.576-0.544 0.864-0.128q1.088 0.064 1.728-0.512t0.736-1.728q0.032-0.512-0.256-0.928-0.16-0.256-0.672-0.704l-0.064-0.064q-0.192 0.544-0.672 0.832-0.288 0.16-0.96 0.352-0.384 0.096-0.544 0.16-0.448 0.064-0.704 0.064v0q-0.48 0.096-0.64 0.352t-0.192 0.832q-0.032 0.416-0.224 1.12l0.032-0.032q-0.512-0.288-0.672-0.512t-0.224-0.736q0-0.384 0.128-1.504 0.256-0.256 0.896-0.672 0.544-0.32 0.8-0.544 0.384-0.352 0.576-0.768-0.352-1.024-1.536-0.64-0.672 0.224-2.016 0.864l-2.176 1.056-0.48-0.736q-0.096-0.256 0-0.416t0.448-0.544q0.448-0.16 0.736-0.512t0.384-0.8v0q-0.768 0.192-0.992 0.32t-0.256 0.288 0.16 0.736h-1.024l-0.544 1.056q-0.608-0.576-0.832-0.928t-0.192-0.704 0.288-1.088q0.576-1.536 1.344-2.56 0.896-1.216 2.208-1.888 0.16-0.096 0.448-0.384l-0.032-0.384q0-1.024 0.672-1.856v0q0.32-0.448 0.352-1.024v-0.032q0.192-1.152 0.864-2.24 0.544-0.896 1.536-1.824 0.384-0.384 0.864-0.576v0q-0.608 0.992-1.056 1.984l-0.064 0.128q-0.352 1.024-0.64 2.368l-0.032 0.16q0.608 0 1.056-0.288 0.32-0.192 0.736-0.64 0.8-0.896 2.080-1.664 0.768-0.448 2.4-1.184l0.608-0.288-2.592 2.72q0.896 0.384 1.312 0.48 0.48 0.064 0.864-0.128t0.992-0.832q1.408-1.312 3.104-1.76h0.032q-0.32 0.448-1.12 1.184-0.64 0.576-0.928 0.896-0.448 0.576-0.64 1.184l0.544 0.608 0.992-0.448q0.064-0.032 0.224 0.128l0.16 0.096-0.288 0.288-0.224 0.096 0.128 0.096 0.064-0.224 0.288-0.288q0.768-0.608 1.28-0.864 0.768-0.384 1.632-0.48-0.256 0.288-0.832 0.832l-0.864 0.832q-0.448 0.48-0.64 1.024l0.576 0.128-0.032-0.032 0.352 0.576q0.224-0.16 0.608-0.512 0.448-0.416 0.704-0.608 0.448-0.256 0.928-0.256l-0.992 1.248 1.888 0.704q0.448-0.256 0.672-0.352l0.256-0.096q0.416-0.128 0.608-0.16h0.064l-0.704 0.96 0.064 0.064q0.128 0.128 0.16 0.128 0.256 0.032 0.896 0.032h0.096q0.992-0.032 1.792-0.64t0.928-1.568q0.16-1.024-0.576-2.080h-0.032zM28.992 7.392l0.096-0.224-0.128 0.192zM27.84 7.936l-0.192-0.096 0.096-0.096 0.064 0.192h0.032zM20.16 10.528l0.096-0.224-0.128 0.192z"></path>
</svg>
