<!-- Generated by IcoMoon.io -->
<svg version="1.1" xmlns="http://www.w3.org/2000/svg" width="32" height="32" viewBox="0 0 32 32">
<title>leviathan_axes</title>
<path d="M12.448 18.208v0.832l-0.288 0.032q-0.288 0.032-0.384 0l-7.424-3.552q-0.512-0.256-0.832-0.704t-0.32-1.056l-0.032-0.32q-0.224-4.8-0.32-7.296 0.704-0.672 1.664-1.376 0.576-0.416 1.792-1.248 1.824-1.248 2.72-1.952 0.064 0.608 0.384 1.6 0.192 0.576 0.256 0.864 0.128 0.48 0.096 0.896l-1.664 0.448q-0.224 0.512-0.064 0.992 0.096 0.32 0.416 0.768 1.856 2.656 3.744 5.28l2.272 3.232q0.032 0.032 0.064 0.16t0.064 0.096q1.28 0.544 1.184 2.144 0 0.032 0.128 0.064l0.224 0.096 0.064-0.128q0.16-0.224 0.128-0.32-0.096-0.512 0.128-0.928 0.192-0.32 0.64-0.704 0.608-0.448 1.056-1.12l0.032-0.032q2.784-3.968 5.536-7.968 0.256-0.384 0.352-0.704 0.096-0.448-0.096-0.896l-1.664-0.48q-0.032-0.416 0.064-0.896 0.064-0.288 0.288-0.896 0.32-0.96 0.384-1.536l6.144 4.352-0.064 1.408q-0.256 5.12-0.224 5.952t-0.32 1.408-1.12 0.928q-1.28 0.576-3.84 1.824l-3.072 1.44q-0.608 0.192-1.056 0.256h-0.032l0.16-0.96q0.32-0.224 0.608-0.64 0.16-0.224 0.448-0.736 0.416-0.704 0.704-1.024 0.032-0.064-0.064-0.384l-0.128-0.384q-0.672 0.992-1.632 2.176l0.032-0.032q-0.224 0.224-0.192 0.448 0 0.128 0.128 0.384l0.096 0.192q-0.192 0.032-0.448 0.32-0.224 0.224-0.352 0.288-0.192 0.096-0.448 0l-1.056 1.344q2.912 4.16 5.152 7.328 0.064 0.064 0.064 0.128 0.384 0.608 0.416 1.024t-0.32 0.704q-0.288 0.224-0.832 0.16t-0.896-0.384-0.384-0.896v0 0q0.032-0.416-0.16-0.736-0.16-0.224-0.512-0.512-0.576-0.416-0.736-0.576-0.224-0.224-0.32-0.512l-0.096-0.928q-0.352-0.256-0.704-0.384l-0.032-0.032q-0.352-0.064-0.544-0.32t-0.224-0.608q0-0.128 0.032-0.192v0q0.064-0.896-0.448-0.96-0.192-0.032-0.576-0.032-0.512 0-1.056 0.096h0.032q-0.288 0.16-0.288 0.448v0q0.128 0.8-0.32 1.28-0.384 0.416-1.216 0.64 0.224 1.664-1.248 2.208-0.544 0.256-0.544 1.12 0 0.576-0.544 0.992t-1.184 0.352q-0.32-0.032-0.512-0.256t-0.192-0.544q0-0.128 0.032-0.192v0.032q0.128-0.608 0.48-1.088h-0.032l5.152-7.296q-0.096-0.128-0.288-0.48t-0.288-0.48q-0.192-0.256-0.384-0.288-0.32-0.096-0.8-0.416-0.352-0.224-0.544-0.32l0.064-0.16q0.224-0.416 0.16-0.512-0.768-1.344-1.824-2.4v0q-0.096 0.608-0.096 0.736t0.128 0.288l0.448 0.64q0.352 0.544 0.544 0.8 0.256 0.32 0.576 0.576v0zM5.728 8.608q0.608 1.088 1.952 2.912l0.736 0.992 0.096-0.48q0.064-0.352 0-0.448-0.8-1.216-2.080-2.816-0.032-0.064-0.416-0.128zM26.432 8.64q-0.192 0.032-0.48 0.064t-0.384 0.096q-1.056 1.408-2.048 2.848-0.032 0.064 0.064 0.352t0.128 0.48z"></path>
</svg>
