<!-- Generated by IcoMoon.io -->
<svg version="1.1" xmlns="http://www.w3.org/2000/svg" width="32" height="32" viewBox="0 0 32 32">
<title>leviathan_sun</title>
<path d="M25.856 5.76q-0.064 0.448-0.32 0.896-0.16 0.288-0.544 0.768t-0.544 0.704q-0.864 1.376-1.856 2.56l0.032-0.032q-0.256 0.32-0.32 0.576-0.096 0.32 0.096 0.704 0.384 0.416 0.864 0.352 0.288-0.032 0.896-0.32l0.352-0.16 1.024-2.24 0.96-0.512 1.376 0.416-1.344 0.576q-0.128 0.352-0.32 1.024t-0.352 0.928q-0.16 0.448-0.352 0.736t-0.608 0.544q-0.224 0.16-0.736 0.48t-0.768 0.448q1.152 0.288 3.392 0.704 2.144 0.384 3.2 0.64-0.896 0.288-2.048 0.544l-2.080 0.384q-1.696 0.288-2.56 0.48l-0.16 0.896 1.024 0.896q0.416 0.128 0.896 0.032 0.288-0.032 0.832-0.256 0.64-0.224 0.992-0.288 0.576-0.064 1.088 0.192l0.992 1.408-1.6-0.768q-0.288 0.128-0.832 0.448t-0.864 0.448q-0.448 0.192-0.8 0.256t-0.832 0l-1.728-0.416q0.128 0.384 0.256 0.608l-0.032-0.032q0.64 0.928 1.952 2.752l1.152 1.6q0.096 0.192 0.224 0.64v0.032l0.032-0.032q-0.448-0.128-0.672-0.256v0.032l-4.832-3.424-1.088 0.512 0.48 1.76 0.416 0.16q0.704 0.256 1.056 0.448l1.44 0.832-0.352 1.92-0.224-0.032-0.096-0.832v0.064l-0.032-0.128-0.256-0.64 0.032 0.064-0.448-0.064q-1.12-0.192-1.632-0.352-0.832-0.288-1.312-0.832-0.576-0.64-0.704-1.728-0.288 0.544-0.448 1.184-0.128 0.416-0.256 1.184l-0.192 0.928q-0.128 0.48-0.288 1.568-0.192 1.184-0.352 1.76-0.224-0.48-0.384-1.12-0.096-0.352-0.224-1.12l-0.16-0.896q-0.128-0.608-0.352-1.888l-0.256-1.504-0.832-0.352-1.024 1.088q-0.128 0.448 0.032 0.928 0.064 0.288 0.352 0.832 0.224 0.448 0.288 0.672 0.16 0.416 0.096 0.768-0.256 0.48-0.704 0.8t-0.992 0.352h-0.032l0.896-1.184-0.896-1.344q-0.48-0.8-0.544-1.408-0.096-0.768 0.352-1.472 0.128-0.32 0.256-0.896v-0.032q-0.352 0.16-0.928 0.48l0.032-0.032-4.192 3.008q-0.288 0.128-0.672 0.192l0.032 0.032 0.864-1.312q1.504-2.304 2.304-3.456l0.064-0.096q0.224-0.352 0.288-0.544 0.096-0.32-0.032-0.672l-0.768-0.416-1.056 0.32q-0.32 0.224-0.544 0.64-0.128 0.224-0.32 0.768t-0.32 0.768q-0.224 0.416-0.608 0.64-0.288 0.096-0.576 0.096-0.8 0-1.344-0.544l1.344-0.128q0.256-0.544 0.384-1.152v-0.032q0.192-1.152 0.704-1.856 0.576-0.768 1.632-1.056 0.288-0.16 0.512-0.32v0q-0.544-0.224-1.216-0.352-0.384-0.096-1.152-0.192-0.64-0.064-0.96-0.128-1.568-0.288-3.456-0.672 0.544-0.32 1.248-0.48 0.416-0.096 1.248-0.192 0.64-0.096 0.96-0.16 0.608-0.128 1.856-0.32l1.536-0.288 0.128-0.992-1.504-1.024-2.56 0.96q-0.704-0.256-0.96-0.512-0.384-0.352-0.352-0.992l-0.032 0.032 1.056 0.48 3.040-1.504 2.24 0.96q-0.128-0.448-0.352-0.96v0.032q-0.544-0.832-1.696-2.464l-1.088-1.536q-0.096-0.192-0.224-0.64v-0.032q0.608 0.224 1.248 0.64 0.416 0.256 1.184 0.8 0.704 0.512 1.056 0.736 0.512 0.32 1.376 0.992l0.096 0.096q0.512 0.128 0.832-0.032t0.416-0.672l-0.352-1.184q-0.256-0.32-0.672-0.544-0.224-0.128-0.736-0.32t-0.8-0.352q-0.384-0.224-0.608-0.576-0.096-0.288-0.096-0.64 0-0.704 0.512-1.28h-0.032l0.224 1.184q0.224 0.192 0.8 0.512h0.032q0.288 0.096 0.864 0.256l0.704 0.192q0.352 0.128 0.64 0.352t0.512 0.576l0.448 0.768 0.352 0.64q0.32-0.448 0.448-1.024 0.096-0.352 0.192-1.088 0.064-0.832 0.192-1.216 0.224-0.768 0.384-2.24l0.128-0.992h0.288l1.184 6.592 0.896 0.288 0.96-1.12q0.096-0.448-0.064-0.928-0.064-0.288-0.352-0.8-0.32-0.64-0.384-1.024 0.16-0.512 0.64-0.832 0.32-0.224 1.088-0.48l-0.608 1.248q0.16 0.32 0.48 0.864l0.448 0.768q0.192 0.416 0.256 0.736t-0.064 0.768q-0.032 0.288-0.224 0.864-0.16 0.512-0.224 0.768 0.256-0.064 0.704-0.256h-0.032q1.472-1.024 4.352-3.072 0.192-0.128 0.64-0.256h0.032zM25.888 5.792l0.032-0.064-0.064 0.032zM6.56 6.080q-0.064-0.064-0.096-0.064t0.096 0.064l-0.064-0.128 0.064 0.096v0.032zM3.616 11.712l-0.064-0.032q-0.032-0.064-0.032-0.032l0.064 0.096zM6.24 25.376q0 0.032-0.032 0.064h-0.032l0.096-0.032zM25.856 25.408l0.224 0.096-0.192-0.128z"></path>
</svg>
