<!-- Generated by IcoMoon.io -->
<svg version="1.1" xmlns="http://www.w3.org/2000/svg" width="32" height="32" viewBox="0 0 32 32">
<title>leviathan_cup</title>
<path d="M14.976 25.728q-0.832-0.704-1.088-1.408-0.288-0.8 0.096-1.728 0.192-0.416 0.384-1.344 0.16-0.736 0.288-1.088 0.192-0.576 0.192-1.216t-0.192-1.248v0.032q-0.16-0.448-0.48-0.736v0q-0.8-0.832-0.768-1.792 0.064-1.088 1.152-1.984 0.256-0.256 0.32-0.384t-0.032-0.704q-1.536 0.096-3.2-0.384-1.344-0.384-3.040-1.248l-0.48 4.256h-0.128q-0.16-1.888-0.48-4.736-0.288-0.288-0.768-0.672-1.792-1.376-2.72-2.496-1.28-1.504-1.728-3.264-0.096-0.48-0.224-1.472l-0.064-0.384h5.248q0 0.384 0.064 1.152 0.192 4.416 0.32 6.688l0.64 0.096 0.064-0.064q0.128-0.128 0.128-0.192l0.032-1.472q0.032-1.952 0.064-2.944 0.032-1.216 0.288-2.336l-0.032 0.096q0.128-0.512 0.448-0.768t0.832-0.32h19.136l0.704 0.032q0.16 1.344-0.352 2.624-0.384 1.088-1.312 2.24-3.296 4.064-8.864 5.44-0.416 0.096-1.344 0.128-0.544 0-0.8 0.032-0.256 0.256-0.192 0.512t0.352 0.48q1.152 0.992 1.216 1.888t-0.896 2.112q-0.576 0.736-0.576 1.632 0 0.352 0.096 0.704v-0.032l0.288 1.152q0.288 1.28 0.512 1.888 0.384 0.992 0.16 1.792t-1.088 1.408l0.16 0.256q0.992 1.472 3.168 1.952 0.384 0.096 1.088 0.352 0.576 0.192 0.896 0.256 0.48 0.16 0.928 0.16 0.16 0 0.352 0.128 0.128 0.064 0.448 0.32t0.512 0.384h-16.992q0.192-0.416 0.544-0.64 0.256-0.16 0.8-0.288 2.56-0.608 4.736-1.504l-0.192 0.064q0.224-0.096 0.48-0.352 0.16-0.16 0.448-0.512zM8.032 16.064q0.544 0.736 0.544 1.696 0 0.384-0.096 0.736h-0.736q-0.192-0.448-0.128-0.928 0.032-0.32 0.224-0.896z"></path>
</svg>
