<!-- Generated by IcoMoon.io -->
<svg version="1.1" xmlns="http://www.w3.org/2000/svg" width="32" height="32" viewBox="0 0 32 32">
<title>osiris</title>
<path d="M32 15.998c-1.895 3.578-4.306 6.628-7.635 8.86-5.716 3.837-12.477 3.488-18.017-0.92-2.685-2.135-4.718-4.807-6.349-7.901 0.662-1.366 1.392-2.539 2.227-3.627l-0.036 0.049c1.837-2.498 4.004-4.65 6.768-6.105 4.813-2.535 9.645-2.489 14.384 0.182 3.871 2.195 6.541 5.539 8.657 9.461zM27.229 16.032c-1.569-2.897-3.541-5.299-6.41-6.848-1.956-1.053-4.057-1.474-6.251-1.114-4.757 0.784-7.563 3.994-9.777 7.863 1.232 2.801 3.929 5.669 6.512 6.986 2.045 1.039 4.202 1.404 6.439 0.971 4.544-0.883 7.267-3.999 9.484-7.858z"></path>
<path d="M18.221 21.438c-0.532-0.341-0.537-1.109-1.14-1.465-0.465 0.608-0.044 1.327-0.317 2.017-0.385-0.598-0.269-1.327-0.729-1.874-0.622 0.45-0.383 1.264-0.814 1.83-0.285-0.644 0.13-1.363-0.293-1.97-0.659 0.341-0.668 1.179-1.264 1.614-0.051-0.709 0.47-1.302 0.264-2.029-0.692 0.221-0.958 0.908-1.607 1.259 0.118-0.729 0.753-1.164 0.799-1.901-0.739-0.038-1.181 0.615-1.913 0.77 0.341-0.647 0.983-0.946 1.29-1.591-0.768-0.256-1.363 0.296-2.065 0.227 0.44-0.552 1.225-0.615 1.603-1.203-0.288-0.341-0.647-0.22-0.97-0.239s-0.607 0-1.073 0c0.647-0.525 1.401-0.365 1.932-0.852-0.511-0.559-1.302-0.392-1.951-0.828 0.729-0.157 1.384 0.046 2.045-0.184-0.298-0.76-1.164-0.731-1.554-1.31 0.682-0.070 1.264 0.446 1.937 0.249 0.026-0.445-0.351-0.584-0.547-0.84s-0.486-0.39-0.642-0.784c0.699 0.152 1.157 0.75 1.908 0.804-0.063-0.751-0.607-1.203-0.835-1.91 0.682 0.278 0.939 1.022 1.627 1.244 0.232-0.746-0.298-1.344-0.25-2.065 0.547 0.48 0.658 1.227 1.237 1.68 0.453-0.627 0.075-1.317 0.305-1.978 0.446 0.53 0.278 1.28 0.746 1.799 0.622-0.434 0.365-1.268 0.852-1.835 0.181 0.682-0.070 1.338 0.215 1.997 0.717-0.353 0.714-1.223 1.324-1.632 0 0.682-0.431 1.269-0.312 1.985 0.755-0.109 0.959-0.877 1.6-1.172-0.061 0.699-0.738 1.128-0.743 1.874 0.746 0 1.172-0.632 1.903-0.774-0.341 0.637-0.995 0.917-1.256 1.574 0.753 0.245 1.348-0.286 2.026-0.227-0.405 0.579-1.222 0.608-1.632 1.242 0.629 0.414 1.307 0.066 1.971 0.262-0.499 0.498-1.297 0.279-1.811 0.808 0.484 0.538 1.242 0.356 1.811 0.774-0.637 0.266-1.314-0.078-1.936 0.273 0.341 0.673 1.121 0.724 1.607 1.249-0.702 0.114-1.283-0.423-1.98-0.242 0.085 0.71 0.842 0.903 1.070 1.469l-0.072 0.073c-0.59-0.101-0.978-0.666-1.649-0.71-0.090 0.751 0.596 1.177 0.741 1.884-0.682-0.247-0.898-1.038-1.605-1.193-0.288 0.682 0.371 1.254 0.145 1.888zM13.385 15.857c-0.002 0.039-0.003 0.085-0.003 0.13 0 1.389 1.108 2.519 2.488 2.555h0.003c0.013 0 0.029 0 0.045 0 1.391 0 2.527-1.087 2.607-2.457v-0.007c0.001-0.027 0.002-0.058 0.002-0.090 0-1.37-1.069-2.49-2.419-2.572h-0.007c-1.487-0.065-2.656 0.983-2.716 2.44z"></path>
<path d="M20.649 19.522c0.061 0.032 0.128 0.060 0.084 0.15-0.087 0.044-0.128 0-0.155-0.077z"></path>
<path d="M18.209 21.457c0.077-0.077 0.106-0.034 0.119 0.051-0.092 0.061-0.095-0.010-0.107-0.070z"></path>
</svg>
