<!-- Generated by IcoMoon.io -->
<svg version="1.1" xmlns="http://www.w3.org/2000/svg" width="32" height="32" viewBox="0 0 32 32">
<title>platform_steam</title>
<path d="M15.968 1.568q-3.616 0-6.752 1.728-3.040 1.696-4.96 4.672t-2.24 6.496l7.52 3.104q0.992-0.704 2.24-0.704h0.192l3.36-4.832v-0.064q0-1.44 0.704-2.656t1.92-1.92 2.656-0.704 2.656 0.704 1.92 1.92 0.704 2.656-0.704 2.656-1.92 1.92-2.656 0.704h-0.128l-4.768 3.424v0.16q0 1.088-0.512 2.016t-1.44 1.44-1.984 0.512q-1.408 0-2.496-0.896t-1.408-2.272l-5.376-2.24q0.832 2.944 2.816 5.28t4.704 3.584q2.816 1.344 5.952 1.344 3.808 0 7.072-1.92 3.168-1.856 5.024-5.024 1.92-3.264 1.92-7.072t-1.92-7.072q-1.856-3.168-5.024-5.024-3.264-1.92-7.072-1.92zM10.784 22.816l-1.696-0.704q0.48 1.024 1.568 1.472t2.24 0 1.6-1.6q0.256-0.544 0.256-1.152t-0.256-1.12q-0.544-1.152-1.632-1.6t-2.144-0.064l1.76 0.736q0.832 0.352 1.184 1.216t0 1.664-1.184 1.152-1.696 0v0zM24.128 11.968q0-0.928-0.48-1.728t-1.28-1.312-1.76-0.48-1.76 0.48-1.28 1.28-0.48 1.76 0.48 1.792 1.28 1.28 1.76 0.448 1.76-0.48 1.28-1.28 0.48-1.76zM17.952 11.968q0-1.12 0.8-1.888t1.856-0.768 1.888 0.8 0.768 1.856-0.768 1.888-1.888 0.768-1.856-0.768-0.8-1.888z"></path>
</svg>
