<!-- Generated by IcoMoon.io -->
<svg version="1.1" xmlns="http://www.w3.org/2000/svg" width="32" height="32" viewBox="0 0 32 32">
<title>platform_xbox</title>
<path d="M8.224 3.968l-0.032 0.032q0.192-0.192 0.288-0.224 3.328-2.208 7.52-2.208 3.872 0 7.2 2.016l0.384 0.224q0.256 0.16 0.384 0.384-0.704-0.768-2.080-0.512-1.152 0.16-2.656 0.992-1.088 0.576-2.272 1.408l-0.96 0.704q-3.232-2.496-5.376-3.072-0.8-0.224-1.472-0.128-0.576 0.096-0.928 0.384zM26.272 6.080q-0.128-0.128-0.192-0.224-0.672-0.704-1.696-0.64-0.832 0.256-2.016 0.928-1.952 1.088-3.84 2.88l0.928 0.96q1.12 1.184 2.112 2.4 1.408 1.664 2.304 3.136 1.152 1.856 1.696 3.136 0.736 1.568 0.928 3.008 0.224 1.6-0.128 3.328 1.696-1.888 2.656-4.32t0.96-5.12-0.992-5.152q-0.96-2.4-2.72-4.32zM21.216 16.928q-2.080-2.304-4-4.224-0.384-0.352-1.216-1.184l-0.448 0.416q-0.544 0.544-1.056 1.088l-1.152 1.184q-1.568 1.6-2.080 2.144-1.76 1.856-3.2 3.904-2.208 3.072-2.336 4.768l-0.096-0.384q-0.128-0.544-0.096-1.248 0-0.96 0.256-2.080 0.288-1.44 0.96-3.072 0.864-2.080 3.232-5.216 1.952-2.624 3.424-4.064l-0.448-0.448q-0.544-0.544-1.152-1.056-0.864-0.672-1.664-1.184l-0.064-0.032q-1.44-0.896-2.752-0.992-0.416 0.032-0.8 0.224-0.288 0.16-0.544 0.352l-0.192 0.192q-1.792 1.92-2.752 4.32-1.024 2.528-1.024 5.248 0 3.808 1.92 7.072 1.824 3.168 4.992 5.024 3.264 1.92 7.072 1.92 3.008 0 5.76-1.248 2.656-1.216 4.608-3.36l-0.16-0.576q-0.224-0.736-0.608-1.568-0.576-1.184-1.408-2.336-0.64-0.928-2.976-3.584z"></path>
</svg>
