<!-- Generated by IcoMoon.io -->
<svg version="1.1" xmlns="http://www.w3.org/2000/svg" width="32" height="32" viewBox="0 0 32 32">
<title>platform_playstation</title>
<path d="M12.704 4.8v20.224l4.352 1.344v-16.896q0-0.704 0.256-0.96 0.128-0.192 0.288-0.224t0.32 0.064q0.928 0.224 0.928 1.696v6.784q2.272 1.056 3.648 0.032 1.472-1.024 1.472-3.648 0-2.944-1.184-4.256-1.088-1.472-4-2.464-3.264-1.088-6.080-1.696zM11.36 17.024l-0.864 0.288-5.44 1.92-0.928 0.384q-1.056 0.448-1.6 0.896t-0.512 0.896q0.032 0.608 0.704 1.056t1.984 0.8q3.264 0.896 6.656 0.384v-2.304l-1.856 0.672-1.536 0.32-1.472-0.16q-0.256-0.16-0.288-0.32t0.064-0.288l0.128-0.064q0.416-0.224 0.64-0.288l4.32-1.536v-2.656zM23.904 18.112q-0.448-0.032-1.216 0.032-2.272 0.064-4.48 0.736v2.72l4.64-1.6 1.056-0.288q0.416-0.096 0.928-0.032l0.448 0.096q0.544 0.032 0.672 0.352t-0.736 0.64l-1.376 0.544-5.632 1.984v2.656l8.928-3.168 0.768-0.352q2.208-0.832 2.080-1.888-0.032-1.024-2.368-1.76-1.856-0.608-3.712-0.672z"></path>
</svg>
