<!-- Generated by IcoMoon.io -->
<svg version="1.1" xmlns="http://www.w3.org/2000/svg" width="32" height="32" viewBox="0 0 32 32">
<title>platform_stadia</title>
<path d="M0.256 11.936q-0.256 0.192-0.256 0.512v0.032q0 0.064 0.064 0.256l3.040 6.912q0.128 0.256 0.384 0.352t0.448 0q2.912-1.024 5.76-1.6 4.768-0.928 7.68-0.16l-0.768 0.096q-0.96 0.128-1.984 0.416-1.44 0.416-2.784 1.056-1.664 0.8-3.072 1.888-0.16 0.128-0.192 0.352t0.032 0.416l1.888 4.352q0.096 0.224 0.32 0.256t0.384-0.192q0.64-0.96 1.824-1.696 0.768-0.448 2.272-1.088 2.368-0.96 4.896-1.408 2.72-0.448 5.44-0.224 0.224 0.032 0.416-0.096t0.256-0.352l1.376-4.416q0.064-0.192 0-0.384t-0.224-0.32q-2.336-1.664-5.76-2.656-5.76-1.664-12.64-0.704l0.416-0.224q0.544-0.256 1.184-0.512 0.928-0.352 1.92-0.64 1.216-0.32 2.528-0.544 1.504-0.224 3.040-0.288 1.792-0.032 3.552 0.192 1.984 0.256 3.936 0.832 2.144 0.64 4.224 1.696 0.256 0.128 0.544 0.032t0.352-0.416l1.216-3.904q0.032-0.064 0.032-0.16v-0.032q0-0.352-0.32-0.544-2.016-1.152-4.608-1.952-4.192-1.344-8.608-1.344-9.504 0-18.208 6.208z"></path>
</svg>
