<!-- Generated by IcoMoon.io -->
<svg version="1.1" xmlns="http://www.w3.org/2000/svg" width="32" height="32" viewBox="0 0 32 32">
<title>platform_blizzard</title>
<path d="M2.016 11.776v-0.032q0.384-0.384 0.8-0.512 2.016-0.48 3.936-0.576l1.248-0.064v-0.288l0.064-0.672q0.064-0.896 0.128-1.344 0.16-0.992 0.608-1.536 0.32-0.48 0.832-0.576t0.928 0.224q0.16 0.096 0.416 0.352l0.64 0.8v-0.096q0.064-1.024 0.16-1.536 0.16-1.184 0.608-2.144 0.224-0.416 0.448-0.672 0.256-0.352 0.608-0.512 0.992-0.48 2.016 0.128 0.864 0.448 1.888 1.632 1.472 1.76 2.56 4.032v0.032q0.096 0.128 0.224 0.128l0.608 0.096q0.736 0.096 1.088 0.192 1.76 0.32 3.136 0.928 0.128 0.032 0.192 0t0.128-0.096l0.672-1.216q0.608-1.12 0.896-1.696 0.448-0.96 0.736-1.76 0.128-0.288 0.16-0.544 0.096 0.128 0.096 0.384t-0.064 0.544q-0.448 1.408-0.736 2.080-0.192 0.448-0.608 1.312l-0.608 1.344 0.032 0.032 0.128 0.064q1.312 0.8 2.048 1.568t0.832 1.472-0.48 1.088q-0.48 0.288-1.12 0.352l-0.608 0.064 0.416 0.32q0.48 0.32 0.704 0.512 0.896 0.672 1.568 1.568 0.544 0.768 0.672 1.632v0.16q-0.096 0.768-0.512 1.12-0.48 0.544-1.376 0.864-1.536 0.576-3.68 0.64-0.896 0.032-2.72 0.032h-0.032q-0.128 0-0.192 0.096l-0.192 0.224-0.832 1.056q-0.704 0.768-1.152 1.216-0.672 0.64-1.312 1.056-0.128 0.096-0.032 0.224l0.544 0.992q1.248 2.208 2.656 3.776l0.064 0.16h-0.032l-0.16-0.096q-0.32-0.16-0.448-0.288-0.32-0.288-0.896-0.864v-0.032q-0.704-0.8-1.92-2.592-0.16-0.224-0.48-0.736l-0.064 0.032q-1.312 0.768-2.208 1.024-0.8 0.256-1.6 0.16-0.544-0.096-0.832-0.512t-0.224-0.896q0.16-0.736 0.416-1.248l-0.032 0.032q0.064-0.064 0.064-0.128l-1.632 0.704q-1.376 0.512-2.496 0.416-0.896-0.064-1.408-0.64t-0.544-1.472q0-1.152 0.48-2.496 0.704-1.92 2.112-4.128 0.16-0.256 0.032-0.48-0.896-2.272-1.152-3.744-0.128-0.704-0.16-1.056l-0.192-0.032h-0.768q-1.024-0.032-1.504 0-1.856 0.064-3.456 0.416l0.128-0.032zM24.384 11.008q-0.128-0.096-0.256-0.128-2.592-1.216-5.568-1.504h-0.096q-2.56-0.256-4.672 0.8-0.224 0.096-0.192 0.352 0 1.824 0.416 3.904 0.576 2.816 1.248 4.864l-0.064-0.32 0.192 0.672 0.064 0.16-0.928 0.384q-0.096 0.064-0.16-0.064-0.416-0.832-1.024-2.592l-0.064-0.192q-0.576-1.888-1.152-4.64l-0.128-0.736q-0.96 1.216-1.12 3.104-0.224-0.864 0-1.792 0.16-0.704 0.672-1.664l-2.112-0.192v0.16q0.128 1.28 0.512 2.848l-0.032-0.128q0.64 2.56 1.728 4.224t2.432 2.496q0.096 0.064 0.16 0.032l0.16-0.064q0.832-0.512 1.216-0.8 1.408-0.992 3.2-2.656 1.632-1.568 2.592-2.688 0.096-0.128 0.192-0.032 0.32 0.192 0.736 0.512 0.128 0.096 0 0.224l-0.576 0.704q-0.736 0.96-1.152 1.408-1.248 1.44-3.616 3.552-0.16 0.128-0.512 0.48 1.408 0.128 3.136-0.544-0.64 0.576-1.536 0.8-0.704 0.192-1.728 0.192l0.928 1.92q0.128-0.096 0.256-0.128 1.728-1.216 3.136-2.816v-0.032q1.12-1.28 1.824-2.752 0.736-1.536 0.768-3.008 0-0.16-0.128-0.256l-1.76-0.864q-2.784-1.184-6.4-2.048l-0.832-0.16 0.096-0.992q0-0.192 0.192-0.128l0.832 0.16q1.248 0.192 1.824 0.32 2.656 0.512 5.408 1.504l0.192 0.064q-0.32-0.736-0.864-1.376-0.448-0.48-1.184-1.12 0.8 0.256 1.44 0.896 0.48 0.48 1.088 1.376zM18.688 8.448q0-0.032-0.032-0.064l-0.032-0.064q-0.512-0.736-0.992-1.376-0.672-0.832-1.28-1.216-0.768-0.544-1.472 0.064-0.448 0.352-0.736 0.992-0.416 1.024-0.544 2.624 0.032 0.064 0.032 0.128v0q1.088-0.64 2.432-0.896 0.96-0.192 2.144-0.192h0.48zM13.568 21.44q-0.992-0.544-2.048-1.664-0.768-0.8-1.472-2.176 0 0.032-0.064 0.096v0q-0.512 0.992-0.864 2.112-0.224 0.736-0.192 1.28 0.032 0.384 0.16 0.64t0.384 0.416q0.416 0.224 0.896 0.224h0.096q1.248 0 2.336-0.544l-0.032 0.032 0.288-0.16q0.352-0.192 0.512-0.256zM23.904 15.488q-0.032 2.624-1.6 4.992 1.408 0 2.592-0.32 0.768-0.256 1.152-0.544 0.64-0.48 0.448-1.248-0.16-0.48-0.384-0.8v0q-0.576-0.896-1.728-1.728-0.224-0.192-0.48-0.352zM9.472 10.56l2.272 0.096-0.096-1.632-0.096-0.384q-0.16-0.288-0.448-0.576v0q-0.32-0.32-0.768-0.064-0.128 0.096-0.32 0.288v0q-0.32 0.448-0.448 1.088-0.096 0.48-0.096 1.184zM25.088 11.424l-1.216 1.952q0.96 0.448 1.44 0.704 0.256 0.128 0.448 0.128l0.128-0.032q0.192 0 0.32-0.032 0.352 0 0.512-0.256 0.256-0.352 0.096-0.768-0.096-0.192-0.288-0.512v0q-0.512-0.64-1.44-1.184zM15.456 22.496q-0.768 0.512-1.536 1.056l-0.096 0.096-0.256 0.64v0.16q0 0.128 0.064 0.32v0q0.224 0.416 0.768 0.416t1.12-0.192q0.384-0.16 1.024-0.48z"></path>
</svg>
