<!-- Generated by IcoMoon.io -->
<svg version="1.1" xmlns="http://www.w3.org/2000/svg" width="32" height="32" viewBox="0 0 32 32">
<title>power</title>
<path d="M22.080 9.344q-3.456-3.36-6.144-7.392l-0.128-0.16q-2.944 4.192-6.176 7.52l0.032-0.032q-3.584 3.68-7.488 6.56l-0.16 0.096q4.224 2.848 7.808 6.432v-0.032q3.424 3.392 5.888 6.88l0.096 0.16q5.664-8.32 13.984-13.664l0.192-0.128q-4.416-2.816-7.904-6.24v0zM18.4 18.208q-1.312 1.312-2.432 2.912l-0.032 0.064q-1.12-1.536-2.432-2.848v0q-1.248-1.248-3.104-2.56l-0.096-0.032q1.664-1.248 3.136-2.72v0q1.408-1.536 2.432-2.976l0.064-0.064q1.12 1.696 2.528 3.040v0q1.376 1.376 3.136 2.528l0.096 0.032q-1.728 1.12-3.296 2.624v0z"></path>
</svg>
