<!-- Generated by IcoMoon.io -->
<svg version="1.1" xmlns="http://www.w3.org/2000/svg" width="32" height="32" viewBox="0 0 32 32">
<title>raid</title>
<path d="M22.073 13.628c0.014 0.539 0.042 1.134 0.040 1.73 0.004 0.441 0.083 0.863 0.225 1.254l-0.008-0.026c0.114 0.286 0.211 0.625 0.275 0.976l0.005 0.034c0.117 0.866-0.351 1.362-1.060 1.74-0.042 0.023-0.092 0.037-0.145 0.037-0.003 0-0.007 0-0.010 0v0c-0.051-0.009-0.097-0.024-0.14-0.046l0.003 0.001c-0.047-0.17 0.051-0.276 0.116-0.391 0.082-0.142 0.17-0.276 0.245-0.421 0.189-0.376 0.136-0.664-0.169-0.95-0.055-0.047-0.115-0.093-0.178-0.135l-0.007-0.004c-0.475-0.1-0.822 0.148-1.167 0.387-0.489 0.337-0.772 0.785-0.749 1.4 0.010 0.245 0.011 0.489 0 0.734-0.011 0.199-0.047 0.397-0.073 0.618h-0.462c-0.183-0.149-0.23-0.374-0.254-0.579-0.099-0.808-0.6-1.246-1.322-1.474-0.365-0.124-0.785-0.195-1.221-0.195-0.473 0-0.926 0.084-1.346 0.238l0.027-0.009c-0.67 0.237-1.133 0.665-1.223 1.418-0.016 0.236-0.112 0.446-0.259 0.608l0.001-0.001h-0.459c-0.029-0.209-0.070-0.408-0.082-0.602-0.014-0.258-0.013-0.517 0-0.775 0.023-0.532-0.199-0.951-0.602-1.268-0.211-0.165-0.449-0.311-0.704-0.428l-0.022-0.009c-0.163-0.075-0.361-0.076-0.537-0.108-0.113 0.083-0.212 0.166-0.305 0.255l0.001-0.001c-0.221 0.245-0.282 0.519-0.122 0.821 0.088 0.163 0.196 0.326 0.279 0.494 0.056 0.113 0.176 0.218 0.082 0.398-0.062 0-0.152 0.038-0.212 0.009-0.519-0.245-0.95-0.589-1.096-1.174-0.093-0.375-0.026-0.753 0.092-1.118 0.091-0.282 0.204-0.558 0.275-0.844 0.051-0.212 0.086-0.459 0.095-0.712v-0.007c0.017-0.326 0-0.652 0.012-0.979 0.011-0.296 0.036-0.593 0.070-0.888 0.014-0.2 0.133-0.369 0.301-0.454l0.003-0.001c0.321-0.143 0.477-0.408 0.66-0.685 0.768-1.163 1.911-2.024 3.255-2.416l0.041-0.010c0.525-0.158 1.129-0.248 1.753-0.248 0.3 0 0.595 0.021 0.884 0.061l-0.033-0.004c1.18 0.144 2.202 0.619 3.111 1.354 0.503 0.41 0.922 0.901 1.242 1.456l0.013 0.025c0.091 0.163 0.193 0.296 0.363 0.365 0.221 0.089 0.335 0.268 0.5 0.548zM17.373 12.703c0.032 0.414 0.065 0.871 0.101 1.328 0.039 0.503 0.326 0.779 0.702 0.879 0.734 0.197 1.479 0.278 2.226 0.363 0.025 0.004 0.053 0.006 0.082 0.006 0.186 0 0.35-0.095 0.445-0.239l0.001-0.002c0.167-0.245 0.245-1.087-0.057-1.386-0.28-0.281-0.563-0.532-0.952-0.665-0.665-0.228-1.351-0.352-2.039-0.462-0.152-0.025-0.33-0.065-0.511 0.179zM14.61 12.592c-0.085-0.036-0.184-0.061-0.288-0.071h-0.004c-0.231 0.007-0.451 0.035-0.664 0.082l0.024-0.004c-0.562 0.13-1.134 0.239-1.678 0.425-0.769 0.263-1.146 0.885-1.035 1.625 0.082 0.524 0.32 0.667 0.767 0.622 0.401-0.040 0.802-0.089 1.2-0.158 0.33-0.058 0.652-0.152 0.979-0.227 0.364-0.082 0.552-0.349 0.617-0.68 0.067-0.332 0.106-0.713 0.106-1.103 0-0.179-0.008-0.357-0.024-0.532l0.002 0.023zM16.914 16.555c0.051-0.108 0.11-0.227 0.163-0.348 0.122-0.285 0.112-0.592 0.064-0.882-0.099-0.592-0.332-1.116-0.669-1.558l0.006 0.009c-0.286-0.382-0.641-0.373-0.937 0.006-0.016 0.021-0.024 0.049-0.041 0.070-0.298 0.406-0.513 0.892-0.608 1.419l-0.003 0.021c-0.024 0.11-0.038 0.237-0.038 0.366 0 0.214 0.038 0.419 0.108 0.608l-0.004-0.012c0.122 0.326 0.356 0.417 0.676 0.269 0.061-0.029 0.115-0.072 0.177-0.098 0.095-0.041 0.193-0.073 0.283-0.106 0.234 0.208 0.457 0.356 0.824 0.236z"></path>
<path d="M6.806 18.011c0.117 0.608 0.226 1.176 0.339 1.769 0.39 0.124 0.576 0.445 0.74 0.796 0.23 0.489 0.478 0.97 0.722 1.452 0.163 0.316 0.216 0.637 0.044 1.003 0.334 0.474 0.674 0.958 1.027 1.459 0.391-0.046 0.689 0.141 0.979 0.391 0.356 0.312 0.741 0.59 1.107 0.891 0.252 0.206 0.508 0.412 0.599 0.752l1.603 0.299v1.158l-2.046-0.373c0.035-0.006 0-0.009-0.017 0.004-0.438 0.254-0.828 0.145-1.195-0.154q-0.676-0.551-1.357-1.1c-0.307-0.249-0.519-0.541-0.517-0.964 0-0.12-0.087-0.25-0.163-0.358-0.336-0.489-0.682-0.979-1.037-1.482-0.347-0.064-0.628-0.296-0.76-0.607l-0.003-0.007c-0.245-0.527-0.512-1.044-0.777-1.561-0.208-0.408-0.312-0.811-0.029-1.196-0.131-0.734-0.257-1.437-0.382-2.138l0.051-0.015c-0.061-0.071-0.126-0.139-0.183-0.214-0.144-0.182-0.231-0.414-0.231-0.667 0-0.090 0.011-0.178 0.032-0.261l-0.002 0.007c0.128-0.619 0.265-1.236 0.4-1.854 0.090-0.408 0.206-0.561 0.6-0.816 0.245-0.642 0.489-1.283 0.734-1.917-0.017-0.188-0.038-0.373-0.050-0.559 0-0.008 0-0.018 0-0.027 0-0.176 0.062-0.337 0.165-0.463l-0.001 0.001c0.378-0.511 0.754-1.024 1.134-1.534 0.077-0.1 0.157-0.189 0.244-0.271l0.001-0.001c0.266-0.254 0.571-0.352 0.914-0.216l1.824-0.858c0.108-0.524 0.483-0.749 0.979-0.874 0.561-0.144 1.102-0.343 1.673-0.523v0.422c-0.687 0.284-1.432 0.382-2.15 0.758 0.507 0.141 0.608 0.471 0.505 0.941l1.646-0.495c0.007 0.139 0.015 0.269 0.023 0.426-0.496 0.154-0.979 0.326-1.468 0.444-0.224 0.051-0.476-0.016-0.794-0.035l-1.537 0.721c-0.034 0.369-0.209 0.648-0.426 0.917-0.305 0.378-0.579 0.782-0.873 1.171-0.306 0.408-0.309 0.401-0.802 0.592-0.198 0.516-0.408 1.067-0.631 1.64 0.285 0.331 0.28 0.711 0.171 1.129-0.142 0.546-0.245 1.104-0.346 1.66-0.059 0.313-0.238 0.538-0.476 0.736zM6.48 14.617c-0.173 0.132-0.293 0.325-0.327 0.546l-0.001 0.005q-0.196 0.886-0.379 1.774c-0.019 0.115-0.033 0.254-0.040 0.394v0.008l0.272 0.304c0.215-0.159 0.408-0.035 0.583-0.009 0.15-0.103 0.255-0.263 0.283-0.449v-0.004c0.133-0.604 0.271-1.205 0.396-1.81 0.042-0.2 0.056-0.408-0.126-0.579-0.058 0.020-0.125 0.032-0.195 0.032-0.185 0-0.35-0.082-0.462-0.212l-0.001-0.001zM9.735 10.295l-0.45-0.687c-0.377 0.073-0.408 0.087-0.576 0.311-0.33 0.439-0.664 0.884-0.99 1.336-0.108 0.148-0.194 0.311-0.301 0.484 0.549 0.059 0.549 0.059 0.897 0.531 0.013 0 0.032 0 0.038-0.012 0.448-0.593 0.897-1.186 1.337-1.784 0.028-0.053 0.045-0.114 0.048-0.18v-0.001zM11.609 27.28c0.102-0.267 0.194-0.51 0.308-0.809-0.59-0.519-1.239-1.038-1.876-1.532-0.082 0.188-0.128 0.385-0.245 0.515s-0.302 0.176-0.472 0.268c0.123 0.224 0.349 0.335 0.533 0.489 0.395 0.326 0.798 0.647 1.2 0.967 0.173 0.141 0.361 0.243 0.551 0.101zM8.312 22.781c0.017-0.057 0.026-0.122 0.026-0.19 0-0.134-0.038-0.259-0.104-0.365l0.002 0.003c-0.273-0.541-0.542-1.085-0.816-1.627-0.046-0.092-0.108-0.177-0.184-0.299-0.197 0.431-0.499 0.544-0.931 0.384 0.002 0.075 0.014 0.147 0.034 0.215l-0.002-0.006c0.32 0.652 0.644 1.305 0.968 1.957 0.064 0.141 0.194 0.242 0.35 0.263h0.002c0.162-0.2 0.367-0.341 0.653-0.335z"></path>
<path d="M18.038 26.968l1.423-0.305c0.163-0.522 0.648-0.78 1.034-1.13 0.26-0.236 0.548-0.443 0.809-0.678 0.223-0.201 0.463-0.326 0.79-0.271l1.005-1.478c0.008-0.023 0.013-0.050 0.013-0.077v0c-0.016-0.087-0.025-0.187-0.025-0.288 0-0.353 0.11-0.681 0.298-0.95l-0.004 0.005c0.25-0.384 0.452-0.801 0.664-1.208 0.163-0.32 0.36-0.605 0.734-0.719 0.139-0.595 0.276-1.183 0.417-1.794-0.313-0.214-0.426-0.552-0.502-0.92-0.11-0.526-0.222-1.054-0.378-1.567-0.113-0.376-0.034-0.689 0.175-1.023-0.218-0.531-0.442-1.077-0.665-1.624-0.32-0.061-0.59-0.243-0.764-0.497l-0.003-0.004c-0.339-0.457-0.702-0.897-1.056-1.34-0.215-0.248-0.351-0.568-0.368-0.92v-0.004c-0.345-0.182-0.683-0.351-1.011-0.537-0.13-0.074-0.266-0.109-0.387-0.048-0.211 0.106-0.408 0.037-0.589-0.033-0.529-0.199-1.050-0.42-1.592-0.639v-0.428c0.636 0.188 1.2 0.501 1.823 0.687-0.090-0.524-0.017-0.665 0.453-0.908-0.027-0.151-0.163-0.163-0.27-0.209-0.661-0.269-1.325-0.53-2.009-0.802v-0.339c0.041-0.011 0.082-0.037 0.116-0.028 0.192 0.056 0.388 0.11 0.571 0.184 0.501 0.2 0.997 0.408 1.496 0.616 0.451 0.185 0.581 0.332 0.714 0.84 0.241 0.125 0.504 0.259 0.765 0.398 0.179 0.095 0.35 0.208 0.533 0.293 0.111 0.055 0.241 0.092 0.378 0.103h0.004c0.339 0.008 0.635 0.181 0.813 0.442l0.002 0.003q0.553 0.752 1.147 1.474c0.274 0.332 0.374 0.679 0.204 1.081l0.785 1.957c0.342 0.192 0.583 0.53 0.638 0.927l0.001 0.007c0.119 0.655 0.258 1.209 0.427 1.749l-0.028-0.103c0.141 0.483 0.054 0.876-0.337 1.188 0.007 0.543-0.183 1.040-0.288 1.549-0.035 0.171-0.092 0.338-0.117 0.511-0.004 0.028-0.006 0.061-0.006 0.094 0 0.080 0.012 0.156 0.035 0.228l-0.001-0.005c0.039 0.117 0.061 0.252 0.061 0.391 0 0.244-0.068 0.472-0.187 0.666l0.003-0.006c-0.29 0.503-0.571 1.015-0.841 1.527-0.183 0.341-0.43 0.588-0.838 0.621-0.346 0.508-0.685 1.013-1.032 1.514-0.085 0.115-0.136 0.261-0.136 0.418 0 0.013 0 0.025 0.001 0.038v-0.002c0.012 0.326-0.147 0.566-0.389 0.767-0.448 0.371-0.904 0.734-1.335 1.126-0.408 0.369-0.835 0.48-1.294 0.237l-1.876 0.391c0-0.229-0.006-0.415-0.007-0.6s0.002-0.351 0.002-0.55zM24.663 15.205c0.17 0.711 0.332 1.362 0.478 2.016 0.047 0.207 0.116 0.385 0.303 0.503h0.564c0.228-0.196 0.315-0.398 0.224-0.714-0.156-0.54-0.237-1.101-0.375-1.647-0.060-0.238-0.090-0.515-0.377-0.635-0.089 0.064-0.19 0.12-0.298 0.165l-0.010 0.004c-0.118 0.024-0.255 0.039-0.394 0.039v0zM24.663 20.336c-0.396 0.728-0.741 1.369-1.092 2.007-0.082 0.155-0.075 0.31-0.039 0.502 0.295-0.048 0.44 0.188 0.606 0.349 0.187-0.040 0.338-0.164 0.414-0.33l0.002-0.004c0.32-0.595 0.648-1.187 0.966-1.784 0.026-0.078 0.043-0.167 0.048-0.26v-0.003c-0.44 0.13-0.718-0.019-0.907-0.479zM22.559 25.761c-0.605-0.163-0.646-0.21-0.709-0.771-0.638 0.433-1.17 0.968-1.756 1.435-0.072 0.073-0.135 0.156-0.188 0.245l-0.003 0.006 0.253 0.326c0.017 0.132 0.032 0.25 0.047 0.376 0.057 0.019 0.126 0.037 0.198 0.050l0.009 0.001c0.013 0 0.027 0.001 0.042 0.001 0.063 0 0.125-0.004 0.185-0.011l-0.007 0.001c0.639-0.518 1.291-1.041 1.926-1.659zM24.506 11.865c-0.408-0.664-0.897-1.201-1.332-1.775-0.086-0.113-0.17-0.245-0.316-0.266-0.090 0.163-0.144 0.342-0.265 0.446s-0.304 0.128-0.461 0.187c0.119 0.316 1.233 1.734 1.538 1.953 0.045-0.482 0.366-0.585 0.833-0.545z"></path>
<path d="M12.461 22.281c0.258 0.060 0.258 0.060 0.489-0.049 0.135-0.614 0.56-1.036 1.103-1.309 1.092-0.549 2.226-0.695 3.4-0.223 0.435 0.177 0.834 0.38 1.16 0.719 0.235 0.245 0.358 0.534 0.497 0.869l0.427 0.019c0.137-0.216 0.218-0.478 0.218-0.76 0-0.022 0-0.044-0.001-0.066v0.003q0.007-0.794 0.005-1.589c0-0.002 0-0.004 0-0.006 0-0.268 0.058-0.522 0.162-0.751l-0.005 0.011c0.069-0.155 0.169-0.245 0.37-0.183 0.189 0.372 0.115 0.778 0.095 1.178-0.007 0.121-0.035 0.24-0.041 0.36-0.033 0.677-0.039 1.355-0.101 2.029-0.043 0.423-0.132 0.81-0.261 1.177l0.011-0.035c-0.233 0.691-0.996 0.95-1.621 0.578-0.303-0.179-0.59-0.387-0.904-0.541-0.3-0.16-0.649-0.299-1.014-0.399l-0.036-0.008c-0.132-0.030-0.284-0.048-0.44-0.048-0.346 0-0.672 0.086-0.957 0.237l0.011-0.005c-0.435 0.212-0.849 0.468-1.277 0.696-0.159 0.099-0.342 0.18-0.537 0.232l-0.014 0.003c-0.516 0.099-1.040-0.315-1.161-0.703-0.113-0.326-0.205-0.71-0.258-1.107l-0.003-0.031c-0.062-0.577-0.065-1.162-0.095-1.744-0.022-0.418-0.059-0.836-0.067-1.255 0.009-0.213 0.034-0.414 0.072-0.609l-0.004 0.026c0.201-0.098 0.34-0.040 0.394 0.118 0.086 0.217 0.146 0.468 0.17 0.73l0.001 0.011c0.027 0.542 0.009 1.086 0.014 1.631 0.007 0.291 0.079 0.563 0.201 0.806l-0.005-0.011z"></path>
<path d="M15.026 8.933v-2.728l-0.282-0.198h-0.752l-0.236 0.298h-0.82v-1.525h0.822c0.050 0.065 0.106 0.139 0.168 0.221h1.317c0.163-0.156 0.153-0.385 0.185-0.59 0.126-0.806 0.092-1.619 0.092-2.43-0.004-0.053-0.012-0.101-0.023-0.149l0.001 0.007-0.365-0.021v-1.342c0.347 0.005 0.626-0.163 0.846-0.476 0.094 0.041 0.174 0.087 0.248 0.14l-0.004-0.003c0.309 0.282 0.307 0.285 0.675 0.343v1.313l-0.287 0.057c-0.013 0.021-0.038 0.042-0.038 0.064-0.024 1.492-0.025 2.484 0.219 3.081h1.313l0.191-0.228h0.762c0.073 0.287 0.082 1.060 0.020 1.539h-0.779l-0.245-0.293h-0.748l-0.316 0.195v2.716c-0.289-0.053-0.621-0.083-0.961-0.083-0.356 0-0.704 0.033-1.041 0.097l0.035-0.005z"></path>
<path d="M15.026 24.603c0.677-0.356 1.314-0.379 1.975-0.005v0.367c0 1.359 0.012 2.717-0.016 4.078-0.007 0.783-0.152 1.53-0.411 2.221l0.015-0.045c-0.082 0.204-0.164 0.372-0.256 0.535l0.012-0.022c-0.062 0.101-0.123 0.186-0.189 0.268l0.004-0.005h-0.259c-0.032-0.023-0.060-0.048-0.085-0.076v0c-0.353-0.464-0.5-1.010-0.612-1.567-0.17-0.84-0.189-1.691-0.181-2.545 0.010-1.057 0.006-2.117 0.006-3.203z"></path>
</svg>
