<!-- Generated by IcoMoon.io -->
<svg version="1.1" xmlns="http://www.w3.org/2000/svg" width="32" height="32" viewBox="0 0 32 32">
<title>recovery</title>
<path d="M5.786 18.158l4.186-5.846h-2.35v-1.165l8.404-4.85 8.404 4.85v3.079l1.784-2.487 1.797 2.519v-5.175l-11.984-6.92-11.984 6.92v3.229h-2.435l2.435 3.405z"></path>
<path d="M28.010 16.153l-1.797-2.513-1.784 2.487-2.402 3.359h2.402v1.367l-8.404 4.85-8.404-4.85v-3.333l-1.836 2.565-1.745-2.435v5.273l11.984 6.913 11.984-6.913v-3.437h2.383z"></path>
<path d="M10.441 15.88c0 3.086 2.5 5.585 5.585 5.585s5.585-2.5 5.585-5.585c0-3.086-2.5-5.585-5.585-5.585s-5.585 2.5-5.585 5.585zM18.903 15.229v1.302h-2.226v2.226h-1.302v-2.226h-2.226v-1.302h2.226v-2.226h1.302v2.226h2.226z"></path>
</svg>
