<!-- Generated by IcoMoon.io -->
<svg version="1.1" xmlns="http://www.w3.org/2000/svg" width="32" height="32" viewBox="0 0 32 32">
<title>resilience</title>
<path d="M16 2.303l-11.865 6.846v13.697l11.865 6.852 11.865-6.852v-13.697l-11.865-6.846zM24.728 21.038l-8.728 5.038-8.728-5.038v-10.077l8.728-5.038 8.728 5.038v10.077z"></path>
<path d="M10.296 10.642v7.486c1.437 4.737 5.704 5.716 5.704 5.716s4.267-0.979 5.704-5.716v-7.486c0 0-3.326-0.904-5.704-1.845-2.384 0.941-5.704 1.845-5.704 1.845zM20.449 11.595v6.344c-0.709 2.165-2.102 3.376-3.194 4.022 0 0-0.96 0.514-1.255 0.615v-12.424c0.408 0.151 0.834 0.307 1.255 0.445 1.205 0.408 2.403 0.765 3.194 0.998z"></path>
</svg>
