<svg width="36" height="32" viewBox="0 0 36 32" fill="none" xmlns="http://www.w3.org/2000/svg">
<path fill-rule="evenodd" clip-rule="evenodd" d="M24.7551 4H5.26712C2.64374 4 3.01851 7.74769 3.01851 7.74769H8.26527V25.7366C8.26527 27.2357 9.76434 28.7347 11.2634 28.7347H29.2523C30.3766 28.8597 33 27.8353 33 24.2375H27.0037V6.24861C27.0037 5.49907 26.554 4 24.7551 4ZM32.2505 24.9871H17.2597C17.2597 26.1114 16.1354 27.9852 13.8868 27.9852H29.2523C30.7514 27.9852 32.2505 26.4861 32.2505 24.9871ZM6.01666 4.74952C7.51573 4.74952 8.26527 5.49906 8.26527 6.99813H3.76805C3.76805 5.49906 4.51758 4.74952 6.01666 4.74952ZM11.2634 7.74768V11.2455H24.0056V7.74768H11.2634ZM11.2634 12.4115V19.9901L17.6345 23.488L24.0056 19.9901V12.4115L17.6345 15.6178L11.2634 12.4115Z" fill="white"/>
</svg>
