<!-- Generated by IcoMoon.io -->
<svg version="1.1" xmlns="http://www.w3.org/2000/svg" width="32" height="32" viewBox="0 0 32 32">
<title>vanguard</title>
<path d="M5.312 1.376h21.376l0.032 0.224-0.032 0.192v21.44q0 0.864-0.448 1.568v0q-0.608 0.864-1.44 1.536v0q-1.888 1.536-4.224 2.848l-0.16 0.064q-2.336 1.28-4.384 2.144l-0.768-0.32-0.704-0.32q-2.72-1.312-4.032-2.080-1.472-0.832-2.976-1.984l0.064 0.032q-1.024-0.8-1.824-1.888v-0.032q-0.48-0.672-0.48-1.568v-21.856zM5.856 1.952v21.184q0 0.768 0.512 1.44v0q0.48 0.704 1.376 1.504h0.032q1.408 1.152 3.296 2.208l0.128 0.064q0.832 0.448 2.528 1.312l0.864 0.448 1.472 0.64 3.2-1.568q1.952-0.992 3.648-2.112l-0.128 0.064q1.408-0.864 2.56-2.112v0q0.832-0.896 0.832-2.048v-20.992zM7.040 22.464l8.96-4.8 8.96 4.8q0.032 0.128 0.032 0.416 0 0.864-0.576 1.536v0q-0.672 0.832-1.568 1.504h-0.032q-1.472 1.088-3.296 2.080l-0.16 0.064q-1.024 0.544-3.072 1.504l-0.064 0.032q-0.128 0.032-0.192 0.032t-0.288-0.064v0q-3.2-1.376-6.304-3.456l0.128 0.064q-0.768-0.48-1.6-1.312l-0.032-0.032q-0.384-0.48-0.544-0.704h-0.032q-0.352-0.544-0.352-1.216 0-0.32 0.032-0.448v0zM24.992 3.040v8.032q-4.544-2.368-8.992-4.64l-8.896 4.608h-0.064v-8h17.952zM24.992 18.368v0.96l-8.992-4.64-8.96 4.64v-0.96l8.96-4.8zM7.040 15.2v-0.928l8.96-4.832 8.992 4.8v0.96l-8.992-4.64z"></path>
</svg>
