<!-- Generated by IcoMoon.io -->
<svg version="1.1" xmlns="http://www.w3.org/2000/svg" width="32" height="32" viewBox="0 0 32 32">
<title>vanguard2</title>
<path d="M0 9.938c0.053-0.029 0.107-0.014 0.159-0.014q2.414 0 4.829-0.003c0.006 0 0.013-0.001 0.021-0.001 0.094 0 0.177 0.044 0.231 0.113v0.001q3.364 3.97 6.733 7.938c0.243 0.286 0.491 0.568 0.726 0.859 0.086 0.107 0.124 0.087 0.203-0.006q2.022-2.391 4.051-4.776 1.71-2.015 3.419-4.031c0.050-0.059 0.098-0.097 0.184-0.097q2.48 0.005 4.961 0.003c0.024 0 0.048 0.003 0.074 0.005 0.006 0.068-0.048 0.097-0.080 0.136q-5.047 5.95-10.095 11.902c-0.054 0.070-0.138 0.114-0.232 0.114-0.007 0-0.014 0-0.021-0.001h0.001q-2.37-0.004-4.74 0c-0.005 0-0.012 0.001-0.018 0.001-0.090 0-0.17-0.042-0.221-0.108v-0.001q-3.857-4.552-7.719-9.101-1.188-1.4-2.376-2.8c-0.033-0.039-0.081-0.071-0.089-0.132z"></path>
<path d="M32 9.931c-0.25 0.296-0.482 0.57-0.714 0.843q-4.709 5.55-9.415 11.101c-0.121 0.143-0.241 0.207-0.435 0.206-1.565-0.009-3.13-0.005-4.695-0.005h-0.178c-0.016-0.070 0.035-0.096 0.064-0.131q4.762-5.612 9.525-11.223c0.201-0.237 0.403-0.474 0.603-0.711 0.047-0.056 0.093-0.089 0.173-0.089q2.489 0.004 4.977 0.002c0.019-0.002 0.038 0.002 0.095 0.007z"></path>
<path d="M19.233 9.934c-0.405 0.479-0.798 0.944-1.19 1.407q-0.782 0.923-1.565 1.845-0.726 0.855-1.454 1.708-0.774 0.912-1.544 1.824c-0.204 0.24-0.411 0.477-0.612 0.719-0.066 0.080-0.11 0.069-0.17-0.004-0.406-0.49-0.813-0.981-1.224-1.467-0.248-0.294-0.507-0.577-0.755-0.871-0.305-0.36-0.6-0.727-0.905-1.087s-0.621-0.711-0.926-1.070-0.6-0.726-0.904-1.085c-0.245-0.289-0.499-0.569-0.744-0.859s-0.492-0.588-0.736-0.884c-0.045-0.055-0.121-0.085-0.143-0.176z"></path>
</svg>
