<?xml version="1.0" encoding="UTF-8" standalone="no"?>
<!DOCTYPE svg PUBLIC "-//W3C//DTD SVG 1.1//EN" "http://www.w3.org/Graphics/SVG/1.1/DTD/svg11.dtd">
<svg width="100%" height="100%" viewBox="0 0 96 96" version="1.1" xmlns="http://www.w3.org/2000/svg" xmlns:xlink="http://www.w3.org/1999/xlink" xml:space="preserve" xmlns:serif="http://www.serif.com/" style="fill-rule:evenodd;clip-rule:evenodd;stroke-linecap:round;stroke-miterlimit:3;">
    <g>
        <path d="M75.993,12L75.993,76L48,93L21.001,76L21.001,12L75.993,12ZM75.993,9L75.993,11L21.001,11L21.001,9L75.993,9ZM75.999,7L75.999,8L21.007,8L21.007,7L75.999,7Z" style="fill:none;stroke:white;stroke-width:3px;"/>
        <path d="M75.993,12L75.993,76L48,93L21.001,76L21.001,12L75.993,12ZM75.993,9L75.993,11L21.001,11L21.001,9L75.993,9ZM75.999,7L75.999,8L21.007,8L21.007,7L75.999,7Z"/>
    </g>
    <g transform="matrix(0.0556626,0,0,0.0556626,20.0008,27.4489)">
        <clipPath id="_clip1">
            <rect x="17.969" y="-108.007" width="987.95" height="991.394"/>
        </clipPath>
        <g clip-path="url(#_clip1)">
            <path d="M199.792,466.077C211.954,478.23 224.112,490.388 236.265,502.55C237.14,503.418 238.172,504.129 239.474,505.181C242.663,431.308 269.331,368.102 322.028,316.879C374.725,265.656 438.687,240.875 511.994,239.731C585.301,240.875 649.27,265.715 701.96,316.892C754.65,368.069 781.324,431.322 784.514,505.194C785.829,504.129 786.849,503.419 787.723,502.563C799.898,490.418 812.056,478.261 824.196,466.09C889.847,400.462 955.495,334.84 1021.14,269.225C1022.07,268.298 1023.11,267.489 1023.96,266.746L1023.96,182.706L820.632,385.917C803.402,344.604 779.398,308.434 748.094,277.216C717.979,247.051 682.041,222.708 642.11,206.016L639.939,205.211C599.027,188.408 556.445,180.221 511.995,180.221C467.545,180.221 424.963,188.408 384.064,205.211C341.956,222.707 306.014,247.049 275.899,277.212L275.894,277.217C244.59,308.462 220.586,344.632 203.356,385.918L0.033,182.707L0.033,266.747C0.875,267.49 1.921,268.299 2.848,269.226C68.503,334.841 134.151,400.458 199.792,466.078L199.792,466.077Z" style="fill:white;fill-rule:nonzero;stroke:black;stroke-width:14.37px;stroke-linecap:butt;stroke-linejoin:round;stroke-miterlimit:1.41421;"/>
            <path d="M1021.52,285.613C997.013,310.086 972.516,334.568 948.029,359.059C910.684,396.413 873.334,433.769 835.98,471.127C822.419,484.688 808.861,498.246 795.305,511.802C788.104,518.99 780.837,526.112 773.603,533.254C773.077,533.774 772.479,534.221 771.794,534.806C776.89,446.998 748.119,373.026 682.125,314.713C632.309,270.716 568.886,251.02 512.026,251.579L511.974,251.579C455.114,251 391.691,270.697 341.875,314.713C275.855,373.033 247.109,446.997 252.206,534.806C251.548,534.221 250.924,533.774 250.397,533.254C243.163,526.112 235.889,518.99 228.695,511.802C215.104,498.263 201.545,484.705 188.02,471.127C150.666,433.769 113.31,396.413 75.952,359.059C51.47,334.568 26.975,310.086 2.467,285.613C1.809,284.955 1.244,283.923 0.001,283.719L0.001,368.147C9.096,377.15 18.375,386.298 27.622,395.485C48.505,416.275 69.369,437.081 90.216,457.902C114.627,482.301 139.015,506.721 163.378,531.163C202.578,570.341 241.795,609.519 281.03,648.697C297.3,664.947 313.459,681.316 329.833,697.468C355.554,722.834 385.456,741.728 419.167,754.683C448.103,765.771 478.124,771.223 509.073,771.781C510,771.781 510.934,771.689 511.993,771.623C513.052,771.688 513.966,771.801 514.913,771.781C545.862,771.228 575.87,765.777 604.819,754.683C638.53,741.76 668.433,722.866 694.153,697.468C710.528,681.316 726.687,664.947 742.956,648.697C782.178,609.515 821.4,570.337 860.621,531.163C885.032,506.764 909.418,482.344 933.777,457.902C954.616,437.068 975.483,416.262 996.378,395.485C1005.59,386.278 1014.89,377.15 1024,368.147L1024,283.719C1022.74,283.923 1022.21,284.922 1021.52,285.613L1021.52,285.613ZM511.994,712.745C397.282,711.634 311.644,620.057 310.808,513.723C310.426,465.235 325.401,421.7 356.323,384.345C396.564,335.732 449.11,312.004 511.993,310.393C574.876,312.004 627.423,335.732 667.663,384.345C698.572,421.699 713.56,465.235 713.178,513.723C712.343,620.057 626.731,711.634 511.992,712.745L511.994,712.745Z" style="fill:white;fill-rule:nonzero;stroke:black;stroke-width:14.37px;stroke-linecap:butt;stroke-linejoin:round;stroke-miterlimit:1.41421;"/>
            <path d="M960.492,448.031C918.004,490.488 875.525,532.965 833.054,575.462C794.223,614.289 755.389,653.112 716.553,691.93C709.03,699.44 701.487,706.931 693.654,714.099C675.181,731.02 654.439,744.634 631.961,755.636C605.258,769.101 574.151,778.378 541.279,781.668L540.168,781.758C531.895,782.56 523.563,782.751 515.263,783.218L511.975,783.396L508.687,783.218C500.388,782.751 492.049,782.56 483.782,781.758C449.799,778.379 418.692,769.101 390.457,754.94L391.989,755.636C369.511,744.634 348.769,731.02 330.296,714.099C322.464,706.931 314.921,699.44 307.397,691.93C268.566,653.116 229.745,614.293 190.935,575.462C148.46,532.969 105.981,490.492 63.497,448.031C43.264,427.815 23.004,407.619 2.718,387.443C1.975,386.72 1.173,386.003 0.074,384.983L0.074,469.819C0.534,470.352 0.936,470.871 1.389,471.331C6.181,476.154 10.982,480.95 15.791,485.72C105.02,574.975 194.238,664.248 283.445,753.538C293.235,763.246 303.802,772.21 315.029,780.315L315.807,780.85C369.286,819.94 436.277,843.496 508.757,843.779L508.825,843.779C509.851,843.779 510.884,843.674 511.995,843.608C513.106,843.673 514.139,843.779 515.165,843.779C587.716,843.505 654.712,819.955 709.136,780.215L708.196,780.869C720.202,772.229 730.768,763.265 740.577,753.539L740.559,753.557C829.718,664.201 918.92,574.915 1008.17,485.7C1012.97,480.877 1017.77,476.081 1022.57,471.311C1023.03,470.851 1023.43,470.331 1023.88,469.799L1023.88,384.963C1022.79,385.982 1021.99,386.68 1021.25,387.423C1001,407.634 980.745,427.837 960.494,448.031L960.492,448.031Z" style="fill:white;fill-rule:nonzero;stroke:black;stroke-width:14.37px;stroke-linecap:butt;stroke-linejoin:round;stroke-miterlimit:1.41421;"/>
            <path d="M512.336,322.113L511.678,322.113C445.572,321.909 379.302,358.04 344.952,422.838C311.34,486.261 316.673,563.067 359.045,621.979C399.529,678.28 463.235,701.238 512.019,699.85C560.803,701.237 624.509,678.279 664.993,621.979C707.359,563.068 712.699,486.262 679.086,422.838C644.711,358.04 578.44,321.91 512.334,322.113L512.336,322.113ZM644.975,512.237C644.488,548.618 631.335,580.066 605.451,605.714C579.698,631.25 548.236,643.614 511.994,644.449C475.778,643.614 444.29,631.25 418.537,605.714C392.646,580.066 379.493,548.624 379.013,512.244C378.618,482.242 387.563,454.898 405.831,431.058C432.518,396.256 468.379,379.104 511.915,377.71C511.915,377.493 511.967,377.21 511.994,376.868C511.994,377.21 512.046,377.493 512.073,377.71C555.609,379.078 591.47,396.255 618.157,431.058C636.439,454.891 645.37,482.236 644.975,512.237Z" style="fill:white;fill-rule:nonzero;stroke:black;stroke-width:14.37px;stroke-linecap:butt;stroke-linejoin:round;stroke-miterlimit:1.41421;"/>
            <path d="M512.014,446.506L511.974,446.506C488.496,447.42 469.688,456.864 457.265,476.613C442.646,499.834 442.593,524.048 457.061,547.369C469.471,567.295 488.338,576.805 511.948,577.758L511.988,577.758C535.597,576.804 554.465,567.295 566.875,547.369C581.396,524.049 581.343,499.848 566.697,476.613C554.3,456.864 535.492,447.42 512.014,446.506Z" style="fill:white;fill-rule:nonzero;stroke:black;stroke-width:14.37px;stroke-linecap:butt;stroke-linejoin:round;stroke-miterlimit:1.41421;"/>
        </g>
    </g>
</svg>
